<svg width="16" height="16" viewBox="0 0 16 16" fill="none" xmlns="http://www.w3.org/2000/svg">
<g id="Bookmark">
<g id="Iconly/Light-Outline/Bookmark">
<g id="Bookmark_2">
<path id="Combined-Shape" fill-rule="evenodd" clip-rule="evenodd" d="M9.67935 1C11.9055 1 13.1827 2.10192 13.1827 4.0216V13.5615C13.1827 13.9619 12.9766 14.3222 12.6301 14.5237C12.2848 14.7258 11.8688 14.7298 11.5196 14.5329L7.60807 12.3231L3.66043 14.5375C3.4898 14.6333 3.30275 14.6818 3.11505 14.6818C2.92144 14.6818 2.72783 14.63 2.55195 14.5263C2.20608 14.3248 2 13.9645 2 13.5648V3.90149C2 2.0573 3.27781 1 5.50594 1H9.67935ZM9.67935 1.98445H5.50594C3.83304 1.98445 2.98445 2.62893 2.98445 3.90149V13.5648C2.98445 13.6265 3.01989 13.66 3.04942 13.6771C3.07895 13.6954 3.12555 13.7086 3.17937 13.6784L7.36786 11.3288C7.5175 11.2455 7.70061 11.2448 7.8509 11.3295L12.0033 13.6751C12.0578 13.7066 12.1044 13.6922 12.1339 13.6744C12.1634 13.6567 12.1982 13.6232 12.1982 13.5615L12.198 3.94681C12.193 3.38195 12.0837 1.98445 9.67935 1.98445ZM9.96733 5.4159C10.239 5.4159 10.4596 5.63642 10.4596 5.90813C10.4596 6.17983 10.239 6.40035 9.96733 6.40035H5.16454C4.89283 6.40035 4.67231 6.17983 4.67231 5.90813C4.67231 5.63642 4.89283 5.4159 5.16454 5.4159H9.96733Z" fill="#AFB0B3"/>
</g>
</g>
</g>
</svg>
