<svg width="32" height="32" viewBox="0 0 32 32" fill="none" xmlns="http://www.w3.org/2000/svg">
<g id="Bookmark">
<path id="Vector" fill-rule="evenodd" clip-rule="evenodd" d="M7.53419 28.6673C7.04086 28.6673 6.57686 28.4753 6.22753 28.126C5.88086 27.778 5.68886 27.314 5.69019 26.822V8.55398C5.69019 5.23665 8.00886 3.33398 12.0529 3.33398H19.9422C24.0422 3.33398 26.3022 5.26865 26.3022 8.78198L26.3089 26.8167C26.3089 27.1327 26.2262 27.446 26.0702 27.7233C25.8289 28.1513 25.4342 28.4607 24.9596 28.5927C24.4836 28.7273 23.9862 28.6647 23.5569 28.422L16.0329 24.174L8.43819 28.4313C8.15953 28.586 7.84753 28.6673 7.53419 28.6673ZM11.4091 13.3469H20.4878C21.0398 13.3469 21.4878 12.8989 21.4878 12.3469C21.4878 11.7949 21.0398 11.3469 20.4878 11.3469H11.4091C10.8571 11.3469 10.4091 11.7949 10.4091 12.3469C10.4091 12.8989 10.8571 13.3469 11.4091 13.3469Z" fill="#E6F3FF"/>
</g>
</svg>
