<svg width="48" height="48" viewBox="0 0 48 48" fill="none" xmlns="http://www.w3.org/2000/svg">
<rect width="48" height="48" rx="24" fill="#2964E0"/>
<path d="M19.8149 17.9842L21.1685 16.3598C21.3585 16.1318 21.64 16 21.9367 16H26.0632C26.36 16 26.6415 16.1318 26.8315 16.3598L28.1851 17.9842C28.7215 18.6279 29.516 19 30.3539 19C31.8153 19 33 20.1847 33 21.6461V29C33 30.6569 31.6569 32 30 32H18C16.3431 32 15 30.6569 15 29V21.6461C15 20.1847 16.1847 19 17.6461 19C18.484 19 19.2785 18.6279 19.8149 17.9842Z" stroke="white" stroke-width="2" stroke-linejoin="round"/>
<circle cx="24" cy="25" r="3" stroke="white" stroke-width="2"/>
</svg>
