<svg width="32" height="32" viewBox="0 0 32 32" fill="none" xmlns="http://www.w3.org/2000/svg">
<g id="ChatPlus">
<g id="Iconly/Bold/Chat">
<g id="Chat_2">
<path id="Vector" d="M13.1897 5C19.5327 5 24.3346 10.2006 24.3346 16.1505C24.3346 23.0511 18.7063 27.3346 13.1673 27.3346C11.3359 27.3346 9.30343 26.8425 7.673 25.8807C7.10346 25.534 6.62327 25.2768 6.00907 25.4781L3.75327 26.1491C3.18374 26.3281 2.67004 25.8807 2.83755 25.2768L3.58576 22.7715C3.7086 22.4248 3.68626 22.0557 3.50759 21.765C2.5472 19.9979 2 18.063 2 16.1841C2 10.3013 6.70144 5 13.1897 5ZM18.2931 14.7637C17.5002 14.7637 16.8637 15.4012 16.8637 16.1953C16.8637 16.9782 17.5002 17.6268 18.2931 17.6268C19.086 17.6268 19.7225 16.9782 19.7225 16.1953C19.7225 15.4012 19.086 14.7637 18.2931 14.7637ZM13.145 14.7637C12.3633 14.7525 11.7156 15.4012 11.7156 16.1841C11.7156 16.9782 12.3521 17.6157 13.145 17.6268C13.9379 17.6268 14.5744 16.9782 14.5744 16.1953C14.5744 15.4012 13.9379 14.7637 13.145 14.7637ZM7.99685 14.7637C7.20397 14.7637 6.56743 15.4012 6.56743 16.1953C6.56743 16.9782 7.21514 17.6268 7.99685 17.6268C8.78973 17.6157 9.42627 16.9782 9.42627 16.1953C9.42627 15.4012 8.78973 14.7637 7.99685 14.7637Z" fill="#2964E0"/>
</g>
</g>
<path id="Vector_2" fill-rule="evenodd" clip-rule="evenodd" d="M29.4959 8.27672H28.0231V6.85164C28.0231 6.38153 27.6416 6 27.1715 6C26.7014 6 26.3199 6.38153 26.3199 6.85164V8.27672H24.8516C24.3815 8.27672 24 8.65825 24 9.12838C24 9.59848 24.3815 9.98002 24.8516 9.98002H26.3199V11.4051C26.3199 11.8752 26.7014 12.2567 27.1715 12.2567C27.6416 12.2567 28.0231 11.8752 28.0231 11.4051V9.98002H29.4959C29.966 9.98002 30.3476 9.59848 30.3476 9.12838C30.3476 8.65825 29.966 8.27672 29.4959 8.27672Z" fill="#2964E0"/>
</g>
</svg>
