<svg width="24" height="24" viewBox="0 0 24 24" fill="none" xmlns="http://www.w3.org/2000/svg">
<g id="Check out">
<path id="Vector" d="M10.1182 11.123V12.8758" stroke="#8C8D91" stroke-width="1.5" stroke-linecap="round"/>
<path id="Vector_2" d="M13.1777 18.5843V5.41567C13.1777 3.72606 11.6242 2.46304 9.96873 2.80665L4.74594 3.89066C3.50864 4.14748 2.62153 5.23688 2.62153 6.49968V17.5003C2.62153 18.7631 3.50864 19.8525 4.74594 20.1093L9.96873 21.1933C11.6242 21.537 13.1777 20.2739 13.1777 18.5843Z" stroke="#8C8D91" stroke-width="1.5" stroke-linecap="round" stroke-linejoin="round"/>
<path id="Vector_3" d="M13.3166 19.1253H16.1687C17.5237 19.1253 18.6221 18.0277 18.6221 16.6738" stroke="#8C8D91" stroke-width="1.5" stroke-linecap="round" stroke-linejoin="round"/>
<path id="Vector_4" d="M21.3779 11.9997H15.5096M21.3779 11.9997L19.3694 10M21.3779 11.9997L19.3694 14" stroke="#8C8D91" stroke-width="1.5" stroke-linecap="round" stroke-linejoin="round"/>
<path id="Vector_5" d="M13.3166 4.875H16.1687C17.5237 4.875 18.6221 5.97259 18.6221 7.32653" stroke="#8C8D91" stroke-width="1.5" stroke-linecap="round" stroke-linejoin="round"/>
</g>
</svg>
