<svg width="16" height="16" viewBox="0 0 16 16" fill="none" xmlns="http://www.w3.org/2000/svg">
<g id="Copy 2">
<path id="Vector" fill-rule="evenodd" clip-rule="evenodd" d="M2.23275 1.64012C2.72323 1.11322 3.41727 0.824219 4.22042 0.824219H8.04589C8.75406 0.824219 9.37833 1.04666 9.85413 1.46389C10.3283 1.8796 10.6205 2.45824 10.7219 3.11217C10.7685 3.41346 10.5622 3.69558 10.2609 3.74228C9.9596 3.78899 9.67747 3.58261 9.6308 3.28132C9.56367 2.8485 9.38039 2.5169 9.12622 2.29407C8.87382 2.07275 8.51712 1.92833 8.04589 1.92833H4.22042C3.69181 1.92833 3.30167 2.11229 3.0409 2.39242C2.77609 2.67689 2.60411 3.10501 2.60411 3.65846V8.58641C2.60411 9.09062 2.74753 9.49134 2.97296 9.772C3.19483 10.0483 3.52099 10.2403 3.95654 10.2943C4.25912 10.3319 4.47399 10.6076 4.43646 10.9101C4.39894 11.2127 4.12323 11.4276 3.82066 11.39C3.11545 11.3026 2.52333 10.9754 2.11213 10.4634C1.70448 9.95587 1.5 9.29944 1.5 8.58641V3.65846C1.5 2.87564 1.74632 2.16267 2.23275 1.64012Z" fill="#AFB0B3"/>
<path id="Vector_2" fill-rule="evenodd" clip-rule="evenodd" d="M5.96913 5.40015C6.45976 4.87393 7.15384 4.58594 7.95675 4.58594H11.781C12.5857 4.58594 13.2801 4.87367 13.7706 5.40045C14.2568 5.92278 14.5013 6.63525 14.5013 7.41697V12.3449C14.5013 13.1266 14.2568 13.8391 13.7704 14.3615C13.2799 14.8883 12.5853 15.1759 11.7803 15.1759H7.95675C7.15193 15.1759 6.45758 14.8882 5.96716 14.3614C5.4809 13.8391 5.23633 13.1266 5.23633 12.3449V7.41697C5.23633 6.63445 5.48249 5.9221 5.96913 5.40015ZM6.77668 6.15308C6.51225 6.43672 6.34044 6.86381 6.34044 7.41697V12.3449C6.34044 12.8988 6.51159 13.3258 6.77528 13.609C7.03482 13.8879 7.42465 14.0718 7.95675 14.0718H11.7803C12.3128 14.0718 12.7028 13.8878 12.9623 13.609C13.2261 13.3258 13.3972 12.8988 13.3972 12.3449V7.41697C13.3972 6.86307 13.2261 6.43604 12.9624 6.15278C12.7029 5.87399 12.3131 5.69005 11.781 5.69005H7.95675C7.4273 5.69005 7.03718 5.87374 6.77668 6.15308Z" fill="#AFB0B3"/>
</g>
</svg>
