<svg width="36" height="36" viewBox="0 0 36 36" fill="none" xmlns="http://www.w3.org/2000/svg">
<path fill-rule="evenodd" clip-rule="evenodd" d="M7.96229 13.7725C8.55717 13.729 9.07465 14.176 9.11811 14.7709L9.99933 26.8318C10.1403 28.7641 11.7496 30.2604 13.6855 30.2604H22.3155C24.2528 30.2604 25.8607 28.7642 26.0016 26.8334L26.8828 14.7709C26.9263 14.176 27.4438 13.729 28.0387 13.7725C28.6335 13.8159 29.0805 14.3334 29.0372 14.9283L28.1559 26.9906C27.9325 30.0499 25.3852 32.4204 22.3155 32.4204H13.6855C10.6171 32.4204 8.06841 30.0499 7.84506 26.9892L6.96386 14.9283C6.9204 14.3334 7.3674 13.8159 7.96229 13.7725Z" fill="#FBFBFB"/>
<path fill-rule="evenodd" clip-rule="evenodd" d="M5.01953 10.3222C5.01953 9.72573 5.50307 9.24219 6.09953 9.24219H29.9021C30.4985 9.24219 30.9821 9.72573 30.9821 10.3222C30.9821 10.9186 30.4985 11.4022 29.9021 11.4022H6.09953C5.50307 11.4022 5.01953 10.9186 5.01953 10.3222Z" fill="#FBFBFB"/>
<path fill-rule="evenodd" clip-rule="evenodd" d="M15.0395 4.34181H20.9723C22.2732 4.34181 23.4148 5.21613 23.7515 6.47517C23.7571 6.49632 23.7621 6.51766 23.7664 6.53913L24.4908 10.1046C24.6096 10.6891 24.232 11.2592 23.6474 11.378C23.0629 11.4967 22.4928 11.1191 22.374 10.5346L21.6577 7.00862C21.5661 6.70891 21.2881 6.50181 20.9723 6.50181H15.0341C14.7155 6.50071 14.4367 6.70756 14.3441 7.00833L13.6351 10.5326C13.5174 11.1174 12.948 11.496 12.3633 11.3784C11.7785 11.2607 11.3999 10.6913 11.5175 10.1066L12.2348 6.54113C12.2393 6.51871 12.2445 6.49645 12.2505 6.47436C12.589 5.21209 13.7343 4.33827 15.0395 4.34181Z" fill="#FBFBFB"/>
<path fill-rule="evenodd" clip-rule="evenodd" d="M15.2656 16.9883C15.8621 16.9883 16.3456 17.4718 16.3456 18.0683V24.5604C16.3456 25.1568 15.8621 25.6404 15.2656 25.6404C14.669 25.6404 14.1855 25.1568 14.1855 24.5604V18.0683C14.1855 17.4718 14.669 16.9883 15.2656 16.9883ZM20.1334 16.9883C20.7298 16.9883 21.2134 17.4718 21.2134 18.0683V24.5604C21.2134 25.1568 20.7298 25.6404 20.1334 25.6404C19.5369 25.6404 19.0534 25.1568 19.0534 24.5604V18.0683C19.0534 17.4718 19.5369 16.9883 20.1334 16.9883Z" fill="#FBFBFB"/>
</svg>
