<svg width="16" height="16" viewBox="0 0 16 16" fill="none" xmlns="http://www.w3.org/2000/svg">
<g id="2 User">
<path id="Vector" fill-rule="evenodd" clip-rule="evenodd" d="M10.8479 8.20508C10.0946 8.20508 9.38125 8.35841 8.78125 8.61174C10.8879 9.22508 12.3746 10.6851 12.4079 12.3851C13.5013 12.2384 14.6746 11.8317 14.6746 10.6984C14.6746 9.34508 12.9213 8.20508 10.8479 8.20508Z" fill="#2964E0"/>
<path id="Vector_2" fill-rule="evenodd" clip-rule="evenodd" d="M11.528 7.14663H11.548C12.968 7.14663 14.1213 5.99333 14.1213 4.57333C14.1213 3.15333 12.968 2 11.548 2C11.268 2 11.0013 2.04667 10.748 2.12667C11.208 2.80667 11.4746 3.62667 11.4746 4.50667C11.4746 5.43333 11.1746 6.29333 10.668 6.9933C10.9346 7.0933 11.228 7.14663 11.528 7.14663Z" fill="#2964E0"/>
<path id="Vector_3" fill-rule="evenodd" clip-rule="evenodd" d="M6.2047 9.33398C3.56336 9.33398 1.33203 10.7773 1.33203 12.486C1.33203 14.4453 4.1127 14.672 6.2047 14.672C7.41 14.672 11.0773 14.672 11.0773 12.4727C11.0773 10.7713 8.846 9.33398 6.2047 9.33398Z" fill="#2964E0"/>
<path id="Vector_4" fill-rule="evenodd" clip-rule="evenodd" d="M6.55406 7.84925H6.57406C8.36273 7.84925 9.8174 6.39461 9.8174 4.60661C9.8174 2.81795 8.36273 1.36328 6.57406 1.36328C4.78672 1.36328 3.33206 2.81795 3.33206 4.60528C3.32872 5.46861 3.66139 6.28128 4.27006 6.89392C4.87872 7.50659 5.68939 7.84592 6.55406 7.84925Z" fill="#2964E0"/>
</g>
</svg>
