<svg width="24" height="24" viewBox="0 0 24 24" fill="none" xmlns="http://www.w3.org/2000/svg">
<g id="Hamburger menu">
<path id="Vector" fill-rule="evenodd" clip-rule="evenodd" d="M3.6001 18.9759C3.6001 18.5782 3.92246 18.2559 4.3201 18.2559H19.6801C20.0777 18.2559 20.4001 18.5782 20.4001 18.9759C20.4001 19.3735 20.0777 19.6959 19.6801 19.6959H4.3201C3.92246 19.6959 3.6001 19.3735 3.6001 18.9759Z" fill="black"/>
<path id="Vector_2" fill-rule="evenodd" clip-rule="evenodd" d="M3.6001 5.53445C3.6001 5.13681 3.92246 4.81445 4.3201 4.81445H19.6801C20.0777 4.81445 20.4001 5.13681 20.4001 5.53445C20.4001 5.9321 20.0777 6.25445 19.6801 6.25445H4.3201C3.92246 6.25445 3.6001 5.9321 3.6001 5.53445Z" fill="black"/>
<path id="Vector_3" fill-rule="evenodd" clip-rule="evenodd" d="M3.6001 12.2552C3.6001 11.8575 3.92246 11.5352 4.3201 11.5352H19.6801C20.0777 11.5352 20.4001 11.8575 20.4001 12.2552C20.4001 12.6528 20.0777 12.9752 19.6801 12.9752H4.3201C3.92246 12.9752 3.6001 12.6528 3.6001 12.2552Z" fill="black"/>
</g>
</svg>
