<svg width="16" height="20" viewBox="0 0 16 20" fill="none" xmlns="http://www.w3.org/2000/svg">
<g id="Menu">
<g id="Group">
<path id="Vector" d="M8 3.25C8.41421 3.25 8.75 2.91421 8.75 2.5C8.75 2.08579 8.41421 1.75 8 1.75C7.58579 1.75 7.25 2.08579 7.25 2.5C7.25 2.91421 7.58579 3.25 8 3.25Z" stroke="#B0D0FF" stroke-width="1.5" stroke-linecap="round" stroke-linejoin="round"/>
<path id="Vector_2" d="M8 10.75C8.41421 10.75 8.75 10.4142 8.75 10C8.75 9.58579 8.41421 9.25 8 9.25C7.58579 9.25 7.25 9.58579 7.25 10C7.25 10.4142 7.58579 10.75 8 10.75Z" stroke="#B0D0FF" stroke-width="1.5" stroke-linecap="round" stroke-linejoin="round"/>
<path id="Vector_3" d="M8 18.25C8.41421 18.25 8.75 17.9142 8.75 17.5C8.75 17.0858 8.41421 16.75 8 16.75C7.58579 16.75 7.25 17.0858 7.25 17.5C7.25 17.9142 7.58579 18.25 8 18.25Z" stroke="#B0D0FF" stroke-width="1.5" stroke-linecap="round" stroke-linejoin="round"/>
</g>
</g>
</svg>
