<svg width="24" height="24" viewBox="0 0 24 24" fill="none" xmlns="http://www.w3.org/2000/svg">
<g id="Ringtone 4">
<path id="Vector" fill-rule="evenodd" clip-rule="evenodd" d="M14.6052 17.775C14.6052 19.07 13.5512 20.125 12.2552 20.125C10.9602 20.125 9.90621 19.07 9.90621 17.775C9.90621 17.769 9.90321 17.765 9.90321 17.759H14.6082C14.6082 17.765 14.6052 17.769 14.6052 17.775ZM20.2462 13.792L19.7802 12.802C19.4812 12.168 19.3232 11.461 19.3232 10.759L19.3222 9.441C19.3222 5.545 16.1522 2.375 12.2562 2.375C8.36021 2.375 5.19021 5.545 5.19021 9.441L5.18921 10.759C5.18921 11.46 5.03121 12.166 4.73221 12.802L4.26721 13.792C3.85921 14.658 3.92121 15.659 4.43421 16.467C4.94721 17.276 5.82621 17.759 6.78421 17.759H8.40921C8.40921 17.765 8.40621 17.769 8.40621 17.775C8.40621 19.898 10.1332 21.625 12.2552 21.625C14.3782 21.625 16.1052 19.898 16.1052 17.775C16.1052 17.769 16.1022 17.765 16.1022 17.759H17.7282C18.6862 17.759 19.5642 17.276 20.0782 16.467C20.5912 15.659 20.6532 14.659 20.2462 13.792Z" fill="#2964E0"/>
</g>
</svg>
