<svg width="25" height="24" viewBox="0 0 25 24" fill="none" xmlns="http://www.w3.org/2000/svg">
<g id="Send">
<g id="Iconly/Bulk/Send">
<g id="Send_2">
<path id="Fill-1" d="M22.1022 2.5783C21.6022 2.0673 20.8622 1.8783 20.1722 2.0783L4.08222 6.7273C3.35422 6.9293 2.83822 7.5063 2.69922 8.2383C2.55722 8.9843 3.05322 9.9323 3.70122 10.3283L8.73222 13.4003C9.24822 13.7163 9.91422 13.6373 10.3412 13.2093L16.1022 7.4483C16.3922 7.1473 16.8722 7.1473 17.1622 7.4483C17.4522 7.7373 17.4522 8.2083 17.1622 8.5083L11.3912 14.2693C10.9632 14.6973 10.8832 15.3613 11.1982 15.8783L14.2722 20.9283C14.6322 21.5273 15.2522 21.8683 15.9322 21.8683C16.0122 21.8683 16.1022 21.8683 16.1822 21.8573C16.9622 21.7583 17.5822 21.2273 17.8122 20.4773L22.5822 4.5083C22.7922 3.8283 22.6022 3.0883 22.1022 2.5783Z" fill="white"/>
<path id="Combined-Shape" opacity="0.4" d="M10.1262 19.1428C10.4182 19.4358 10.4182 19.9108 10.1262 20.2038L8.7602 21.5688C8.6142 21.7158 8.4222 21.7888 8.2302 21.7888C8.0382 21.7888 7.8462 21.7158 7.7002 21.5688C7.4072 21.2758 7.4072 20.8018 7.7002 20.5088L9.0652 19.1428C9.3582 18.8508 9.8332 18.8508 10.1262 19.1428ZM9.3425 15.3548C9.6345 15.6478 9.6345 16.1228 9.3425 16.4158L7.9765 17.7808C7.8305 17.9278 7.6385 18.0008 7.4465 18.0008C7.2545 18.0008 7.0625 17.9278 6.9165 17.7808C6.6235 17.4878 6.6235 17.0138 6.9165 16.7208L8.2815 15.3548C8.5745 15.0628 9.0495 15.0628 9.3425 15.3548ZM5.5813 14.1624C5.8733 14.4554 5.8733 14.9304 5.5813 15.2234L4.2153 16.5884C4.0693 16.7354 3.8773 16.8084 3.6853 16.8084C3.4933 16.8084 3.3013 16.7354 3.1553 16.5884C2.8623 16.2954 2.8623 15.8214 3.1553 15.5284L4.5203 14.1624C4.8133 13.8704 5.2883 13.8704 5.5813 14.1624Z" fill="white"/>
</g>
</g>
</g>
</svg>
