<svg width="91" height="90" viewBox="0 0 91 90" fill="none" xmlns="http://www.w3.org/2000/svg">
<path d="M45.04 60.2577C42.7064 60.2609 40.4204 59.5944 38.4538 58.3377L13.2956 42.23C12.522 41.7347 11.9767 40.9524 11.7798 40.0552C11.5828 39.1584 11.7503 38.2197 12.2454 37.4461C12.7406 36.6721 13.523 36.1271 14.4202 35.93C15.3173 35.7333 16.2559 35.9009 17.0296 36.3961L42.1881 52.5084C43.0378 53.0507 44.025 53.3387 45.033 53.3387C46.0415 53.3387 47.0287 53.0507 47.8784 52.5084L73.0461 36.3961C73.8201 35.9009 74.7584 35.7333 75.6557 35.93C76.1001 36.0278 76.5206 36.212 76.894 36.4718C77.2669 36.7321 77.5849 37.0631 77.83 37.4461C78.0755 37.8292 78.2426 38.2566 78.3224 38.7043C78.4023 39.152 78.3935 39.6112 78.2961 40.0552C78.1987 40.4997 78.0146 40.9201 77.7543 41.2935C77.4944 41.6664 77.1635 41.9849 76.7804 42.23L51.6169 58.3377C49.654 59.5944 47.3712 60.2609 45.04 60.2577Z" fill="#2964E0"/>
<path d="M70.6158 45.4028C69.6982 45.4028 68.8185 45.0387 68.1696 44.3907C67.5207 43.7422 67.1551 42.863 67.1542 41.9459L67.1127 14.6273C67.0965 12.6558 66.3045 10.7701 64.9075 9.37899C63.5104 7.98792 61.6208 7.20376 59.6491 7.19651H30.4018C28.4228 7.20016 26.5259 7.98828 25.1269 9.38808C23.728 10.7879 22.9411 12.6852 22.9387 14.6642V41.9413C22.9387 42.8593 22.574 43.7399 21.9248 44.3888C21.2757 45.0382 20.3952 45.4028 19.4772 45.4028C18.5591 45.4028 17.6786 45.0382 17.0294 44.3888C16.3803 43.7399 16.0156 42.8593 16.0156 41.9413V14.6642C16.0193 10.8495 17.5359 7.19195 20.2329 4.49407C22.9299 1.79624 26.587 0.27833 30.4018 0.273438H59.6491C63.4471 0.286637 67.0868 1.79582 69.7799 4.47395C72.4725 7.15207 74.0016 10.7834 74.0358 14.5811L74.0773 41.9182C74.0778 42.3728 73.9891 42.8228 73.8156 43.2433C73.6421 43.6633 73.3873 44.0454 73.0665 44.3671C72.7453 44.6888 72.3641 44.9445 71.9445 45.119C71.5245 45.2934 71.075 45.3834 70.6204 45.3843L70.6158 45.4028Z" fill="#2964E0"/>
<path d="M50.2392 37.6119H39.8449C38.9269 37.6119 38.0467 37.2473 37.3974 36.5984C36.7484 35.949 36.3834 35.0686 36.3834 34.1506C36.3834 33.2325 36.7484 32.352 37.3974 31.7029C38.0467 31.0537 38.9269 30.689 39.8449 30.689H50.2392C51.1572 30.689 52.0374 31.0537 52.6867 31.7029C53.3357 32.352 53.7007 33.2325 53.7007 34.1506C53.7007 35.0686 53.3357 35.949 52.6867 36.5984C52.0374 37.2473 51.1572 37.6119 50.2392 37.6119ZM55.9387 22.9582H34.1451C33.2271 22.9582 32.3466 22.5935 31.6975 21.9444C31.0483 21.2952 30.6836 20.4148 30.6836 19.4967C30.6836 18.5786 31.0483 17.6982 31.6975 17.0491C32.3466 16.3999 33.2271 16.0352 34.1451 16.0352H55.9387C56.8572 16.0352 57.7374 16.3999 58.3867 17.0491C59.0357 17.6982 59.4003 18.5786 59.4003 19.4967C59.4003 20.4148 59.0357 21.2952 58.3867 21.9444C57.7374 22.5935 56.8572 22.9582 55.9387 22.9582Z" fill="#2964E0"/>
<path d="M24.0744 89.715C21.0231 89.758 17.9941 89.1884 15.167 88.0397C12.3399 86.8909 9.7724 85.1864 7.61604 83.0274C5.13523 80.4626 3.18795 77.4312 1.88711 74.1081C0.586213 70.7855 -0.0425403 67.2377 0.0374443 63.6704V35.7658C-0.278479 30.0117 1.41232 24.3263 4.82129 19.68C8.23026 15.0337 13.1461 11.7145 18.7297 10.2889C19.6257 10.0881 20.565 10.2515 21.3405 10.7431C22.116 11.2348 22.6643 12.0144 22.865 12.9104C23.0658 13.8064 22.9026 14.7455 22.411 15.521C21.9193 16.2966 21.1396 16.8451 20.2436 17.0458C16.2081 18.152 12.68 20.621 10.2587 24.0335C7.83731 27.446 6.67201 31.5915 6.96052 35.7658V63.6797C6.88497 66.3354 7.33538 68.9795 8.28592 71.4603C9.23646 73.9415 10.6683 76.2095 12.499 78.1351C14.021 79.6475 15.8307 80.8401 17.8212 81.6414C19.8117 82.4431 21.9427 82.8372 24.0882 82.8012H65.9358C68.0902 82.8381 70.2299 82.4426 72.2284 81.6381C74.2268 80.8332 76.0439 79.636 77.5712 78.1166C79.4016 76.1947 80.8328 73.9295 81.7836 71.4515C82.7344 68.974 83.1848 66.3326 83.1101 63.6797V35.7658C83.3884 31.5788 82.2068 27.4248 79.7662 24.0114C77.3256 20.5979 73.7773 18.1363 69.725 17.0458C69.2815 16.9467 68.8615 16.7611 68.4895 16.4998C68.1175 16.2385 67.8008 15.9065 67.5572 15.5227C67.3135 15.1389 67.1482 14.7109 67.0698 14.263C66.9918 13.8152 67.0024 13.3564 67.1012 12.9127C67.2004 12.469 67.3859 12.0493 67.6472 11.6773C67.9088 11.3053 68.2407 10.9884 68.6247 10.7448C69.0082 10.5011 69.4361 10.3355 69.8842 10.2572C70.3319 10.179 70.7907 10.1898 71.2347 10.2889C76.8308 11.7036 81.7624 15.0171 85.1875 19.6636C88.613 24.3101 90.3188 30.0014 90.0142 35.7658V63.6797C90.0927 67.2446 89.4632 70.7892 88.1612 74.1091C86.8596 77.4284 84.9119 80.4566 82.4312 83.0181C80.2693 85.1841 77.6944 86.8937 74.8596 88.0457C72.0244 89.1977 68.9865 89.7686 65.9265 89.7243H24.0513L24.0744 89.715Z" fill="#2964E0"/>
</svg>
