<svg width="32" height="32" viewBox="0 0 32 32" fill="none" xmlns="http://www.w3.org/2000/svg">
<path d="M21.588 2.66663C25.7067 2.66663 28 5.03996 28 9.10663V22.88C28 27.0133 25.7067 29.3333 21.588 29.3333H10.4133C6.36 29.3333 4 27.0133 4 22.88V9.10663C4 5.03996 6.36 2.66663 10.4133 2.66663H21.588ZM10.7733 20.9866C10.3733 20.9466 9.98667 21.1333 9.77333 21.48C9.56 21.8133 9.56 22.2533 9.77333 22.6C9.98667 22.9333 10.3733 23.1333 10.7733 23.08H21.2267C21.7587 23.0266 22.16 22.572 22.16 22.04C22.16 21.4933 21.7587 21.04 21.2267 20.9866H10.7733ZM21.2267 14.9053H10.7733C10.1987 14.9053 9.73333 15.3733 9.73333 15.9466C9.73333 16.52 10.1987 16.9866 10.7733 16.9866H21.2267C21.8 16.9866 22.2667 16.52 22.2667 15.9466C22.2667 15.3733 21.8 14.9053 21.2267 14.9053ZM14.7587 8.86663H10.7733V8.87996C10.1987 8.87996 9.73333 9.34663 9.73333 9.91996C9.73333 10.4933 10.1987 10.96 10.7733 10.96H14.7587C15.3333 10.96 15.8 10.4933 15.8 9.90529C15.8 9.33329 15.3333 8.86663 14.7587 8.86663Z" fill="#2964E0"/>
</svg>
