<svg width="32" height="32" viewBox="0 0 32 32" fill="none" xmlns="http://www.w3.org/2000/svg">
<path fill-rule="evenodd" clip-rule="evenodd" d="M21.6932 16.4095C20.1866 16.4095 18.7599 16.7162 17.5599 17.2229C21.7732 18.4495 24.7466 21.3695 24.8132 24.7695C26.9999 24.4762 29.3466 23.6629 29.3466 21.3962C29.3466 18.6895 25.8399 16.4095 21.6932 16.4095Z" fill="#2964E0"/>
<path fill-rule="evenodd" clip-rule="evenodd" d="M23.0533 14.2933H23.0933C25.9333 14.2933 28.24 11.9867 28.24 9.14667C28.24 6.30667 25.9333 4 23.0933 4C22.5333 4 22 4.09333 21.4933 4.25333C22.4133 5.61333 22.9467 7.25333 22.9467 9.01333C22.9467 10.8667 22.3467 12.5867 21.3333 13.9866C21.8667 14.1866 22.4533 14.2933 23.0533 14.2933Z" fill="#2964E0"/>
<path fill-rule="evenodd" clip-rule="evenodd" d="M12.412 18.6666C7.12934 18.6666 2.66667 21.5533 2.66667 24.9706C2.66667 28.8893 8.22801 29.3426 12.412 29.3426C14.8226 29.3426 22.1573 29.3426 22.1573 24.944C22.1573 21.5413 17.6946 18.6666 12.412 18.6666Z" fill="#2964E0"/>
<path fill-rule="evenodd" clip-rule="evenodd" d="M13.1106 15.7007H13.1506C16.7279 15.7007 19.6372 12.7914 19.6372 9.21543C19.6372 5.63809 16.7279 2.72876 13.1506 2.72876C9.57589 2.72876 6.66655 5.63809 6.66655 9.21276C6.65989 10.9394 7.32522 12.5648 8.54255 13.79C9.75989 15.0154 11.3812 15.694 13.1106 15.7007Z" fill="#2964E0"/>
</svg>
