<svg width="13" height="16" viewBox="0 0 13 16" fill="none" xmlns="http://www.w3.org/2000/svg">
<g id="1 User">
<path id="Vector" fill-rule="evenodd" clip-rule="evenodd" d="M6.2047 9.33594C3.56336 9.33594 1.33203 10.7793 1.33203 12.4879C1.33203 14.4473 4.1127 14.6739 6.2047 14.6739C7.41 14.6739 11.0773 14.6739 11.0773 12.4746C11.0773 10.7733 8.846 9.33594 6.2047 9.33594Z" fill="#2964E0"/>
<path id="Vector_2" fill-rule="evenodd" clip-rule="evenodd" d="M6.55406 7.84925H6.57406C8.36273 7.84925 9.8174 6.39461 9.8174 4.60661C9.8174 2.81795 8.36273 1.36328 6.57406 1.36328C4.78672 1.36328 3.33206 2.81795 3.33206 4.60528C3.32872 5.46861 3.66139 6.28128 4.27006 6.89392C4.87872 7.50659 5.68939 7.84592 6.55406 7.84925Z" fill="#2964E0"/>
</g>
</svg>
