<svg width="89" height="89" viewBox="0 0 89 89" fill="none" xmlns="http://www.w3.org/2000/svg">
<rect x="2" y="2" width="85" height="85" rx="20" stroke="#8C8D91" stroke-width="4" stroke-linecap="round" stroke-dasharray="5 13"/>
<path fill-rule="evenodd" clip-rule="evenodd" d="M38.9442 36.1885C36.8772 36.1885 35.1953 34.5067 35.1953 32.4396C35.1953 30.3694 36.8772 28.6875 38.9442 28.6875C41.0128 28.6891 42.6946 30.3726 42.6946 32.4396C42.6946 34.5067 41.0112 36.1885 38.9442 36.1885ZM38.9426 31.125C38.2211 31.125 37.6328 31.7132 37.6328 32.4396C37.6328 33.1628 38.2211 33.751 38.9442 33.751C39.6689 33.751 40.2572 33.1628 40.2572 32.4396C40.2572 31.7149 39.6673 31.1266 38.9426 31.125Z" fill="#8C8D91"/>
<path d="M34.8616 45.6052C34.6796 45.6052 34.4927 45.5646 34.3188 45.4769C33.7176 45.1762 33.4738 44.4482 33.7712 43.847C33.9418 43.5041 35.5018 40.5092 38.1035 40.5092C39.4425 40.5092 40.4223 41.2372 41.2105 41.8255C41.9775 42.3942 42.4796 42.7436 43.1345 42.7436C43.5976 42.7371 44.7985 41.2925 45.4436 40.5141C46.82 38.8566 48.2451 37.1406 50.0602 37.1406C53.1705 37.1406 55.1042 41.2762 55.3139 41.7475C55.5869 42.3617 55.3122 43.08 54.698 43.3546C54.0886 43.6325 53.3639 43.3562 53.0876 42.742C52.6245 41.7101 51.2725 39.5781 50.0602 39.5781C49.3906 39.5781 48.1486 41.0726 47.3247 42.0639L47.3189 42.0709C45.9912 43.6715 44.7367 45.1811 43.1345 45.1811C41.6395 45.1811 40.5946 44.4044 39.7561 43.7804C39.0606 43.2653 38.6105 42.9467 38.1035 42.9467C37.2341 42.9467 36.2802 44.2857 35.9536 44.9325C35.7391 45.3599 35.3085 45.6052 34.8616 45.6052Z" fill="#8C8D91"/>
<path fill-rule="evenodd" clip-rule="evenodd" d="M28.25 37.1445C28.25 49.1419 32.5026 53.3945 44.5 53.3945C56.4974 53.3945 60.75 49.1419 60.75 37.1445C60.75 25.1472 56.4974 20.8945 44.5 20.8945C32.5026 20.8945 28.25 25.1472 28.25 37.1445ZM30.6875 37.1445C30.6875 26.5593 33.9148 23.332 44.5 23.332C55.0853 23.332 58.3125 26.5593 58.3125 37.1445C58.3125 47.7298 55.0853 50.957 44.5 50.957C33.9148 50.957 30.6875 47.7298 30.6875 37.1445Z" fill="#8C8D91"/>
<path fill-rule="evenodd" clip-rule="evenodd" d="M62.96 16.1992C63.4063 16.1992 63.7685 16.5614 63.7685 17.0077V20.1475L66.9124 20.1477C67.3586 20.1477 67.7208 20.5099 67.7208 20.9561C67.7208 21.4024 67.3586 21.7646 66.9124 21.7646L63.7685 21.7644V24.9059C63.7685 25.3522 63.4063 25.7144 62.96 25.7144C62.5137 25.7144 62.1516 25.3522 62.1516 24.9059V21.7644L59.0077 21.7646C58.5603 21.7646 58.1992 21.4024 58.1992 20.9561C58.1992 20.5099 58.5603 20.1477 59.0077 20.1477L62.1516 20.1475V17.0077C62.1516 16.5614 62.5137 16.1992 62.96 16.1992Z" fill="#8C8D91"/>
<path d="M25.252 60.024H26.068V61.968C26.068 64.368 24.772 66.708 23.056 67.62L22.444 66.828C24.016 66.036 25.252 63.948 25.252 61.968V60.024ZM25.432 60.024H26.236V61.968C26.236 63.876 27.448 65.856 28.984 66.624L28.372 67.416C26.692 66.516 25.432 64.296 25.432 61.968V60.024ZM29.932 59.088H30.94V69.936H29.932V59.088ZM30.7 63.48H32.716V64.32H30.7V63.48ZM36.1111 60.276H36.9391V61.38C36.9391 63.372 35.7151 65.04 33.8911 65.7L33.3751 64.908C35.0071 64.332 36.1111 62.928 36.1111 61.38V60.276ZM36.3031 60.276H37.1311V61.38C37.1311 62.844 38.2591 64.164 39.8671 64.704L39.3511 65.484C37.5511 64.872 36.3031 63.288 36.3031 61.38V60.276ZM33.6391 59.988H39.5791V60.792H33.6391V59.988ZM41.1151 59.1H42.1231V67.032H41.1151V59.1ZM35.1511 68.88H42.4471V69.696H35.1511V68.88ZM35.1511 66.288H36.1351V69.24H35.1511V66.288ZM51.8019 61.08H54.9339V61.884H51.8019V61.08ZM51.8019 63.42H54.9579V64.224H51.8019V63.42ZM54.5499 59.1H55.5459V67.128H54.5499V59.1ZM48.5739 68.88H55.8099V69.696H48.5739V68.88ZM48.5739 66.348H49.5699V69.3H48.5739V66.348ZM47.1579 59.808H48.1419V61.728H51.0819V59.808H52.0539V65.28H47.1579V59.808ZM48.1419 62.508V64.464H51.0819V62.508H48.1419ZM62.445 61.08H65.349V61.896H62.445V61.08ZM62.349 63.336H65.277V64.152H62.349V63.336ZM65.181 59.088H66.177V65.592H65.181V59.088ZM61.785 59.904H62.853C62.853 62.7 60.921 64.656 57.801 65.592L57.393 64.788C60.165 63.984 61.785 62.388 61.785 60.336V59.904ZM57.957 59.904H62.469V60.72H57.957V59.904ZM62.649 65.712C64.845 65.712 66.237 66.492 66.237 67.8C66.237 69.108 64.845 69.888 62.649 69.888C60.453 69.888 59.061 69.108 59.061 67.8C59.061 66.492 60.453 65.712 62.649 65.712ZM62.649 66.492C61.065 66.492 60.045 66.984 60.045 67.8C60.045 68.616 61.065 69.096 62.649 69.096C64.245 69.096 65.265 68.616 65.265 67.8C65.265 66.984 64.245 66.492 62.649 66.492Z" fill="#8C8D91"/>
</svg>
