<svg width="34" height="34" viewBox="0 0 34 34" fill="none" xmlns="http://www.w3.org/2000/svg">
<path d="M18.0154 2.83203C19.0868 2.83203 20.0568 3.42703 20.5925 4.30536C20.8531 4.73036 21.0268 5.25453 20.9834 5.80703C20.9544 6.23203 21.0847 6.65703 21.3163 7.0537C22.0547 8.25786 23.6907 8.7112 24.9647 8.0312C26.398 7.20953 28.2077 7.70536 29.033 9.10786L30.003 10.7795C30.8427 12.182 30.3794 13.9812 28.9316 14.7887C27.701 15.5112 27.2667 17.112 28.0051 18.3304C28.2367 18.7129 28.4973 19.0387 28.9027 19.237C29.4094 19.5062 29.8003 19.9312 30.0754 20.3562C30.611 21.2345 30.5676 22.3112 30.0464 23.2604L29.033 24.9604C28.4973 25.867 27.4983 26.4337 26.4704 26.4337C25.9637 26.4337 25.3991 26.292 24.9358 26.0087C24.5594 25.7679 24.125 25.6829 23.6617 25.6829C22.2284 25.6829 21.0268 26.8587 20.9834 28.2612C20.9834 29.8904 19.6514 31.1654 17.9865 31.1654H16.0175C14.3381 31.1654 13.0061 29.8904 13.0061 28.2612C12.9772 26.8587 11.7755 25.6829 10.3422 25.6829C9.86446 25.6829 9.43013 25.7679 9.06818 26.0087C8.60489 26.292 8.02579 26.4337 7.53354 26.4337C6.49115 26.4337 5.49218 25.867 4.95651 24.9604L3.95754 23.2604C3.42187 22.3395 3.39291 21.2345 3.92859 20.3562C4.16023 19.9312 4.59456 19.5062 5.08681 19.237C5.49218 19.0387 5.75278 18.7129 5.9989 18.3304C6.72279 17.112 6.28846 15.5112 5.05785 14.7887C3.62456 13.9812 3.16127 12.182 3.9865 10.7795L4.95651 9.10786C5.79622 7.70536 7.59145 7.20953 9.03923 8.0312C10.2988 8.7112 11.9348 8.25786 12.6731 7.0537C12.9048 6.65703 13.0351 6.23203 13.0061 5.80703C12.9772 5.25453 13.1364 4.73036 13.4115 4.30536C13.9472 3.42703 14.9172 2.86036 15.9741 2.83203H18.0154ZM17.0165 13.0037C14.7435 13.0037 12.9048 14.7887 12.9048 17.0129C12.9048 19.237 14.7435 21.0079 17.0165 21.0079C19.2895 21.0079 21.0847 19.237 21.0847 17.0129C21.0847 14.7887 19.2895 13.0037 17.0165 13.0037Z" fill="#E6F3FF"/>
</svg>
