<svg width="24" height="24" viewBox="0 0 24 24" fill="none" xmlns="http://www.w3.org/2000/svg">
<path fill-rule="evenodd" clip-rule="evenodd" d="M15.2246 9.5696H8.77443C8.38488 9.5696 8.06872 9.2504 8.06872 8.8571C8.06872 8.4638 8.38488 8.1446 8.77443 8.1446H15.2246C15.6142 8.1446 15.9303 8.4638 15.9303 8.8571C15.9303 9.2504 15.6142 9.5696 15.2246 9.5696ZM19.4984 12.4405L19.4956 10.4825C19.4956 3.26825 18.3749 2 12 2C5.62508 2 4.50442 3.26825 4.50442 10.4825L4.50159 12.4405C4.49313 17.7842 4.48936 19.785 5.29763 20.601C5.55922 20.866 5.90643 21 6.32891 21C7.22752 21 8.2268 20.1383 9.28537 19.2254C10.2226 18.417 11.2849 17.5011 12 17.5011C12.7151 17.5011 13.7775 18.417 14.7146 19.2254C15.7732 20.1383 16.7725 21 17.6711 21C18.0936 21 18.4408 20.866 18.7024 20.601C19.5106 19.785 19.5069 17.7842 19.4984 12.4405Z" fill="#CDCFD5"/>
</svg>
