<svg width="20" height="19" viewBox="0 0 20 19" fill="none" xmlns="http://www.w3.org/2000/svg">
<path d="M19.707 17.3774C19.7999 17.4657 19.8736 17.5705 19.9238 17.6858C19.9741 17.8011 20 17.9247 20 18.0495C20 18.1743 19.9741 18.2979 19.9238 18.4133C19.8736 18.5286 19.7999 18.6334 19.707 18.7216C19.6141 18.8099 19.5038 18.8799 19.3824 18.9276C19.261 18.9754 19.1309 19 18.9995 19C18.8681 19 18.738 18.9754 18.6166 18.9276C18.4952 18.8799 18.3849 18.8099 18.292 18.7216L10 10.843L1.70796 18.7216C1.52033 18.8999 1.26585 19 1.0005 19C0.735151 19 0.48067 18.8999 0.29304 18.7216C0.105409 18.5434 5.23067e-09 18.3016 0 18.0495C-5.23067e-09 17.7974 0.105409 17.5557 0.29304 17.3774L8.58633 9.5L0.29304 1.62256C0.105409 1.44431 -1.97701e-09 1.20256 0 0.950475C1.97701e-09 0.698394 0.105409 0.456636 0.29304 0.278388C0.48067 0.100139 0.735151 1.87816e-09 1.0005 0C1.26585 -1.87815e-09 1.52033 0.100139 1.70796 0.278388L10 8.15701L18.292 0.278388C18.4797 0.100139 18.7341 -4.96913e-09 18.9995 0C19.2648 4.96913e-09 19.5193 0.100139 19.707 0.278388C19.8946 0.456636 20 0.698394 20 0.950475C20 1.20256 19.8946 1.44431 19.707 1.62256L11.4137 9.5L19.707 17.3774Z" fill="black"/>
</svg>
