<svg width="64" height="64" viewBox="0 0 64 64" fill="none" xmlns="http://www.w3.org/2000/svg">
<g id="Slightly Frowning">
<path id="Vector" d="M20.7524 8H43.2451C51.1067 8 56 13.5498 56 21.4037V42.5963C56 50.4501 51.1067 56 43.2424 56H20.7524C12.8908 56 8 50.4501 8 42.5963V21.4037C8 13.5498 12.9142 8 20.7524 8Z" stroke="#2964E0" stroke-width="4" stroke-linecap="round" stroke-linejoin="round"/>
<path id="Vector_2" d="M23.3857 25.3462V25.2088M23.2643 24.8008C22.9337 24.8008 22.6643 25.0701 22.667 25.4008C22.667 25.7314 22.9363 26.0008 23.267 26.0008C23.5977 26.0008 23.867 25.7314 23.867 25.4008C23.867 25.0674 23.5977 24.8008 23.2643 24.8008Z" stroke="#2964E0" stroke-width="4" stroke-linecap="round" stroke-linejoin="round"/>
<path id="Vector_3" d="M40.6152 25.3462V25.2088M40.5974 24.8008C40.2667 24.8008 39.9974 25.0701 40 25.4008C40 25.7314 40.2694 26.0008 40.6 26.0008C40.9307 26.0008 41.2 25.7314 41.2 25.4008C41.2 25.0674 40.9307 24.8008 40.5974 24.8008Z" stroke="#2964E0" stroke-width="4" stroke-linecap="round" stroke-linejoin="round"/>
<path id="Vector_4" d="M24.1123 41.1089C26.0323 38.6102 28.8603 37.0508 31.9998 37.0508C35.1393 37.0508 37.9675 38.6102 39.8875 41.1089" stroke="#2964E0" stroke-width="4" stroke-linecap="round" stroke-linejoin="round"/>
</g>
</svg>
