<svg width="36" height="36" viewBox="0 0 36 36" fill="none" xmlns="http://www.w3.org/2000/svg">
<path opacity="0.4" d="M29.9891 28.4297H21.4477C20.6143 28.4297 19.9365 29.1182 19.9365 29.9647C19.9365 30.8129 20.6143 31.4998 21.4477 31.4998H29.9891C30.8224 31.4998 31.5002 30.8129 31.5002 29.9647C31.5002 29.1182 30.8224 28.4297 29.9891 28.4297Z" fill="#2964E0"/>
<path d="M15.4635 10.3579L23.5573 16.898C23.7526 17.0544 23.7859 17.3414 23.6335 17.5414L14.0381 30.0444C13.4349 30.8167 12.546 31.2537 11.5936 31.2698L6.35544 31.3344C6.07607 31.3376 5.83162 31.1441 5.76813 30.8667L4.57763 25.6907C4.37128 24.7394 4.57763 23.7558 5.18082 22.9979L14.8238 10.4353C14.9794 10.2337 15.2667 10.1982 15.4635 10.3579Z" fill="#2964E0"/>
<path opacity="0.4" d="M27.1804 12.9982L25.6201 14.946C25.463 15.1443 25.1804 15.1766 24.9852 15.0186C23.0883 13.4835 18.2311 9.54427 16.8834 8.45263C16.6866 8.29139 16.6596 8.00437 16.8184 7.80443L18.3231 5.93559C19.6882 4.17801 22.0692 4.01676 23.9899 5.5486L26.1963 7.30618C27.1011 8.01566 27.7043 8.95088 27.9106 9.93448C28.1487 11.0164 27.8947 12.0791 27.1804 12.9982Z" fill="#2964E0"/>
</svg>
