<svg width="36" height="36" viewBox="0 0 36 36" fill="none" xmlns="http://www.w3.org/2000/svg">
<path fill-rule="evenodd" clip-rule="evenodd" d="M27.5414 18.4648C25.8615 18.4648 24.2847 18.8115 22.9585 19.3992C27.6003 20.7706 30.8865 24.0558 30.9749 27.8987C33.3916 27.5822 35.9999 26.6479 35.9999 24.101C35.9999 21.0418 32.1243 18.4648 27.5414 18.4648Z" fill="#2964E0"/>
<path fill-rule="evenodd" clip-rule="evenodd" d="M27.4976 16.2937H27.5271C30.6659 16.2937 33.2299 13.6715 33.2299 10.4766C33.2299 7.26672 30.6659 4.64453 27.5271 4.64453C26.9082 4.64453 26.3187 4.75002 25.7588 4.93086C26.7756 6.46801 27.365 8.32162 27.365 10.3259C27.3797 12.3604 26.7608 14.3195 25.5967 15.9471C26.2009 16.1732 26.8345 16.2937 27.4976 16.2937Z" fill="#2964E0"/>
<path fill-rule="evenodd" clip-rule="evenodd" d="M13.0266 19.3841C11.7004 18.8115 10.1236 18.4648 8.45847 18.4648C3.87557 18.4648 0 21.0418 0 24.101C0 26.6479 2.59354 27.5671 5.01024 27.8987C5.08392 24.0558 8.37005 20.7706 13.0266 19.3841Z" fill="#2964E0"/>
<path fill-rule="evenodd" clip-rule="evenodd" d="M8.45812 16.2937H8.50233C9.16545 16.2937 9.7991 16.1732 10.4033 15.9471C9.28334 14.3798 8.62022 12.4357 8.62022 10.3259C8.62022 8.32162 9.20966 6.46801 10.2264 4.93086C9.66647 4.75002 9.07703 4.64453 8.45812 4.64453C5.31935 4.64453 2.77002 7.26672 2.77002 10.4766C2.77002 13.6715 5.31935 16.2937 8.45812 16.2937Z" fill="#2964E0"/>
<path fill-rule="evenodd" clip-rule="evenodd" d="M17.9907 20.9336C12.1538 20.9336 7.22168 24.1827 7.22168 28.0286C7.22168 33.0017 15.3265 33.0017 17.9907 33.0017C22.6149 33.0017 28.7628 32.4893 28.7628 28.0602C28.7628 24.1963 23.8291 20.9336 17.9907 20.9336Z" fill="#2964E0"/>
<path fill-rule="evenodd" clip-rule="evenodd" d="M17.9928 17.6601H18.0414C19.9497 17.654 21.7416 16.887 23.0855 15.502C24.4309 14.1172 25.1677 12.2801 25.1604 10.3316C25.1604 6.28828 21.9464 3 17.9928 3C14.0406 3 10.8267 6.28828 10.8267 10.3316C10.8267 14.3719 14.0406 17.6601 17.9928 17.6601Z" fill="#2964E0"/>
</svg>
