<svg width="36" height="36" viewBox="0 0 36 36" fill="none" xmlns="http://www.w3.org/2000/svg">
<g clip-path="url(#clip0_1842_22201)">
<path fill-rule="evenodd" clip-rule="evenodd" d="M18.3754 20.7461C12.5059 20.7461 7.35791 24.1991 7.35791 28.1336C7.35791 33.1961 15.6514 33.1961 18.3754 33.1961C21.0994 33.1961 29.3914 33.1961 29.3914 28.1006C29.3914 24.1826 24.2434 20.7461 18.3754 20.7461Z" fill="#2964E0"/>
<path d="M7.86357 19.6514C10.5394 25.4616 21.4503 27.1257 25.9807 22.2977C29.1114 18.9613 26.2031 14.743 23.0724 18.0792C18.6449 22.7974 25.2062 29.5392 30.692 26.2373C32.1411 25.3651 33.5127 25.0235 35.0056 26.8674" stroke="#B0D0FF" stroke-width="1.8" stroke-linecap="round"/>
<path fill-rule="evenodd" clip-rule="evenodd" d="M18.3186 17.4642H18.3651C22.4076 17.4642 25.6956 14.1762 25.6956 10.1337C25.6956 6.09269 22.4076 2.80469 18.3651 2.80469C14.3227 2.80469 11.0347 6.09269 11.0347 10.1307C11.0212 14.1597 14.2867 17.4492 18.3186 17.4642Z" fill="#2964E0"/>
</g>
<defs>
<clipPath id="clip0_1842_22201">
<rect width="36" height="36" fill="white"/>
</clipPath>
</defs>
</svg>
