<svg width="30" height="30" viewBox="0 0 30 30" fill="none" xmlns="http://www.w3.org/2000/svg">
<g id="Camera">
<path id="Vector" fill-rule="evenodd" clip-rule="evenodd" d="M13.0036 6.73077C12.3805 6.73077 11.8081 7.06887 11.5067 7.61433C11.3493 7.89869 11.18 8.19533 11.0204 8.45402C10.8707 8.69674 10.6975 8.95955 10.5334 9.1403L10.519 9.15585C9.97166 9.72979 9.22367 10.0667 8.43265 10.0981C8.42124 10.0985 8.40982 10.0988 8.3984 10.0988C6.9259 10.0988 5.73271 11.2903 5.73077 12.7625V19.2722C5.73077 21.4115 7.4643 23.1456 9.60302 23.1456H20.897C23.0348 23.1456 24.7692 21.4114 24.7692 19.2722V12.7596C24.7692 11.2864 23.5749 10.092 22.1017 10.092C22.0913 10.092 22.081 10.0918 22.0707 10.0915C21.2769 10.0632 20.5269 9.72387 19.981 9.15132L19.9674 9.13676C19.8031 8.95625 19.6347 8.69782 19.491 8.46062C19.3377 8.2076 19.1767 7.91795 19.0269 7.63737C18.7273 7.07843 18.1483 6.73077 17.5178 6.73077H13.0036ZM9.99205 6.77676C10.5978 5.68112 11.7497 5 13.0036 5H17.5178C18.791 5 19.9542 5.70291 20.553 6.82091C20.695 7.08694 20.8403 7.34763 20.9712 7.56377C21.106 7.78619 21.1982 7.91539 21.2418 7.96549C21.4736 8.20429 21.7883 8.34622 22.1198 8.36128C24.5405 8.37108 26.5 10.3366 26.5 12.7596V19.2722C26.5 22.367 23.9908 24.8764 20.897 24.8764H9.60302C6.50788 24.8764 4 22.3667 4 19.2722V12.7619C4.00279 10.3409 5.96004 8.37888 8.37823 8.36803C8.71175 8.35128 9.02557 8.2094 9.25783 7.97031C9.30611 7.91483 9.40457 7.77689 9.54737 7.5454C9.68644 7.31992 9.84067 7.05036 9.99205 6.77676Z" fill="white"/>
<path id="Vector_2" fill-rule="evenodd" clip-rule="evenodd" d="M21.2184 11.5664C21.6963 11.5664 22.0838 11.9539 22.0838 12.4318V12.4992C22.0838 12.9771 21.6963 13.3645 21.2184 13.3645C20.7404 13.3645 20.353 12.9771 20.353 12.4992V12.4318C20.353 11.9539 20.7404 11.5664 21.2184 11.5664Z" fill="white"/>
<path id="Vector_3" fill-rule="evenodd" clip-rule="evenodd" d="M10.8149 16.2117C10.8149 13.7637 12.7997 11.7773 15.2492 11.7773C17.6987 11.7773 19.6836 13.7637 19.6836 16.2117C19.6836 18.6611 17.6986 20.646 15.2492 20.646C12.8 20.646 10.8149 18.6611 10.8149 16.2117ZM15.2492 13.5081C13.756 13.5081 12.5457 14.7192 12.5457 16.2117C12.5457 17.7051 13.7558 18.9152 15.2492 18.9152C16.7428 18.9152 17.9528 17.7051 17.9528 16.2117C17.9528 14.7192 16.7425 13.5081 15.2492 13.5081Z" fill="white"/>
</g>
</svg>
