<svg width="24" height="24" viewBox="0 0 24 24" fill="none" xmlns="http://www.w3.org/2000/svg">
<g id="icon_my">
<path id="Vector" d="M11.9769 20.9009C14.4247 20.9093 16.8753 19.8817 18.6211 17.8106C21.2332 14.7119 21.3154 10.062 18.8069 6.87901C15.5413 2.73399 9.50949 2.47451 5.89656 6.09965C3.25549 8.74873 2.68508 12.6736 4.16479 15.8838C4.28802 16.192 4.76508 17.0388 5.08529 17.5962C5.26734 17.9128 5.24867 18.3034 5.03861 18.6012C4.82762 18.8991 4.56063 19.2804 4.35244 19.5933C3.97994 20.1525 4.37578 20.9018 5.04608 20.9009L5.56577 20.9007C7.84509 20.8997 11.1827 20.8983 11.9769 20.9009Z" stroke="#2964E0" stroke-width="1.44" stroke-linecap="round" stroke-linejoin="round"/>
<path id="Vector_2" d="M11.7842 15.9375V15.9443" stroke="#2964E0" stroke-width="1.44" stroke-linecap="round" stroke-linejoin="round"/>
<path id="Vector_3" d="M11.783 13.7802C11.7727 12.9925 12.487 12.658 13.0191 12.3536C13.6661 11.9957 14.1057 11.4253 14.1057 10.6337C14.1057 9.46095 13.16 8.51953 11.9987 8.51953C10.8298 8.51953 9.89258 9.46095 9.89258 10.6337" stroke="#2964E0" stroke-width="1.44" stroke-linecap="round" stroke-linejoin="round"/>
</g>
</svg>
