<svg width="24" height="24" viewBox="0 0 24 24" fill="none" xmlns="http://www.w3.org/2000/svg">
<path d="M8.17406 17.1222L4.03177 12.9828C3.80857 12.7598 3.50584 12.6345 3.19019 12.6345C2.87453 12.6345 2.5718 12.7598 2.3486 12.9828C2.12539 13.2059 2 13.5084 2 13.8238C2 13.98 2.03079 14.1347 2.0906 14.279C2.15041 14.4233 2.23808 14.5544 2.3486 14.6648L7.33844 19.6511C7.804 20.1163 8.55606 20.1163 9.02162 19.6511L21.6514 7.03032C21.8746 6.80728 22 6.50477 22 6.18933C22 5.8739 21.8746 5.57139 21.6514 5.34835C21.4282 5.1253 21.1255 5 20.8098 5C20.4942 5 20.1914 5.1253 19.9682 5.34835L8.17406 17.1222Z" fill="#2964E0"/>
</svg>
