<svg width="24" height="24" viewBox="0 0 24 24" fill="none" xmlns="http://www.w3.org/2000/svg">
<g id="icon_my">
<path id="Vector" fill-rule="evenodd" clip-rule="evenodd" d="M2.3999 12.4498C2.3999 7.28003 6.59018 3.08984 11.7599 3.08984C16.9296 3.08984 21.1199 7.28003 21.1199 12.4498C21.1199 17.6196 16.9296 21.8098 11.7599 21.8098C6.59018 21.8098 2.3999 17.6196 2.3999 12.4498ZM11.7599 4.52984C7.38546 4.52984 3.8399 8.07533 3.8399 12.4498C3.8399 16.8244 7.38546 20.3698 11.7599 20.3698C16.1343 20.3698 19.6799 16.8244 19.6799 12.4498C19.6799 8.07534 16.1343 4.52984 11.7599 4.52984Z" fill="#2964E0"/>
<path id="Vector_2" fill-rule="evenodd" clip-rule="evenodd" d="M9.04102 11.1591C9.04102 9.65525 10.2602 8.4375 11.7627 8.4375C13.2663 8.4375 14.4843 9.65554 14.4843 11.1591C14.4843 11.865 14.214 12.502 13.7777 12.9813L14.2505 14.4033C14.5868 15.4187 13.8318 16.4669 12.7621 16.4669H10.7642C9.69442 16.4669 8.93925 15.4195 9.27558 14.4041L9.74866 12.9814C9.31221 12.5024 9.04102 11.8655 9.04102 11.1591ZM11.7627 9.87749C11.055 9.87749 10.481 10.4511 10.481 11.1591C10.481 11.5776 10.6847 11.9487 11.0062 12.1854C11.2574 12.3704 11.3609 12.6962 11.2625 12.9923L10.6425 14.8568C10.6425 14.8569 10.6426 14.8568 10.6425 14.8568C10.6147 14.9416 10.6777 15.0269 10.7642 15.0269H12.7621C12.8486 15.0269 12.9117 14.9418 12.8838 14.8571C12.8838 14.857 12.8838 14.8572 12.8838 14.8571L12.2639 12.9923C12.1654 12.6962 12.2689 12.3704 12.5202 12.1854C12.841 11.9491 13.0443 11.5783 13.0443 11.1591C13.0443 10.4508 12.471 9.87749 11.7627 9.87749Z" fill="#2964E0"/>
</g>
</svg>
