<svg width="24" height="24" viewBox="0 0 24 24" fill="none" xmlns="http://www.w3.org/2000/svg">
<g id="icon_my">
<path id="Vector" d="M19.5236 11.9991C19.5236 7.41056 15.8044 3.69141 11.2159 3.69141C6.62735 3.69141 2.9082 7.41056 2.9082 11.9991C2.9082 16.5867 6.62735 20.3068 11.2159 20.3068C15.8044 20.3068 19.5236 16.5867 19.5236 11.9991Z" stroke="#2964E0" stroke-width="1.38462" stroke-linecap="round" stroke-linejoin="round"/>
<path id="Vector_2" d="M6.46338 18.8084C6.65199 17.3444 7.95428 15.7188 11.1875 15.7188C14.4567 15.7188 15.75 17.3534 15.9297 18.8353" stroke="#2964E0" stroke-width="1.38462" stroke-linecap="round" stroke-linejoin="round"/>
<path id="Vector_3" fill-rule="evenodd" clip-rule="evenodd" d="M14.2323 10.456C14.2323 12.1364 12.8707 13.498 11.1903 13.498C9.50995 13.498 8.14746 12.1364 8.14746 10.456C8.14746 8.77563 9.50995 7.41406 11.1903 7.41406C12.8707 7.41406 14.2323 8.77563 14.2323 10.456Z" stroke="#2964E0" stroke-width="1.38462" stroke-linecap="round" stroke-linejoin="round"/>
</g>
</svg>
