<svg width="132" height="42" viewBox="0 0 132 42" fill="none" xmlns="http://www.w3.org/2000/svg">
<path fill-rule="evenodd" clip-rule="evenodd" d="M84.2001 2.89907C85.1833 4.34302 85.7044 6.34257 84.9993 8.24358C84.5661 9.41149 83.2681 10.0071 82.1002 9.57389C80.9323 9.1407 80.3367 7.84275 80.7699 6.67484C80.845 6.4725 80.8523 5.99723 80.4714 5.43791C80.1086 4.90499 79.5764 4.58379 79.0501 4.54019C78.5897 4.50204 77.7194 4.64421 76.5792 5.88573C75.5029 7.05766 74.2813 9.12693 73.1742 12.5666C73.3908 12.5199 73.5971 12.4753 73.7911 12.4333C75.0083 12.17 76.2094 12.9435 76.4738 14.1611C76.7382 15.3786 75.9658 16.5791 74.7485 16.8425C73.9443 17.0165 72.8951 17.2426 71.7674 17.4842C71.0934 19.9921 70.5179 22.3363 70.0023 24.4999C69.7973 25.3606 69.6004 26.1983 69.41 27.0089L69.4081 27.017L69.4069 27.0218L69.4051 27.0296C69.2761 27.5789 69.1499 28.1158 69.0261 28.639C71.5065 28.1695 74.3436 27.6092 77.2347 26.967C78.5358 26.6779 79.8425 26.3734 81.1281 26.0545C81.2934 23.741 82.1125 21.3181 83.6616 19.0067C87.6293 13.0865 92.9237 11.4585 96.8265 13.4384C98.6808 14.3792 100.048 16.1285 100.305 18.2619C100.568 20.4418 99.6297 22.6143 97.6866 24.3226C95.8167 25.9665 92.6892 27.2969 89.3796 28.3965C88.3197 28.7486 87.2067 29.0877 86.0617 29.4132C86.2423 29.8799 86.4711 30.3066 86.7373 30.6858C88.1355 32.6772 90.901 33.8534 94.5717 32.369C96.3708 31.6414 97.8466 30.324 99.5489 28.5344C99.8739 28.1928 100.21 27.8302 100.559 27.454C101.952 25.9515 103.546 24.231 105.441 22.7554C107.894 20.8449 110.917 19.2684 114.997 18.6259C119.04 17.9895 123.994 18.2892 130.308 19.9189C131.514 20.2303 132.239 21.4604 131.928 22.6665C131.617 23.8727 130.387 24.598 129.181 24.2867C123.272 22.7614 118.962 22.5682 115.699 23.082C112.473 23.5898 110.148 24.8068 108.213 26.3142C106.635 27.5434 105.356 28.9201 103.991 30.3901L103.991 30.3903C103.609 30.8012 103.221 31.2193 102.817 31.6435C101.05 33.5019 99.0146 35.4381 96.2628 36.5509C90.8316 38.7473 85.7606 37.1452 83.0454 33.2778C82.4617 32.4463 82.0033 31.5343 81.6781 30.5646C80.5222 30.8468 79.3607 31.1156 78.2129 31.3705C74.4183 32.2135 70.7295 32.9151 67.8206 33.4535C67.2243 35.6167 66.5744 37.5411 65.7245 38.974C64.7865 40.5555 63.3223 41.9738 61.0901 41.9738C59.4002 41.9738 57.9104 41.334 56.9682 40.0342C56.0876 38.8194 55.9269 37.3585 56.0913 36.1205C56.4068 33.7438 58.109 30.9897 61.0055 30.1837C61.541 30.0347 62.684 29.814 64.1714 29.5386C64.4335 28.4668 64.7055 27.3092 64.9987 26.0614L64.999 26.0602L64.9999 26.0562C65.1943 25.2289 65.398 24.3621 65.6143 23.4543C65.9818 21.9117 66.3821 20.2675 66.8284 18.5307C65.5345 18.8003 64.5179 19.0059 64.1394 19.0681C62.9104 19.2701 61.7495 18.4375 61.5464 17.2083C61.3433 15.9791 62.1749 14.8188 63.4038 14.6167C63.9081 14.5338 65.9121 14.1166 68.1499 13.642C68.2792 13.1879 68.4118 12.7289 68.548 12.2652C69.8361 7.87856 71.4412 4.81143 73.2568 2.83451C75.1059 0.820958 77.2625 -0.134328 79.4226 0.0446577C81.5168 0.218184 83.1989 1.42871 84.2001 2.89907ZM62.8251 34.3894C62.5522 34.446 62.3474 34.4926 62.2148 34.5295C61.8647 34.627 61.4899 34.8773 61.1622 35.3054C60.8307 35.7383 60.6235 36.2584 60.563 36.7142C60.5019 37.1738 60.6077 37.3664 60.6197 37.3854C60.6229 37.3875 60.629 37.391 60.6391 37.3957C60.6756 37.4125 60.8071 37.4629 61.0901 37.4629C61.1555 37.4629 61.1876 37.456 61.2599 37.404C61.3686 37.3259 61.5744 37.1285 61.8447 36.6729C62.1699 36.1245 62.4913 35.3737 62.8251 34.3894ZM85.8979 24.7629C86.606 24.5517 87.2943 24.3359 87.9573 24.1157C91.2506 23.0215 93.5875 21.92 94.7082 20.9347C95.7557 20.0138 95.879 19.2347 95.8268 18.8013C95.769 18.3215 95.4455 17.796 94.7856 17.4613C93.6598 16.8901 90.6325 16.7081 87.4088 21.5181C86.6631 22.6308 86.1753 23.7233 85.8979 24.7629ZM42.8171 4.70417C43.2545 6.17384 43.0623 7.82233 42.3782 9.53758C41.6075 11.4697 40.0788 13.1164 38.3091 14.438C36.6919 15.6457 34.7523 16.6735 32.6767 17.4685L32.4761 18.0185C30.3878 23.7528 28.0996 30.2812 26.513 35.1137C27.1152 35.0526 27.8624 34.9275 28.7336 34.7146C32.1245 33.8859 36.4487 31.9627 39.493 29.044C42.8257 25.8486 45.2441 21.9068 46.1692 18.7376C46.6368 17.1357 46.6558 15.9631 46.4535 15.2458C46.2952 14.6841 46.0162 14.3697 45.3847 14.1956C44.1834 13.8644 43.4743 12.6217 43.8008 11.42C44.1273 10.2184 45.3657 9.51273 46.567 9.84396C48.796 10.4586 50.2229 12.0167 50.7916 14.0337C51.3164 15.895 51.0835 18.0072 50.4965 20.0183C49.3122 24.0754 46.4094 28.6733 42.6167 32.3097C38.8542 35.917 33.7465 38.1398 29.8172 39.1001C27.8852 39.5722 25.9934 39.8008 24.5695 39.6019C23.9436 39.5144 22.8638 39.2771 22.114 38.4035C21.6786 37.8961 21.425 37.2487 21.4256 36.5459C21.4261 36.0215 21.5671 35.5648 21.7401 35.198C23.1399 30.8398 25.28 24.6688 27.3434 18.9361C23.9258 19.5274 20.3509 19.4862 17.2267 18.4636C9.92342 16.0733 5.03613 17.4523 1.83094 19.3574C0.184611 20.3359 -1.08524 21.4952 -2.04685 22.4996C-2.47292 22.9446 -2.82868 23.3483 -3.14848 23.7113L-3.27891 23.8592C-3.44805 24.0507 -3.62531 24.2499 -3.78978 24.4215C-3.93365 24.5717 -4.16749 24.8079 -4.44555 25.0033C-5.46273 25.7182 -6.86905 25.47 -7.58664 24.4489C-8.28806 23.4508 -8.07184 22.0837 -7.1118 21.355C-7.09918 21.3427 -7.07816 21.3219 -7.04782 21.2902C-6.95466 21.193 -6.83333 21.0578 -6.66069 20.8623L-6.5367 20.7217L-6.53666 20.7216C-6.21853 20.3605 -5.80092 19.8864 -5.30636 19.3698C-4.17483 18.1879 -2.59031 16.7277 -0.480238 15.4736C3.82738 12.9133 10.0611 11.3744 18.6133 14.1736C21.6003 15.1512 25.5106 14.9515 29.1858 13.8797C30.0058 11.6588 30.7705 9.63095 31.4186 7.96548C31.864 6.82089 32.2589 5.83575 32.5815 5.07205C32.8765 4.37361 33.1777 3.69605 33.4257 3.29475C34.1753 2.0818 35.4034 1.43603 36.5397 1.19104C37.6877 0.943553 38.98 1.04492 40.1329 1.58676C41.3293 2.14902 42.3666 3.1905 42.8171 4.70417ZM34.9911 11.2504C35.211 10.6737 35.4211 10.1277 35.6197 9.6174C36.058 8.49099 36.4355 7.55039 36.7343 6.84293C36.884 6.48859 37.0089 6.2046 37.1084 5.99088C37.1827 5.83129 37.2284 5.74224 37.2489 5.70337C37.2727 5.68538 37.3458 5.63802 37.5036 5.604C37.7644 5.54779 38.0412 5.58323 38.2296 5.67177C38.3745 5.73988 38.4506 5.82235 38.4973 5.97923C38.5571 6.18011 38.6304 6.74879 38.191 7.85039C37.8381 8.73514 37.0008 9.77436 35.6058 10.8161C35.409 10.9631 35.2039 11.1079 34.9911 11.2504ZM25.0139 35.0973C25.0149 35.0966 25.03 35.1 25.0559 35.1099C25.0258 35.103 25.0129 35.0981 25.0139 35.0973ZM58.6135 11.9822C59.8122 12.321 60.5093 13.5673 60.1706 14.766L54.1706 35.9973C53.8318 37.196 52.5854 37.8931 51.3867 37.5544C50.188 37.2156 49.4909 35.9692 49.8296 34.7705L55.8296 13.5393C56.1684 12.3406 57.4148 11.6434 58.6135 11.9822ZM59.9195 8.70291C61.5049 8.70291 62.7901 7.40355 62.7901 5.8007C62.7901 4.19786 61.5049 2.89849 59.9195 2.89849C58.3341 2.89849 57.0489 4.19786 57.0489 5.8007C57.0489 7.40355 58.3341 8.70291 59.9195 8.70291Z" fill="white"/>
<ellipse cx="59.9194" cy="5.80065" rx="2.87059" ry="2.90221" fill="#FFD600"/>
</svg>
