<svg width="51" height="96" viewBox="0 0 51 96" fill="none" xmlns="http://www.w3.org/2000/svg">
<path d="M22.4454 57.251C22.3792 60.8242 22.0484 64.265 21.7175 67.7058C21.2543 72.6684 18.4752 76.5724 12.9832 76.5724C7.35885 76.5724 4.64592 72.6684 4.18274 67.7058C2.85936 55.1336 2.85936 41.3043 4.18274 28.7984C4.64592 23.9019 7.35885 19.9979 12.9832 19.9979C18.4752 19.9979 21.2543 23.9019 21.7175 28.7984C22.1145 33.0994 22.2469 36.9372 22.5116 41.4367C24.3643 36.077 27.1434 30.8496 29.1946 27.078C31.9076 22.1153 36.4732 18.8068 42.7593 21.4536C48.0528 23.7034 49.9055 27.9382 47.9205 33.0332C45.2075 40.0471 39.9802 47.5242 35.0837 51.4282C34.2235 52.0237 35.0175 53.3471 36.01 52.6192C37.0026 51.8252 37.9289 51.0312 38.7891 50.1048C42.7593 54.3396 45.8031 60.2287 47.4573 64.8605C48.913 69.2938 46.8618 73.661 41.7006 75.7784C36.2747 77.8958 31.3782 75.7122 28.3344 70.6172C26.6802 67.7719 24.1658 62.0152 22.4454 57.251Z" fill="#2964E0"/>
<ellipse cx="6.80251" cy="40.2351" rx="2.04225" ry="4.49296" fill="white"/>
<ellipse cx="5.98561" cy="41.4624" rx="1.22535" ry="2.4507" fill="black"/>
<ellipse cx="12.5208" cy="40.2351" rx="2.04225" ry="4.49296" fill="white"/>
<ellipse cx="11.7039" cy="41.4624" rx="1.22535" ry="2.4507" fill="black"/>
<path d="M7.21094 47.1797C8.02784 48.4126 10.1518 50.1387 12.1123 47.1797" stroke="#3C3C3C" stroke-width="0.816901" stroke-linecap="round"/>
<path d="M46.0137 26.7578C46.9668 27.847 47.5658 31.8226 42.3376 39.0113" stroke="#F7F7F7" stroke-width="1.6338" stroke-linecap="round"/>
<circle cx="40.7039" cy="41.4614" r="0.816901" fill="#EDEDED"/>
</svg>
