<svg width="24" height="24" viewBox="0 0 24 24" fill="none" xmlns="http://www.w3.org/2000/svg">
<path fill-rule="evenodd" clip-rule="evenodd" d="M16.2699 12.3071C15.1399 12.3071 14.0699 12.5371 13.1699 12.9171C16.3299 13.8371 18.5599 16.0271 18.6099 18.5771C20.2499 18.3571 22.0099 17.7471 22.0099 16.0471C22.0099 14.0171 19.3799 12.3071 16.2699 12.3071Z" fill="#CDCFD5"/>
<path fill-rule="evenodd" clip-rule="evenodd" d="M17.29 10.7199H17.32C19.45 10.7199 21.18 8.99 21.18 6.86C21.18 4.73 19.45 3 17.32 3C16.9 3 16.5 3.07 16.12 3.19C16.81 4.21 17.21 5.44 17.21 6.76C17.21 8.15 16.76 9.44 16 10.49C16.4 10.64 16.84 10.7199 17.29 10.7199Z" fill="#CDCFD5"/>
<path fill-rule="evenodd" clip-rule="evenodd" d="M9.309 14C5.347 14 2 16.165 2 18.728C2 21.667 6.171 22.007 9.309 22.007C11.117 22.007 16.618 22.007 16.618 18.708C16.618 16.156 13.271 14 9.309 14Z" fill="#CDCFD5"/>
<path fill-rule="evenodd" clip-rule="evenodd" d="M9.83292 11.7755H9.86292C12.5459 11.7755 14.7279 9.59351 14.7279 6.91151C14.7279 4.22851 12.5459 2.04651 9.86292 2.04651C7.18192 2.04651 4.99992 4.22851 4.99992 6.90951C4.99492 8.20451 5.49391 9.42351 6.40691 10.3425C7.31991 11.2615 8.53592 11.7705 9.83292 11.7755Z" fill="#CDCFD5"/>
</svg>
