<svg width="24" height="24" viewBox="0 0 24 24" fill="none" xmlns="http://www.w3.org/2000/svg">
<g id="Component 6">
<path id="Vector" fill-rule="evenodd" clip-rule="evenodd" d="M17.8754 10.299H17.8517C17.4583 10.2848 17.1494 9.95596 17.1627 9.56253C17.1931 8.65882 16.7513 8.0725 15.9806 7.99363C15.5891 7.95372 15.304 7.60402 15.3439 7.21251C15.3848 6.82195 15.7364 6.53401 16.126 6.57583C17.654 6.73167 18.6433 7.95087 18.5872 9.61004C18.5739 9.99587 18.2575 10.299 17.8754 10.299ZM17.7975 3.25367C16.1631 2.73102 13.9005 2.94769 12.4883 4.54985C11.005 2.95909 8.81934 2.72817 7.19627 3.25462C3.47596 4.45197 2.31567 8.7624 3.37428 12.0684C5.04486 17.2674 10.5992 20.0726 12.5017 20.0726C14.1998 20.0726 19.9746 17.3206 21.6262 12.0684C22.6848 8.76335 21.5216 4.45292 17.7975 3.25367Z" fill="#FF3E3E"/>
</g>
</svg>
