<svg width="32" height="32" viewBox="0 0 32 32" fill="none" xmlns="http://www.w3.org/2000/svg">
<g id="cancel">
<path id="Vector" d="M26.0612 23.938C26.343 24.2198 26.5013 24.602 26.5013 25.0005C26.5013 25.399 26.343 25.7812 26.0612 26.063C25.7794 26.3448 25.3972 26.5031 24.9987 26.5031C24.6002 26.5031 24.218 26.3448 23.9362 26.063L15.9999 18.1242L8.0612 26.0605C7.7794 26.3423 7.39721 26.5006 6.9987 26.5006C6.60018 26.5006 6.21799 26.3423 5.9362 26.0605C5.6544 25.7787 5.49609 25.3965 5.49609 24.998C5.49609 24.5995 5.6544 24.2173 5.9362 23.9355L13.8749 15.9992L5.9387 8.06049C5.6569 7.7787 5.49859 7.39651 5.49859 6.99799C5.49859 6.59948 5.6569 6.21729 5.9387 5.93549C6.22049 5.6537 6.60268 5.49539 7.0012 5.49539C7.39971 5.49539 7.7819 5.6537 8.0637 5.93549L15.9999 13.8742L23.9387 5.93424C24.2205 5.65245 24.6027 5.49414 25.0012 5.49414C25.3997 5.49414 25.7819 5.65245 26.0637 5.93424C26.3455 6.21603 26.5038 6.59823 26.5038 6.99674C26.5038 7.39526 26.3455 7.77745 26.0637 8.05924L18.1249 15.9992L26.0612 23.938Z" fill="#CDCFD5"/>
</g>
</svg>
