<svg width="119" height="130" viewBox="0 0 119 130" fill="none" xmlns="http://www.w3.org/2000/svg">
<g id="ph:translate-bold">
<path id="Vector" d="M127.324 106.961L98.8863 50.0855C98.3799 49.0742 97.602 48.2237 96.6397 47.6293C95.6773 47.035 94.5686 46.7202 93.4375 46.7202C92.3064 46.7202 91.1977 47.035 90.2353 47.6293C89.273 48.2237 88.4951 49.0742 87.9887 50.0855L77.5684 70.9059C70.5482 70.2922 63.7885 67.9529 57.8906 64.0961C65.0571 55.761 69.5403 45.4565 70.7535 34.5313H81.25C82.8662 34.5313 84.4161 33.8892 85.5589 32.7464C86.7017 31.6036 87.3438 30.0537 87.3438 28.4375C87.3438 26.8213 86.7017 25.2714 85.5589 24.1286C84.4161 22.9858 82.8662 22.3438 81.25 22.3438H54.8438V16.25C54.8438 14.6338 54.2017 13.0839 53.0589 11.9411C51.9161 10.7983 50.3662 10.1562 48.75 10.1562C47.1338 10.1562 45.5839 10.7983 44.4411 11.9411C43.2983 13.0839 42.6562 14.6338 42.6562 16.25V22.3438H16.25C14.6338 22.3438 13.0839 22.9858 11.9411 24.1286C10.7983 25.2714 10.1562 26.8213 10.1562 28.4375C10.1562 30.0537 10.7983 31.6036 11.9411 32.7464C13.0839 33.8892 14.6338 34.5313 16.25 34.5313H58.4645C57.3211 42.4731 53.9531 49.9291 48.75 56.0371C46.2108 53.0657 44.092 49.7594 42.4531 46.2109C42.1321 45.4646 41.6652 44.7901 41.0797 44.2269C40.4942 43.6637 39.8019 43.2232 39.0437 42.9315C38.2855 42.6397 37.4766 42.5025 36.6646 42.5279C35.8526 42.5533 35.0539 42.7408 34.3154 43.0794C33.5769 43.418 32.9136 43.9008 32.3645 44.4995C31.8153 45.0982 31.3914 45.8007 31.1177 46.5656C30.844 47.3305 30.726 48.1424 30.7707 48.9536C30.8153 49.7648 31.0217 50.5588 31.3777 51.2891C33.5097 55.9249 36.2805 60.2392 39.6094 64.1063C32.6744 68.6711 24.5525 71.1006 16.25 71.0938C14.6338 71.0938 13.0839 71.7358 11.9411 72.8786C10.7983 74.0214 10.1562 75.5713 10.1562 77.1875C10.1562 78.8037 10.7983 80.3536 11.9411 81.4964C13.0839 82.6392 14.6338 83.2813 16.25 83.2813C27.9502 83.2907 39.3437 79.5398 48.75 72.5816C55.5714 77.6017 63.4593 80.9799 71.7996 82.4535L59.5461 106.961C59.1652 107.678 58.9318 108.465 58.8595 109.275C58.7873 110.084 58.8776 110.9 59.1253 111.674C59.3729 112.448 59.7729 113.164 60.3016 113.781C60.8303 114.398 61.4771 114.904 62.2039 115.267C62.9308 115.63 63.7229 115.845 64.5339 115.897C65.3448 115.95 66.158 115.84 66.9258 115.574C67.6936 115.308 68.4003 114.89 69.0045 114.347C69.6086 113.804 70.098 113.145 70.4438 112.409L76.8879 99.5313H109.982L116.421 112.409C117.144 113.855 118.411 114.955 119.944 115.466C121.477 115.978 123.151 115.859 124.597 115.136C126.043 114.414 127.142 113.146 127.654 111.613C128.165 110.08 128.046 108.406 127.324 106.961ZM82.9816 87.3438L93.4375 66.4371L103.888 87.3438H82.9816Z" fill="#E6F3FF"/>
</g>
</svg>
