<svg width="401" height="841" viewBox="0 0 401 841" fill="none" xmlns="http://www.w3.org/2000/svg">
<path fill-rule="evenodd" clip-rule="evenodd" d="M280.717 791.83V791.83L282.347 793.97L283.943 796.145L285.5 798.353L287.018 800.593L288.494 802.865L289.927 805.168L291.315 807.5L292.656 809.862L293.949 812.251L295.191 814.666L296.383 817.107L297.522 819.573L298.607 822.061L299.637 824.572L300.611 827.102L301.525 829.652L302.38 832.219L303.172 834.802L303.9 837.399L304.562 840.008L305.156 842.627L305.68 845.255L306.133 847.889L306.513 850.528L306.816 853.168L307.043 855.808L307.191 858.445L307.258 861.078L307.243 863.702L307.145 866.316L306.961 868.918L306.691 871.503L306.333 874.071L305.885 876.617L305.348 879.138L304.72 881.633L303.999 884.098L303.185 886.529L302.277 888.924L301.275 891.28L300.178 893.593L298.985 895.86L297.696 898.078L296.312 900.244L294.833 902.355L293.261 904.408L291.595 906.401L289.837 908.331L287.99 910.195L286.055 911.992L284.034 913.719L281.929 915.374L279.744 916.956L277.482 918.463L275.145 919.895L272.737 921.249L270.261 922.525L267.722 923.723L265.122 924.842L262.467 925.882L259.761 926.845L257.007 927.729L254.211 928.535L251.376 929.266L248.508 929.921L245.611 930.503L242.689 931.014L239.747 931.454L236.791 931.827L233.824 932.135L230.851 932.38L227.877 932.566L224.905 932.696L221.941 932.773L218.989 932.799L216.052 932.78L213.135 932.719L210.241 932.619L207.374 932.485L204.538 932.321L201.735 932.131L198.969 931.919L196.241 931.69L193.556 931.448L190.915 931.197L188.321 930.942L185.774 930.688L183.277 930.437L180.832 930.196L178.438 929.968L176.097 929.756L173.81 929.565L171.577 929.4L169.397 929.262L167.272 929.157L165.199 929.087L163.179 929.056L161.211 929.066L159.294 929.12L157.426 929.22L155.606 929.37L153.832 929.57L152.103 929.823L150.415 930.13L148.768 930.492L147.158 930.911L145.584 931.386L144.042 931.918L142.531 932.507L141.047 933.152L139.588 933.855L138.15 934.612L136.732 935.424L135.33 936.289L133.941 937.206L132.562 938.173L131.192 939.189L129.827 940.251L128.465 941.358L127.103 942.507L125.739 943.696L124.37 944.922L122.995 946.183L121.61 947.475L120.214 948.797L118.805 950.144L117.381 951.514L115.94 952.904L114.481 954.31L113.003 955.73L111.503 957.16L109.981 958.598L108.437 960.04L106.868 961.483L105.274 962.925L103.655 964.363L102.01 965.794L100.338 967.216L98.6405 968.628L96.9158 970.026L95.1644 971.41L93.3862 972.778L91.5811 974.129L89.7495 975.46L87.8914 976.771L86.007 978.06L84.0965 979.326L82.1604 980.567L80.1988 981.782L78.2123 982.97L76.2012 984.13L74.166 985.261L72.1072 986.362L70.0254 987.432L67.9209 988.47L65.7945 989.475L63.6467 990.447L61.4782 991.384L59.2894 992.288L57.081 993.156L54.8537 993.989L52.6081 994.786L50.3448 995.546L48.0644 996.271L45.7675 996.959L43.4547 997.611L41.1266 998.226L38.7838 998.805L36.4268 999.347L34.0562 999.853L31.6725 1000.32L29.2761 1000.76L26.8677 1001.15L24.4476 1001.52L22.0162 1001.84L19.574 1002.14L17.1215 1002.39L14.6588 1002.62L12.1865 1002.81L9.70479 1002.96L7.21408 1003.09L4.71461 1003.18L2.20672 1003.23L-0.30934 1003.26L-2.83329 1003.25L-5.36487 1003.21L-7.90381 1003.14L-10.4499 1003.04L-13.0027 1002.9L-15.5622 1002.74L-18.1279 1002.54L-20.6997 1002.32L-23.2772 1002.06L-25.86 1001.77L-28.4479 1001.45L-31.0405 1001.1L-33.6373 1000.71L-36.238 1000.3L-38.8421 999.853L-41.449 999.373L-44.0584 998.862L-46.6695 998.317L-49.2818 997.738L-51.8945 997.126L-54.5071 996.48L-57.1187 995.798L-59.7285 995.082L-62.3356 994.329L-64.9392 993.539L-67.5382 992.713L-70.1316 991.849L-72.7184 990.946L-75.2975 990.005L-77.8677 989.024L-80.428 988.003L-82.977 986.941L-85.5136 985.839L-88.0365 984.695L-90.5445 983.509L-93.0363 982.281L-95.5105 981.011L-97.9658 979.698L-100.401 978.341L-102.814 976.941L-105.204 975.497L-107.569 974.01L-109.909 972.478L-112.22 970.903L-114.502 969.283L-116.754 967.619L-118.973 965.91L-121.159 964.158L-123.309 962.361L-125.421 960.521L-127.496 958.637L-129.53 956.71L-131.522 954.739L-133.471 952.726L-135.374 950.671L-137.232 948.573L-139.041 946.435L-140.8 944.256L-142.508 942.037L-144.164 939.779L-145.766 937.483L-147.313 935.149L-148.804 932.779L-150.238 930.374L-151.613 927.934L-152.929 925.462L-154.186 922.959L-155.382 920.425L-156.517 917.863L-157.591 915.274L-158.604 912.659L-159.555 910.02L-160.445 907.359L-161.274 904.678L-162.042 901.977L-162.75 899.26L-163.398 896.527L-163.988 893.781L-164.52 891.023L-164.996 888.255L-165.417 885.478L-165.784 882.695L-166.099 879.908L-166.364 877.117L-166.58 874.324L-166.75 871.532L-166.876 868.741L-166.96 865.953L-167.004 863.169L-167.011 860.391L-166.984 857.62L-166.925 854.856L-166.836 852.102L-166.721 849.357L-166.582 846.623L-166.422 843.9L-166.244 841.188L-166.051 838.489L-165.845 835.803L-165.63 833.129L-165.407 830.468L-165.181 827.82L-164.953 825.185L-164.726 822.562L-164.503 819.951L-164.286 817.352L-164.076 814.764L-163.877 812.186L-163.691 809.618L-163.518 807.059L-163.361 804.507L-163.221 801.963L-163.1 799.424L-162.998 796.889L-162.916 794.358L-162.856 791.83L-162.817 789.302L-162.8 786.774L-162.805 784.245L-162.831 781.713L-162.878 779.177L-162.945 776.637L-163.032 774.089L-163.137 771.535L-163.259 768.973L-163.397 766.401L-163.547 763.819L-163.709 761.226L-163.881 758.622L-164.059 756.005L-164.243 753.376L-164.429 750.734L-164.617 748.078L-164.803 745.408L-164.985 742.725L-165.162 740.028L-165.33 737.317L-165.488 734.592L-165.634 731.853L-165.764 729.101L-165.877 726.336L-165.97 723.559L-166.042 720.77L-166.089 717.97L-166.11 715.159L-166.103 712.338L-166.064 709.509L-165.993 706.672L-165.888 703.828L-165.745 700.978L-165.564 698.124L-165.343 695.267L-165.081 692.407L-164.775 689.547L-164.426 686.687L-164.031 683.828L-163.591 680.972L-163.104 678.119L-162.569 675.272L-161.985 672.431L-161.353 669.598L-160.67 666.774L-159.937 663.96L-159.151 661.159L-158.313 658.372L-157.422 655.6L-156.476 652.845L-155.476 650.109L-154.42 647.394L-153.308 644.701L-152.139 642.033L-150.912 639.391L-149.628 636.777L-148.286 634.193L-146.885 631.642L-145.425 629.125L-143.906 626.644L-142.328 624.201L-140.691 621.798L-138.994 619.438L-137.238 617.122L-135.424 614.852L-133.551 612.63L-131.62 610.459L-129.632 608.339L-127.587 606.273L-125.486 604.262L-123.33 602.309L-121.12 600.415L-118.856 598.582L-116.54 596.81L-114.174 595.102L-111.758 593.458L-109.295 591.881L-106.785 590.371L-104.23 588.929L-101.632 587.556L-98.9931 586.254L-96.3146 585.022L-93.5986 583.861L-90.8472 582.772L-88.0623 581.756L-85.2461 580.811L-82.4006 579.94L-79.5282 579.141L-76.6309 578.414L-73.711 577.76L-70.7709 577.177L-67.8126 576.666L-64.8386 576.225L-61.8512 575.855L-58.8524 575.554L-55.8447 575.321L-52.8302 575.156L-49.8111 575.057L-46.7897 575.023L-43.7681 575.053L-40.7482 575.145L-37.7323 575.297L-34.7223 575.51L-31.72 575.78L-28.7275 576.106L-25.7464 576.486L-22.7786 576.919L-19.8258 577.402L-16.8894 577.935L-13.971 578.514L-11.0722 579.139L-8.19416 579.807L-5.33838 580.515L-2.5061 581.263L0.301471 582.047L3.08319 582.864L5.83797 583.714L8.56482 584.593L11.2628 585.498L13.9312 586.427L16.5691 587.378L19.176 588.347L21.7514 589.332L24.2946 590.33L26.8055 591.339L29.2838 592.355L31.7292 593.376L34.1418 594.399L36.5216 595.422L38.8688 596.44L41.1836 597.452L43.4663 598.455L45.7174 599.445L47.9375 600.42L50.1272 601.377L52.2873 602.313L54.4187 603.226L56.5223 604.111L58.5991 604.967L60.6505 605.79L62.6776 606.578L64.6818 607.327L66.6649 608.037L68.6282 608.704L70.5736 609.327L72.5029 609.904L74.4178 610.435L76.3203 610.918L78.2123 611.353L80.0957 611.74L81.9724 612.078L83.8444 612.368L85.7136 612.61L87.5818 612.805L89.4508 612.954L91.3224 613.06L93.1982 613.122L95.0799 613.145L96.9688 613.128L98.8664 613.076L100.774 612.991L102.692 612.876L104.623 612.733L106.566 612.566L108.522 612.38L110.493 612.176L112.477 611.96L114.476 611.734L116.489 611.504L118.516 611.272L120.557 611.044L122.611 610.824L124.677 610.615L126.754 610.422L128.841 610.249L130.937 610.101L133.041 609.981L135.15 609.893L137.263 609.842L139.378 609.831L141.492 609.865L143.605 609.946L145.713 610.078L147.813 610.264L149.905 610.507L151.984 610.811L154.048 611.177L156.094 611.608L158.121 612.107L160.124 612.674L162.101 613.312L164.05 614.022L165.968 614.805L167.852 615.661L169.699 616.592L171.507 617.598L173.273 618.678L174.996 619.831L176.672 621.059L178.3 622.358L179.878 623.729L181.404 625.17L182.876 626.679L184.294 628.255L185.655 629.894L186.959 631.595L188.204 633.355L189.391 635.171L190.519 637.04L191.588 638.96L192.597 640.926L193.548 642.936L194.441 644.985L195.276 647.07L196.055 649.187L196.779 651.332L197.45 653.502L198.07 655.691L198.641 657.897L199.164 660.115L199.643 662.342L200.08 664.573L200.478 666.805L200.84 669.034L201.169 671.256L201.469 673.469L201.742 675.668L201.993 677.852L202.224 680.016L202.44 682.158L202.644 684.276L202.839 686.368L203.029 688.431L203.217 690.464L203.408 692.465L203.604 694.432L203.809 696.366L204.026 698.264L204.257 700.127L204.506 701.954L204.776 703.745L205.068 705.5L205.386 707.22L205.732 708.904L206.108 710.553L206.518 712.168L206.962 713.749L207.443 715.298L207.962 716.816L208.523 718.303L209.125 719.761L209.771 721.192L210.462 722.596L211.199 723.977L211.983 725.334L212.815 726.671L213.695 727.989L214.624 729.29L215.602 730.576L216.63 731.849L217.707 733.111L218.833 734.365L220.008 735.612L221.231 736.855L222.501 738.095L223.818 739.336L225.181 740.58L226.588 741.827L228.038 743.081L229.53 744.345L231.062 745.618L232.632 746.905L234.238 748.207L235.879 749.525L237.552 750.862L239.255 752.22L240.986 753.599L242.742 755.002L244.521 756.431L246.32 757.887L248.138 759.37L249.97 760.883L251.814 762.427L253.668 764.002L255.528 765.61L257.393 767.251L259.258 768.927L261.122 770.637L262.981 772.383L264.833 774.165L266.675 775.982L268.503 777.836L270.316 779.727L272.111 781.654L273.884 783.617L275.634 785.617L277.357 787.652L279.052 789.723L280.717 791.83" fill="#D9EAFF"/>
<path fill-rule="evenodd" clip-rule="evenodd" d="M-163.72 322.785V322.785L-163.254 319.82L-162.732 316.877L-162.157 313.96L-161.529 311.068L-160.85 308.204L-160.12 305.367L-159.341 302.56L-158.513 299.782L-157.637 297.036L-156.714 294.321L-155.744 291.638L-154.728 288.99L-153.667 286.375L-152.564 283.796L-151.419 281.253L-150.234 278.747L-149.01 276.279L-147.749 273.849L-146.45 271.458L-145.113 269.106L-143.739 266.794L-142.327 264.522L-140.878 262.292L-139.394 260.103L-137.876 257.957L-136.328 255.853L-134.752 253.793L-133.151 251.777L-131.528 249.805L-129.887 247.877L-128.23 245.993L-126.562 244.153L-124.887 242.357L-123.208 240.604L-121.53 238.892L-119.857 237.222L-118.194 235.592L-116.545 234L-114.916 232.445L-113.31 230.925L-111.733 229.437L-110.189 227.979L-108.683 226.549L-107.218 225.143L-105.799 223.759L-104.43 222.393L-103.113 221.043L-101.853 219.704L-100.652 218.373L-99.5119 217.046L-98.4352 215.72L-97.4233 214.391L-96.4773 213.056L-95.5979 211.71L-94.7853 210.35L-94.0392 208.973L-93.3592 207.575L-92.7439 206.153L-92.192 204.705L-91.7018 203.227L-91.2708 201.716L-90.8966 200.17L-90.5764 198.587L-90.307 196.965L-90.0851 195.303L-89.907 193.597L-89.7689 191.849L-89.6669 190.055L-89.5969 188.217L-89.5547 186.332L-89.5359 184.402L-89.5363 182.425L-89.5514 180.403L-89.5769 178.335L-89.6082 176.222L-89.6411 174.066L-89.6712 171.867L-89.6941 169.627L-89.7057 167.348L-89.7018 165.03L-89.6784 162.677L-89.6315 160.29L-89.5574 157.871L-89.4523 155.424L-89.3128 152.949L-89.1356 150.451L-88.9176 147.932L-88.6559 145.395L-88.3481 142.842L-87.9919 140.275L-87.5854 137.698L-87.1269 135.113L-86.615 132.521L-86.0483 129.927L-85.4258 127.33L-84.7462 124.735L-84.0088 122.144L-83.2125 119.558L-82.3561 116.982L-81.4383 114.418L-80.4577 111.87L-79.4127 109.344L-78.3013 106.845L-77.122 104.378L-75.8736 101.949L-74.5552 99.5621L-73.1665 97.2233L-71.7072 94.9372L-70.1777 92.7086L-68.5784 90.5418L-66.9103 88.4411L-65.1744 86.4107L-63.3721 84.4543L-61.5052 82.5753L-59.5756 80.7771L-57.5854 79.0625L-55.5371 77.4339L-53.4333 75.8936L-51.2768 74.4431L-49.0705 73.0836L-46.8178 71.816L-44.5218 70.6405L-42.1859 69.5569L-39.8136 68.5643L-37.4083 67.6616L-34.9735 66.8471L-32.5128 66.1185L-30.0294 65.473L-27.5266 64.9076L-25.0078 64.4187L-22.4757 64.0024L-19.9334 63.6543L-17.3834 63.3699L-14.8281 63.1444L-12.2696 62.9727L-9.70991 62.8496L-7.15049 62.7699L-4.59268 62.7282L-2.03751 62.7192L0.514304 62.7378L3.06234 62.7788L5.60641 62.8373L8.14666 62.9086L10.6834 62.9882L13.2174 63.0721L15.7492 63.1565L18.2801 63.2378L20.8111 63.3132L23.3435 63.3799L25.8789 63.4358L28.4187 63.4791L30.9645 63.5085L33.518 63.5229L36.0808 63.522L38.6546 63.5055L41.2408 63.4738L43.8412 63.4275L46.457 63.3676L49.0898 63.2954L51.7407 63.2124L54.4109 63.1206L57.1015 63.0222L59.8131 62.9195L62.5466 62.8152L65.3023 62.7123L68.0806 62.6139L70.8814 62.5237L73.7044 62.4454L76.5491 62.3833L79.4146 62.3416L82.2998 62.3247L85.2033 62.3372L88.1235 62.3836L91.0582 62.4686L94.0054 62.5969L96.9623 62.7734L99.926 63.0028L102.893 63.29L105.861 63.6398L108.824 64.0569L111.78 64.5461L114.723 65.1121L117.649 65.7591L120.553 66.4913L123.43 67.3123L126.274 68.2255L129.081 69.2341L131.845 70.3409L134.559 71.5483L137.22 72.8584L139.821 74.2727L142.356 75.7924L144.82 77.4181L147.208 79.1501L149.515 80.9878L151.735 82.9303L153.865 84.976L155.9 87.1226L157.837 89.3673L159.673 91.7068L161.404 94.137L163.03 96.6532L164.55 99.2504L165.962 101.923L167.268 104.665L168.468 107.469L169.564 110.33L170.56 113.239L171.458 116.189L172.263 119.174L172.979 122.184L173.614 125.213L174.173 128.254L174.663 131.298L175.093 134.339L175.47 137.369L175.803 140.383L176.101 143.374L176.373 146.337L176.629 149.266L176.879 152.158L177.132 155.008L177.398 157.813L177.686 160.572L178.004 163.281L178.363 165.94L178.77 168.548L179.232 171.107L179.757 173.616L180.352 176.078L181.021 178.494L181.77 180.868L182.603 183.203L183.522 185.503L184.53 187.771L185.628 190.013L186.815 192.234L188.092 194.438L189.455 196.632L190.903 198.819L192.431 201.008L194.033 203.201L195.705 205.405L197.44 207.626L199.229 209.868L201.064 212.135L202.936 214.433L204.834 216.765L206.748 219.135L208.665 221.546L210.571 224L212.452 226.501L214.295 229.048L216.083 231.642L217.803 234.284L219.441 236.972L220.982 239.705L222.415 242.48L223.727 245.293L224.906 248.142L225.94 251.021L226.819 253.926L227.533 256.85L228.073 259.789L228.432 262.736L228.601 265.683L228.574 268.623L228.348 271.55L227.917 274.456L227.278 277.333L226.432 280.173L225.376 282.968L224.112 285.712L222.644 288.396L220.973 291.014L219.107 293.56L217.05 296.026L214.81 298.408L212.398 300.701L209.822 302.901L207.095 305.003L204.228 307.006L201.235 308.908L198.13 310.708L194.929 312.406L191.646 314.004L188.299 315.504L184.902 316.909L181.474 318.224L178.031 319.453L174.59 320.603L171.167 321.681L167.778 322.695L164.44 323.654L161.167 324.567L157.974 325.444L154.874 326.297L151.879 327.135L149.002 327.972L146.252 328.817L143.638 329.683L141.167 330.583L138.847 331.526L136.681 332.525L134.672 333.591L132.824 334.734L131.135 335.964L129.605 337.29L128.23 338.721L127.008 340.263L125.932 341.924L124.996 343.709L124.192 345.621L123.511 347.665L122.943 349.841L122.478 352.15L122.102 354.591L121.805 357.162L121.574 359.861L121.395 362.681L121.255 365.618L121.139 368.664L121.036 371.811L120.93 375.05L120.809 378.37L120.661 381.762L120.472 385.213L120.232 388.712L119.931 392.246L119.558 395.804L119.105 399.373L118.565 402.941L117.931 406.497L117.198 410.029L116.361 413.527L115.417 416.98L114.363 420.378L113.197 423.712L111.918 426.971L110.526 430.146L109.019 433.228L107.4 436.209L105.668 439.08L103.826 441.832L101.876 444.459L99.8206 446.953L97.663 449.307L95.407 451.516L93.0567 453.573L90.6167 455.475L88.0921 457.215L85.4882 458.792L82.8106 460.202L80.0655 461.444L77.259 462.517L74.3977 463.42L71.488 464.155L68.5368 464.724L65.5508 465.129L62.5366 465.375L59.5009 465.465L56.4503 465.407L53.3909 465.206L50.3288 464.87L47.2698 464.406L44.2191 463.825L41.1817 463.135L38.162 462.346L35.164 461.469L32.1911 460.515L29.2461 459.494L26.3313 458.419L23.4484 457.301L20.5986 456.15L17.7822 454.978L14.9992 453.797L12.2489 452.616L9.53013 451.446L6.84121 450.296L4.17994 449.175L1.54371 448.092L-1.07043 447.053L-3.66581 446.066L-6.24595 445.136L-8.81464 444.267L-11.3757 443.464L-13.9333 442.728L-16.4911 442.062L-19.0533 441.467L-21.6235 440.941L-24.2054 440.483L-26.8022 440.091L-29.4172 439.762L-32.053 439.492L-34.7119 439.275L-37.3959 439.105L-40.1064 438.978L-42.8444 438.885L-45.6104 438.82L-48.4046 438.775L-51.2264 438.741L-54.075 438.713L-56.9489 438.68L-59.8463 438.635L-62.765 438.57L-65.7022 438.477L-68.6551 438.349L-71.6204 438.178L-74.5949 437.96L-77.5752 437.686L-80.5579 437.354L-83.5398 436.959L-86.5175 436.498L-89.4876 435.967L-92.4468 435.363L-95.3916 434.684L-98.3187 433.929L-101.225 433.095L-104.107 432.182L-106.961 431.187L-109.784 430.111L-112.572 428.953L-115.322 427.711L-118.03 426.385L-120.693 424.975L-123.307 423.481L-125.868 421.902L-128.372 420.239L-130.816 418.491L-133.196 416.66L-135.509 414.746L-137.751 412.751L-139.918 410.675L-142.008 408.519L-144.017 406.287L-145.943 403.979L-147.782 401.599L-149.534 399.148L-151.195 396.63L-152.765 394.048L-154.241 391.405L-155.623 388.704L-156.909 385.95L-158.1 383.146L-159.196 380.296L-160.196 377.405L-161.101 374.476L-161.913 371.513L-162.632 368.522L-163.26 365.506L-163.799 362.469L-164.25 359.416L-164.616 356.351L-164.9 353.276L-165.102 350.197L-165.227 347.116L-165.276 344.038L-165.253 340.964L-165.159 337.899L-164.997 334.845L-164.77 331.804L-164.48 328.779L-164.13 325.772L-163.72 322.785" fill="#D9EAFF"/>
<path fill-rule="evenodd" clip-rule="evenodd" d="M230.761 170.734V170.734L230.649 171.002L230.535 171.266L230.419 171.528L230.301 171.787L230.181 172.043L230.059 172.296L229.935 172.546L229.81 172.793L229.682 173.037L229.554 173.279L229.423 173.518L229.291 173.754L229.158 173.987L229.023 174.218L228.887 174.446L228.749 174.671L228.61 174.893L228.469 175.113L228.327 175.33L228.184 175.545L228.039 175.757L227.893 175.966L227.745 176.172L227.596 176.376L227.445 176.577L227.294 176.776L227.14 176.972L226.985 177.165L226.829 177.356L226.672 177.543L226.512 177.729L226.352 177.911L226.19 178.09L226.026 178.267L225.861 178.441L225.695 178.613L225.527 178.781L225.357 178.947L225.187 179.109L225.015 179.269L224.841 179.426L224.666 179.58L224.49 179.731L224.313 179.88L224.135 180.025L223.955 180.167L223.774 180.307L223.592 180.443L223.41 180.577L223.226 180.708L223.041 180.836L222.855 180.961L222.669 181.083L222.482 181.202L222.294 181.319L222.106 181.432L221.917 181.543L221.727 181.651L221.537 181.757L221.346 181.859L221.156 181.959L220.964 182.056L220.773 182.151L220.581 182.243L220.389 182.332L220.196 182.419L220.004 182.504L219.811 182.586L219.619 182.665L219.426 182.742L219.234 182.817L219.041 182.889L218.849 182.959L218.656 183.027L218.464 183.092L218.272 183.155L218.08 183.217L217.888 183.276L217.697 183.333L217.506 183.388L217.315 183.441L217.124 183.492L216.934 183.542L216.744 183.59L216.555 183.636L216.366 183.68L216.177 183.723L215.989 183.765L215.801 183.805L215.614 183.844L215.427 183.881L215.241 183.918L215.055 183.953L214.869 183.987L214.684 184.02L214.499 184.053L214.315 184.084L214.131 184.115L213.947 184.145L213.763 184.174L213.58 184.203L213.397 184.231L213.215 184.259L213.032 184.286L212.849 184.313L212.667 184.339L212.485 184.365L212.302 184.391L212.12 184.416L211.937 184.442L211.754 184.467L211.571 184.491L211.388 184.516L211.204 184.54L211.02 184.564L210.836 184.587L210.651 184.611L210.465 184.634L210.279 184.656L210.092 184.679L209.905 184.7L209.716 184.721L209.527 184.742L209.337 184.762L209.147 184.781L208.955 184.799L208.762 184.816L208.569 184.833L208.374 184.848L208.179 184.862L207.983 184.874L207.785 184.886L207.587 184.895L207.387 184.903L207.187 184.91L206.986 184.914L206.783 184.917L206.58 184.918L206.376 184.916L206.171 184.912L205.965 184.906L205.759 184.898L205.551 184.887L205.343 184.874L205.135 184.858L204.926 184.839L204.716 184.817L204.506 184.793L204.295 184.765L204.084 184.734L203.873 184.7L203.662 184.663L203.45 184.623L203.239 184.579L203.028 184.532L202.816 184.481L202.605 184.427L202.395 184.369L202.185 184.308L201.975 184.243L201.766 184.174L201.558 184.102L201.351 184.025L201.144 183.945L200.939 183.861L200.734 183.774L200.531 183.682L200.33 183.587L200.13 183.487L199.931 183.384L199.734 183.277L199.539 183.166L199.345 183.051L199.154 182.933L198.964 182.81L198.777 182.684L198.592 182.555L198.409 182.421L198.229 182.284L198.051 182.144L197.875 182L197.703 181.852L197.532 181.701L197.365 181.547L197.2 181.39L197.038 181.229L196.879 181.066L196.722 180.899L196.569 180.73L196.418 180.557L196.271 180.382L196.126 180.204L195.984 180.024L195.845 179.841L195.71 179.656L195.577 179.468L195.447 179.278L195.32 179.086L195.196 178.892L195.074 178.696L194.956 178.498L194.84 178.298L194.727 178.097L194.617 177.893L194.51 177.689L194.405 177.482L194.303 177.274L194.204 177.064L194.107 176.854L194.012 176.641L193.92 176.428L193.83 176.213L193.742 175.997L193.657 175.78L193.574 175.562L193.492 175.342L193.413 175.122L193.336 174.9L193.261 174.678L193.187 174.454L193.116 174.23L193.046 174.004L192.977 173.778L192.911 173.55L192.846 173.321L192.782 173.092L192.72 172.861L192.659 172.629L192.6 172.396L192.543 172.163L192.486 171.927L192.431 171.691L192.378 171.454L192.326 171.215L192.275 170.975L192.226 170.734L192.178 170.492L192.132 170.248L192.088 170.003L192.045 169.757L192.004 169.509L191.965 169.26L191.928 169.01L191.893 168.758L191.86 168.505L191.83 168.25L191.802 167.994L191.777 167.737L191.754 167.478L191.734 167.218L191.717 166.957L191.703 166.695L191.693 166.431L191.686 166.167L191.682 165.901L191.682 165.635L191.686 165.368L191.694 165.1L191.707 164.831L191.723 164.562L191.744 164.292L191.769 164.022L191.798 163.752L191.833 163.482L191.872 163.211L191.917 162.941L191.966 162.671L192.02 162.402L192.079 162.133L192.144 161.865L192.214 161.598L192.289 161.332L192.369 161.067L192.455 160.803L192.546 160.54L192.643 160.28L192.745 160.02L192.852 159.763L192.964 159.507L193.082 159.254L193.204 159.003L193.332 158.754L193.465 158.507L193.603 158.262L193.745 158.021L193.893 157.781L194.045 157.545L194.201 157.311L194.362 157.079L194.528 156.851L194.697 156.625L194.871 156.403L195.049 156.183L195.23 155.966L195.416 155.752L195.605 155.542L195.798 155.334L195.994 155.129L196.194 154.927L196.397 154.728L196.603 154.532L196.812 154.34L197.024 154.15L197.239 153.963L197.456 153.779L197.677 153.598L197.899 153.419L198.125 153.244L198.352 153.071L198.582 152.901L198.814 152.734L199.049 152.57L199.285 152.408L199.524 152.248L199.764 152.092L200.006 151.937L200.251 151.786L200.497 151.636L200.745 151.49L200.995 151.345L201.246 151.203L201.499 151.063L201.754 150.926L202.01 150.79L202.269 150.657L202.528 150.527L202.79 150.398L203.053 150.272L203.318 150.148L203.584 150.026L203.852 149.906L204.121 149.789L204.392 149.674L204.665 149.561L204.94 149.451L205.216 149.342L205.493 149.237L205.773 149.133L206.054 149.032L206.336 148.934L206.621 148.838L206.907 148.745L207.194 148.654L207.483 148.566L207.774 148.481L208.067 148.399L208.361 148.319L208.657 148.243L208.954 148.169L209.253 148.099L209.554 148.032L209.856 147.968L210.16 147.907L210.465 147.85L210.772 147.796L211.08 147.746L211.39 147.699L211.701 147.656L212.013 147.617L212.327 147.582L212.642 147.55L212.958 147.523L213.275 147.5L213.593 147.481L213.912 147.466L214.233 147.455L214.554 147.449L214.876 147.447L215.199 147.45L215.522 147.457L215.846 147.469L216.171 147.486L216.496 147.507L216.821 147.534L217.146 147.565L217.472 147.601L217.798 147.643L218.123 147.69L218.449 147.741L218.774 147.799L219.098 147.861L219.422 147.929L219.746 148.002L220.069 148.081L220.39 148.166L220.711 148.256L221.031 148.352L221.349 148.453L221.665 148.56L221.981 148.673L222.294 148.791L222.605 148.916L222.915 149.046L223.222 149.182L223.527 149.324L223.829 149.471L224.129 149.625L224.425 149.784L224.719 149.95L225.009 150.121L225.296 150.298L225.58 150.481L225.859 150.67L226.135 150.865L226.406 151.065L226.674 151.272L226.936 151.484L227.194 151.701L227.447 151.925L227.696 152.153L227.939 152.387L228.176 152.627L228.409 152.871L228.635 153.121L228.856 153.376L229.071 153.636L229.279 153.9L229.482 154.169L229.678 154.442L229.868 154.72L230.051 155.002L230.228 155.288L230.398 155.578L230.561 155.872L230.717 156.168L230.866 156.469L231.008 156.772L231.143 157.078L231.271 157.388L231.392 157.699L231.506 158.013L231.612 158.329L231.712 158.647L231.804 158.967L231.889 159.289L231.967 159.611L232.038 159.935L232.102 160.26L232.158 160.586L232.208 160.913L232.25 161.239L232.286 161.566L232.315 161.893L232.337 162.22L232.353 162.547L232.362 162.873L232.365 163.199L232.361 163.523L232.351 163.847L232.335 164.17L232.313 164.491L232.285 164.811L232.251 165.129L232.212 165.445L232.168 165.76L232.118 166.072L232.064 166.383L232.004 166.691L231.94 166.997L231.872 167.301L231.799 167.602L231.722 167.901L231.641 168.197L231.556 168.49L231.467 168.78L231.375 169.068L231.28 169.353L231.182 169.635L231.081 169.914L230.977 170.191L230.87 170.464L230.761 170.734" fill="#D9EAFF"/>
<path fill-rule="evenodd" clip-rule="evenodd" d="M206.855 132.254V132.254L206.793 132.399L206.73 132.542L206.666 132.684L206.601 132.825L206.534 132.964L206.467 133.101L206.399 133.237L206.329 133.371L206.259 133.504L206.188 133.635L206.116 133.765L206.043 133.893L205.969 134.019L205.894 134.145L205.819 134.268L205.743 134.391L205.666 134.511L205.588 134.631L205.51 134.748L205.431 134.865L205.351 134.98L205.27 135.093L205.188 135.206L205.106 135.316L205.023 135.425L204.939 135.533L204.854 135.64L204.768 135.744L204.682 135.848L204.595 135.95L204.507 136.05L204.418 136.149L204.329 136.247L204.238 136.343L204.147 136.437L204.055 136.53L203.962 136.622L203.869 136.712L203.774 136.8L203.679 136.887L203.583 136.972L203.487 137.056L203.39 137.138L203.292 137.218L203.193 137.297L203.094 137.374L202.994 137.45L202.893 137.524L202.792 137.597L202.691 137.668L202.589 137.737L202.486 137.805L202.383 137.871L202.28 137.936L202.176 137.999L202.072 138.061L201.967 138.121L201.863 138.18L201.757 138.237L201.652 138.293L201.547 138.347L201.441 138.4L201.335 138.451L201.229 138.501L201.123 138.55L201.017 138.597L200.91 138.643L200.804 138.687L200.697 138.73L200.591 138.772L200.485 138.812L200.378 138.852L200.272 138.89L200.165 138.926L200.059 138.962L199.953 138.996L199.847 139.03L199.741 139.062L199.635 139.093L199.53 139.123L199.424 139.151L199.319 139.179L199.214 139.206L199.109 139.232L199.004 139.257L198.9 139.281L198.796 139.305L198.692 139.327L198.588 139.349L198.484 139.37L198.381 139.39L198.278 139.41L198.175 139.429L198.073 139.448L197.97 139.466L197.868 139.483L197.766 139.5L197.664 139.517L197.563 139.533L197.462 139.549L197.36 139.565L197.259 139.58L197.158 139.595L197.057 139.61L196.956 139.625L196.856 139.639L196.755 139.653L196.654 139.667L196.553 139.681L196.452 139.695L196.351 139.708L196.25 139.722L196.149 139.735L196.047 139.748L195.946 139.761L195.844 139.774L195.741 139.786L195.639 139.799L195.536 139.811L195.433 139.823L195.329 139.835L195.225 139.846L195.121 139.858L195.016 139.868L194.91 139.879L194.804 139.889L194.698 139.898L194.591 139.907L194.483 139.915L194.375 139.923L194.267 139.929L194.158 139.936L194.048 139.941L193.938 139.945L193.827 139.949L193.716 139.951L193.604 139.953L193.492 139.953L193.379 139.952L193.266 139.95L193.152 139.947L193.038 139.942L192.923 139.937L192.808 139.929L192.693 139.921L192.577 139.91L192.462 139.899L192.345 139.885L192.229 139.87L192.112 139.853L191.996 139.835L191.879 139.815L191.762 139.793L191.645 139.769L191.529 139.744L191.412 139.716L191.295 139.687L191.179 139.655L191.063 139.622L190.947 139.587L190.831 139.549L190.716 139.51L190.602 139.469L190.488 139.425L190.374 139.38L190.261 139.332L190.149 139.282L190.038 139.23L189.927 139.176L189.817 139.12L189.708 139.062L189.601 139.002L189.494 138.94L189.388 138.875L189.283 138.809L189.18 138.741L189.077 138.67L188.976 138.598L188.877 138.523L188.778 138.447L188.681 138.369L188.586 138.289L188.492 138.207L188.399 138.123L188.308 138.038L188.218 137.951L188.13 137.862L188.044 137.771L187.959 137.679L187.876 137.586L187.794 137.491L187.715 137.394L187.636 137.296L187.56 137.197L187.484 137.097L187.411 136.995L187.339 136.892L187.269 136.787L187.2 136.682L187.133 136.576L187.068 136.468L187.004 136.36L186.942 136.25L186.881 136.14L186.821 136.029L186.764 135.917L186.707 135.804L186.652 135.69L186.599 135.575L186.546 135.46L186.495 135.344L186.446 135.228L186.397 135.11L186.35 134.993L186.304 134.874L186.259 134.755L186.215 134.635L186.173 134.515L186.131 134.394L186.091 134.273L186.051 134.151L186.012 134.029L185.975 133.906L185.938 133.782L185.902 133.658L185.867 133.533L185.832 133.408L185.799 133.282L185.766 133.156L185.734 133.029L185.703 132.901L185.673 132.773L185.643 132.644L185.614 132.515L185.586 132.384L185.559 132.254L185.533 132.122L185.507 131.99L185.483 131.857L185.459 131.723L185.437 131.589L185.415 131.453L185.395 131.317L185.375 131.181L185.357 131.043L185.34 130.905L185.325 130.766L185.311 130.626L185.298 130.486L185.287 130.345L185.278 130.203L185.27 130.061L185.265 129.918L185.261 129.774L185.259 129.63L185.259 129.485L185.261 129.34L185.266 129.195L185.272 129.049L185.281 128.903L185.293 128.756L185.307 128.61L185.323 128.463L185.342 128.316L185.364 128.17L185.388 128.023L185.415 127.876L185.445 127.73L185.478 127.584L185.514 127.439L185.553 127.294L185.594 127.149L185.639 127.005L185.686 126.862L185.736 126.72L185.79 126.578L185.846 126.437L185.905 126.298L185.967 126.159L186.032 126.021L186.1 125.885L186.171 125.75L186.244 125.616L186.32 125.483L186.399 125.352L186.48 125.222L186.564 125.093L186.651 124.966L186.74 124.841L186.831 124.717L186.925 124.594L187.021 124.473L187.119 124.354L187.22 124.237L187.322 124.12L187.427 124.006L187.533 123.893L187.642 123.782L187.752 123.672L187.864 123.565L187.978 123.458L188.094 123.354L188.211 123.25L188.329 123.149L188.45 123.049L188.571 122.951L188.695 122.854L188.819 122.759L188.945 122.665L189.072 122.573L189.2 122.482L189.33 122.393L189.46 122.305L189.592 122.218L189.725 122.133L189.859 122.049L189.994 121.967L190.13 121.886L190.267 121.806L190.405 121.728L190.544 121.651L190.684 121.575L190.825 121.5L190.966 121.427L191.109 121.355L191.253 121.284L191.397 121.214L191.543 121.145L191.689 121.078L191.836 121.012L191.984 120.947L192.133 120.883L192.283 120.821L192.434 120.759L192.585 120.699L192.738 120.641L192.891 120.583L193.046 120.527L193.201 120.472L193.357 120.419L193.514 120.367L193.672 120.316L193.831 120.267L193.991 120.219L194.152 120.173L194.313 120.128L194.476 120.085L194.64 120.044L194.804 120.004L194.969 119.966L195.135 119.929L195.302 119.894L195.47 119.861L195.639 119.83L195.808 119.801L195.979 119.774L196.15 119.749L196.322 119.725L196.494 119.704L196.668 119.685L196.842 119.668L197.016 119.653L197.192 119.64L197.367 119.63L197.544 119.622L197.721 119.616L197.898 119.613L198.076 119.612L198.255 119.613L198.433 119.617L198.612 119.624L198.792 119.633L198.971 119.644L199.151 119.659L199.331 119.676L199.511 119.696L199.691 119.718L199.871 119.743L200.051 119.772L200.23 119.803L200.41 119.837L200.589 119.874L200.768 119.913L200.946 119.956L201.124 120.002L201.301 120.051L201.478 120.103L201.653 120.158L201.828 120.216L202.003 120.277L202.176 120.342L202.348 120.409L202.519 120.48L202.689 120.554L202.857 120.631L203.024 120.711L203.19 120.794L203.354 120.881L203.516 120.97L203.676 121.063L203.835 121.16L203.992 121.259L204.146 121.362L204.298 121.467L204.448 121.576L204.596 121.688L204.741 121.803L204.884 121.921L205.024 122.042L205.161 122.167L205.295 122.294L205.427 122.424L205.555 122.556L205.68 122.692L205.802 122.83L205.921 122.971L206.036 123.115L206.148 123.261L206.256 123.409L206.361 123.56L206.463 123.713L206.56 123.868L206.654 124.026L206.744 124.185L206.83 124.346L206.913 124.509L206.991 124.674L207.066 124.84L207.137 125.008L207.204 125.177L207.267 125.348L207.325 125.519L207.38 125.692L207.431 125.866L207.478 126.04L207.521 126.215L207.561 126.391L207.596 126.568L207.627 126.745L207.654 126.922L207.678 127.099L207.698 127.277L207.714 127.454L207.726 127.632L207.735 127.809L207.74 127.986L207.741 128.163L207.739 128.339L207.733 128.515L207.725 128.69L207.712 128.864L207.697 129.038L207.678 129.21L207.657 129.382L207.632 129.553L207.605 129.723L207.575 129.891L207.542 130.059L207.507 130.225L207.469 130.39L207.428 130.553L207.386 130.715L207.341 130.876L207.294 131.035L207.245 131.193L207.194 131.349L207.142 131.504L207.088 131.657L207.032 131.808L206.974 131.958L206.915 132.107L206.855 132.254" fill="#D9EAFF"/>
<path fill-rule="evenodd" clip-rule="evenodd" d="M271.525 388.865V388.865L271.464 389.01L271.401 389.154L271.337 389.296L271.271 389.436L271.205 389.575L271.138 389.712L271.069 389.848L271 389.982L270.93 390.115L270.858 390.246L270.786 390.376L270.713 390.504L270.64 390.631L270.565 390.756L270.49 390.88L270.414 391.002L270.337 391.123L270.259 391.242L270.18 391.36L270.101 391.476L270.021 391.591L269.94 391.705L269.859 391.817L269.776 391.928L269.693 392.037L269.609 392.145L269.525 392.251L269.439 392.356L269.353 392.459L269.266 392.561L269.178 392.662L269.089 392.761L268.999 392.858L268.909 392.954L268.818 393.049L268.726 393.142L268.633 393.233L268.539 393.323L268.445 393.411L268.35 393.498L268.254 393.583L268.158 393.667L268.06 393.749L267.962 393.829L267.864 393.908L267.764 393.986L267.664 394.061L267.564 394.136L267.463 394.208L267.361 394.279L267.259 394.348L267.157 394.416L267.054 394.483L266.95 394.547L266.847 394.611L266.742 394.672L266.638 394.733L266.533 394.791L266.428 394.848L266.323 394.904L266.217 394.958L266.112 395.011L266.006 395.062L265.9 395.112L265.794 395.161L265.687 395.208L265.581 395.254L265.475 395.298L265.368 395.341L265.262 395.383L265.155 395.424L265.049 395.463L264.942 395.501L264.836 395.538L264.73 395.573L264.624 395.608L264.518 395.641L264.412 395.673L264.306 395.704L264.2 395.734L264.095 395.763L263.99 395.791L263.884 395.817L263.78 395.843L263.675 395.868L263.57 395.893L263.466 395.916L263.362 395.938L263.258 395.96L263.155 395.981L263.052 396.002L262.949 396.021L262.846 396.041L262.743 396.059L262.641 396.077L262.539 396.095L262.437 396.112L262.335 396.128L262.234 396.145L262.132 396.161L262.031 396.176L261.93 396.192L261.829 396.207L261.728 396.221L261.627 396.236L261.526 396.25L261.426 396.264L261.325 396.278L261.224 396.292L261.123 396.306L261.022 396.319L260.921 396.333L260.819 396.346L260.718 396.359L260.616 396.372L260.514 396.385L260.412 396.398L260.31 396.41L260.207 396.422L260.103 396.435L260 396.446L259.896 396.458L259.791 396.469L259.686 396.48L259.581 396.49L259.475 396.5L259.369 396.509L259.262 396.518L259.154 396.526L259.046 396.534L258.937 396.541L258.828 396.547L258.719 396.552L258.609 396.557L258.498 396.56L258.387 396.562L258.275 396.564L258.162 396.564L258.05 396.563L257.936 396.562L257.823 396.558L257.709 396.554L257.594 396.548L257.479 396.541L257.364 396.532L257.248 396.522L257.132 396.51L257.016 396.496L256.9 396.481L256.783 396.465L256.666 396.446L256.55 396.426L256.433 396.404L256.316 396.381L256.199 396.355L256.082 396.328L255.966 396.298L255.85 396.267L255.733 396.233L255.618 396.198L255.502 396.161L255.387 396.121L255.272 396.08L255.158 396.037L255.045 395.991L254.932 395.943L254.82 395.894L254.708 395.842L254.598 395.788L254.488 395.732L254.379 395.674L254.271 395.613L254.164 395.551L254.058 395.487L253.954 395.42L253.85 395.352L253.748 395.282L253.647 395.209L253.547 395.135L253.449 395.058L253.352 394.98L253.256 394.9L253.162 394.818L253.07 394.735L252.979 394.649L252.889 394.562L252.801 394.473L252.715 394.383L252.63 394.291L252.547 394.197L252.465 394.102L252.385 394.006L252.307 393.908L252.23 393.808L252.155 393.708L252.082 393.606L252.01 393.503L251.94 393.399L251.871 393.293L251.804 393.187L251.739 393.08L251.675 392.971L251.612 392.862L251.551 392.751L251.492 392.64L251.434 392.528L251.378 392.415L251.323 392.301L251.269 392.187L251.217 392.072L251.166 391.956L251.116 391.839L251.068 391.722L251.021 391.604L250.975 391.485L250.93 391.366L250.886 391.247L250.843 391.126L250.802 391.006L250.761 390.884L250.722 390.762L250.683 390.64L250.645 390.517L250.608 390.393L250.572 390.269L250.537 390.145L250.503 390.019L250.469 389.894L250.437 389.767L250.405 389.64L250.374 389.513L250.343 389.384L250.314 389.255L250.285 389.126L250.257 388.996L250.23 388.865L250.204 388.733L250.178 388.601L250.154 388.468L250.13 388.334L250.107 388.2L250.086 388.065L250.065 387.929L250.046 387.792L250.028 387.654L250.011 387.516L249.996 387.377L249.982 387.238L249.969 387.097L249.958 386.956L249.949 386.814L249.941 386.672L249.935 386.529L249.931 386.385L249.929 386.241L249.93 386.097L249.932 385.952L249.936 385.806L249.943 385.66L249.952 385.514L249.963 385.368L249.977 385.221L249.994 385.074L250.013 384.928L250.034 384.781L250.059 384.634L250.086 384.488L250.116 384.342L250.149 384.196L250.185 384.05L250.223 383.905L250.265 383.761L250.309 383.617L250.357 383.473L250.407 383.331L250.46 383.189L250.517 383.049L250.576 382.909L250.638 382.77L250.703 382.633L250.771 382.496L250.841 382.361L250.915 382.227L250.991 382.094L251.07 381.963L251.151 381.833L251.235 381.705L251.321 381.578L251.41 381.452L251.502 381.328L251.596 381.206L251.692 381.085L251.79 380.966L251.89 380.848L251.993 380.732L252.097 380.617L252.204 380.504L252.312 380.393L252.423 380.284L252.535 380.176L252.649 380.07L252.764 379.965L252.881 379.862L253 379.76L253.12 379.66L253.242 379.562L253.365 379.465L253.49 379.37L253.615 379.276L253.743 379.184L253.871 379.093L254 379.004L254.131 378.916L254.263 378.83L254.396 378.745L254.53 378.661L254.665 378.578L254.801 378.497L254.938 378.418L255.076 378.339L255.215 378.262L255.355 378.186L255.495 378.111L255.637 378.038L255.78 377.966L255.923 377.895L256.068 377.825L256.213 377.757L256.359 377.689L256.507 377.623L256.655 377.558L256.804 377.494L256.953 377.432L257.104 377.371L257.256 377.311L257.408 377.252L257.562 377.195L257.716 377.139L257.872 377.084L258.028 377.03L258.185 376.978L258.343 376.928L258.502 376.878L258.662 376.831L258.822 376.784L258.984 376.74L259.147 376.697L259.31 376.655L259.475 376.615L259.64 376.577L259.806 376.54L259.973 376.506L260.141 376.473L260.31 376.442L260.479 376.413L260.649 376.385L260.82 376.36L260.992 376.337L261.165 376.315L261.338 376.296L261.512 376.279L261.687 376.264L261.862 376.252L262.038 376.241L262.215 376.233L262.392 376.228L262.569 376.224L262.747 376.223L262.925 376.225L263.104 376.229L263.283 376.235L263.462 376.244L263.642 376.256L263.822 376.27L264.002 376.287L264.182 376.307L264.362 376.329L264.542 376.355L264.721 376.383L264.901 376.414L265.08 376.448L265.26 376.485L265.438 376.525L265.617 376.568L265.794 376.613L265.972 376.662L266.148 376.714L266.324 376.769L266.499 376.827L266.673 376.889L266.846 376.953L267.019 377.02L267.19 377.091L267.359 377.165L267.528 377.242L267.695 377.322L267.86 377.405L268.024 377.492L268.187 377.582L268.347 377.675L268.506 377.771L268.662 377.87L268.817 377.973L268.969 378.079L269.119 378.187L269.267 378.299L269.412 378.414L269.555 378.533L269.694 378.654L269.832 378.778L269.966 378.905L270.097 379.035L270.226 379.168L270.351 379.303L270.473 379.442L270.591 379.583L270.707 379.726L270.819 379.872L270.927 380.021L271.032 380.171L271.133 380.325L271.231 380.48L271.325 380.637L271.415 380.796L271.501 380.958L271.584 381.121L271.662 381.285L271.737 381.452L271.808 381.619L271.874 381.789L271.937 381.959L271.996 382.131L272.051 382.303L272.102 382.477L272.149 382.651L272.192 382.827L272.231 383.003L272.266 383.179L272.298 383.356L272.325 383.533L272.349 383.71L272.369 383.888L272.385 384.066L272.397 384.243L272.405 384.42L272.41 384.597L272.412 384.774L272.41 384.95L272.404 385.126L272.395 385.301L272.383 385.475L272.368 385.649L272.349 385.822L272.328 385.994L272.303 386.164L272.276 386.334L272.246 386.503L272.213 386.67L272.177 386.836L272.139 387.001L272.099 387.164L272.056 387.327L272.012 387.487L271.965 387.646L271.916 387.804L271.865 387.96L271.813 388.115L271.758 388.268L271.702 388.42L271.645 388.57L271.586 388.718L271.525 388.865" fill="#D9EAFF"/>
<path fill-rule="evenodd" clip-rule="evenodd" d="M105.855 594.088V594.088L105.793 594.233L105.73 594.377L105.666 594.519L105.601 594.659L105.534 594.798L105.467 594.936L105.399 595.071L105.329 595.206L105.259 595.338L105.188 595.469L105.116 595.599L105.043 595.727L104.969 595.854L104.894 595.979L104.819 596.103L104.743 596.225L104.666 596.346L104.588 596.465L104.51 596.583L104.431 596.699L104.351 596.814L104.27 596.928L104.188 597.04L104.106 597.151L104.023 597.26L103.939 597.368L103.854 597.474L103.768 597.579L103.682 597.682L103.595 597.784L103.507 597.885L103.418 597.984L103.329 598.081L103.238 598.177L103.147 598.272L103.055 598.365L102.962 598.456L102.869 598.546L102.774 598.634L102.679 598.721L102.583 598.806L102.487 598.89L102.39 598.972L102.292 599.053L102.193 599.131L102.094 599.209L101.994 599.285L101.893 599.359L101.792 599.431L101.691 599.502L101.589 599.572L101.486 599.639L101.383 599.706L101.28 599.771L101.176 599.834L101.072 599.895L100.967 599.956L100.863 600.014L100.757 600.072L100.652 600.127L100.547 600.181L100.441 600.234L100.335 600.286L100.229 600.336L100.123 600.384L100.017 600.431L99.9103 600.477L99.8039 600.521L99.6974 600.565L99.591 600.606L99.4846 600.647L99.3781 600.686L99.2718 600.724L99.1655 600.761L99.0592 600.796L98.9531 600.831L98.847 600.864L98.7411 600.896L98.6353 600.927L98.5297 600.957L98.4242 600.986L98.3189 601.014L98.2138 601.041L98.1089 601.067L98.0043 601.092L97.8998 601.116L97.7956 601.139L97.6916 601.162L97.5878 601.183L97.4843 601.204L97.381 601.225L97.278 601.245L97.1752 601.264L97.0726 601.282L96.9703 601.3L96.8681 601.318L96.7662 601.335L96.6645 601.352L96.5629 601.368L96.4615 601.384L96.3603 601.399L96.2592 601.415L96.1582 601.43L96.0573 601.445L95.9565 601.459L95.8556 601.473L95.7549 601.488L95.6541 601.502L95.5532 601.515L95.4523 601.529L95.3513 601.543L95.2501 601.556L95.1488 601.569L95.0473 601.582L94.9456 601.595L94.8437 601.608L94.7414 601.621L94.6389 601.633L94.536 601.646L94.4328 601.658L94.3291 601.669L94.2251 601.681L94.1206 601.692L94.0156 601.703L93.9102 601.713L93.8043 601.723L93.6978 601.732L93.5909 601.741L93.4834 601.75L93.3754 601.757L93.2668 601.764L93.1577 601.77L93.0481 601.775L92.9379 601.78L92.8271 601.783L92.7159 601.786L92.6041 601.787L92.4918 601.787L92.379 601.787L92.2657 601.785L92.152 601.781L92.0379 601.777L91.9233 601.771L91.8084 601.764L91.6931 601.755L91.5774 601.745L91.4615 601.733L91.3454 601.72L91.229 601.705L91.1125 601.688L90.9958 601.67L90.879 601.649L90.7622 601.628L90.6453 601.604L90.5285 601.578L90.4118 601.551L90.2953 601.521L90.1789 601.49L90.0628 601.457L89.9469 601.421L89.8315 601.384L89.7164 601.345L89.6018 601.303L89.4877 601.26L89.3742 601.214L89.2613 601.166L89.1491 601.117L89.0377 601.065L88.927 601.011L88.8173 600.955L88.7084 600.897L88.6005 600.837L88.4936 600.774L88.3878 600.71L88.2832 600.644L88.1797 600.575L88.0774 600.505L87.9764 600.432L87.8767 600.358L87.7783 600.282L87.6813 600.203L87.5858 600.123L87.4917 600.041L87.3991 599.958L87.308 599.872L87.2185 599.785L87.1305 599.696L87.0441 599.606L86.9593 599.514L86.8761 599.42L86.7945 599.325L86.7145 599.229L86.6362 599.131L86.5595 599.032L86.4844 598.931L86.411 598.829L86.3392 598.726L86.269 598.622L86.2004 598.517L86.1334 598.41L86.0679 598.303L86.004 598.194L85.9417 598.085L85.8808 597.974L85.8215 597.863L85.7636 597.751L85.7072 597.638L85.6521 597.524L85.5985 597.41L85.5462 597.295L85.4953 597.179L85.4456 597.062L85.3972 596.945L85.35 596.827L85.304 596.709L85.2592 596.59L85.2154 596.47L85.1728 596.35L85.1312 596.229L85.0906 596.107L85.0509 595.986L85.0123 595.863L84.9745 595.74L84.9377 595.617L84.9017 595.492L84.8666 595.368L84.8323 595.242L84.7988 595.117L84.7661 594.99L84.7342 594.863L84.7031 594.736L84.6728 594.607L84.6432 594.479L84.6144 594.349L84.5864 594.219L84.5593 594.088L84.5329 593.956L84.5075 593.824L84.4829 593.691L84.4593 593.557L84.4367 593.423L84.4151 593.288L84.3946 593.152L84.3753 593.015L84.3572 592.878L84.3404 592.739L84.3249 592.6L84.3109 592.461L84.2983 592.32L84.2874 592.179L84.278 592.038L84.2704 591.895L84.2646 591.752L84.2607 591.609L84.2588 591.464L84.2589 591.32L84.2611 591.175L84.2655 591.029L84.2722 590.883L84.2812 590.737L84.2927 590.591L84.3066 590.444L84.323 590.298L84.3421 590.151L84.3638 590.004L84.3882 589.857L84.4154 589.711L84.4454 589.565L84.4783 589.419L84.514 589.273L84.5526 589.128L84.5941 588.984L84.6386 588.84L84.686 588.697L84.7363 588.554L84.7896 588.413L84.8459 588.272L84.9051 588.132L84.9671 587.993L85.0321 587.856L85.0999 587.719L85.1705 587.584L85.2439 587.45L85.3201 587.318L85.3988 587.186L85.4803 587.056L85.5643 586.928L85.6508 586.801L85.7398 586.675L85.8312 586.551L85.9249 586.429L86.021 586.308L86.1192 586.189L86.2196 586.071L86.3222 585.955L86.4267 585.84L86.5333 585.728L86.6418 585.616L86.7521 585.507L86.8642 585.399L86.9781 585.293L87.0936 585.188L87.2108 585.085L87.3295 584.983L87.4497 584.884L87.5714 584.785L87.6945 584.688L87.819 584.593L87.9448 584.499L88.0719 584.407L88.2002 584.316L88.3297 584.227L88.4604 584.139L88.5922 584.053L88.7251 583.968L88.859 583.884L88.994 583.802L89.13 583.721L89.2671 583.641L89.405 583.562L89.544 583.485L89.6839 583.409L89.8247 583.335L89.9665 583.261L90.1091 583.189L90.2527 583.118L90.3972 583.048L90.5425 582.98L90.6888 582.912L90.836 582.846L90.984 582.781L91.133 582.718L91.2828 582.655L91.4336 582.594L91.5852 582.534L91.7378 582.475L91.8912 582.418L92.0456 582.362L92.2009 582.307L92.3571 582.254L92.5142 582.201L92.6722 582.151L92.8312 582.102L92.991 582.054L93.1518 582.008L93.3135 581.963L93.476 581.92L93.6395 581.878L93.8039 581.838L93.9692 581.8L94.1353 581.764L94.3023 581.729L94.4702 581.696L94.6389 581.665L94.8084 581.636L94.9787 581.608L95.1498 581.583L95.3217 581.56L95.4943 581.539L95.6676 581.519L95.8416 581.502L96.0163 581.488L96.1916 581.475L96.3675 581.465L96.5439 581.456L96.7209 581.451L96.8984 581.447L97.0763 581.446L97.2547 581.448L97.4334 581.452L97.6125 581.458L97.7918 581.467L97.9714 581.479L98.1511 581.493L98.331 581.51L98.511 581.53L98.6909 581.553L98.8709 581.578L99.0507 581.606L99.2303 581.637L99.4097 581.671L99.5889 581.708L99.7676 581.748L99.9459 581.791L100.124 581.837L100.301 581.885L100.478 581.937L100.653 581.992L100.828 582.05L101.003 582.112L101.176 582.176L101.348 582.244L101.519 582.314L101.689 582.388L101.857 582.465L102.024 582.545L102.19 582.629L102.354 582.715L102.516 582.805L102.676 582.898L102.835 582.994L102.992 583.093L103.146 583.196L103.298 583.302L103.448 583.411L103.596 583.523L103.741 583.638L103.884 583.756L104.024 583.877L104.161 584.001L104.295 584.128L104.427 584.258L104.555 584.391L104.68 584.527L104.802 584.665L104.921 584.806L105.036 584.949L105.148 585.095L105.256 585.244L105.361 585.395L105.463 585.548L105.56 585.703L105.654 585.86L105.744 586.02L105.83 586.181L105.913 586.344L105.991 586.509L106.066 586.675L106.137 586.843L106.204 587.012L106.267 587.182L106.325 587.354L106.38 587.526L106.431 587.7L106.478 587.875L106.521 588.05L106.561 588.226L106.596 588.402L106.627 588.579L106.654 588.756L106.678 588.934L106.698 589.111L106.714 589.289L106.726 589.466L106.735 589.643L106.74 589.821L106.741 589.997L106.739 590.173L106.733 590.349L106.725 590.524L106.712 590.699L106.697 590.872L106.678 591.045L106.657 591.217L106.632 591.388L106.605 591.557L106.575 591.726L106.542 591.893L106.507 592.059L106.469 592.224L106.428 592.388L106.386 592.55L106.341 592.71L106.294 592.87L106.245 593.027L106.194 593.184L106.142 593.338L106.088 593.491L106.032 593.643L105.974 593.793L105.915 593.941L105.855 594.088" fill="#D9EAFF"/>
<path fill-rule="evenodd" clip-rule="evenodd" d="M52.2261 550.159V550.159L52.4857 550.218L52.743 550.28L52.998 550.345L53.2507 550.412L53.5011 550.481L53.7492 550.553L53.995 550.627L54.2386 550.702L54.4799 550.78L54.7189 550.859L54.9556 550.941L55.1901 551.024L55.4223 551.109L55.6524 551.196L55.8802 551.285L56.1058 551.376L56.3292 551.468L56.5505 551.562L56.7695 551.657L56.9864 551.755L57.2011 551.854L57.4137 551.954L57.6241 552.057L57.8324 552.161L58.0384 552.267L58.2424 552.375L58.4441 552.484L58.6437 552.595L58.841 552.708L59.0362 552.823L59.2292 552.94L59.4199 553.058L59.6084 553.178L59.7946 553.3L59.9786 553.424L60.1602 553.549L60.3396 553.676L60.5166 553.805L60.6912 553.936L60.8635 554.068L61.0334 554.202L61.2009 554.338L61.366 554.476L61.5287 554.615L61.6889 554.755L61.8467 554.898L62.002 555.041L62.1549 555.186L62.3054 555.333L62.4533 555.481L62.5988 555.63L62.7419 555.78L62.8825 555.932L63.0206 556.085L63.1563 556.238L63.2896 556.393L63.4205 556.549L63.5489 556.706L63.675 556.864L63.7986 557.022L63.9199 557.181L64.0389 557.342L64.1555 557.502L64.2698 557.664L64.3818 557.826L64.4915 557.989L64.599 558.152L64.7043 558.316L64.8074 558.48L64.9083 558.644L65.007 558.809L65.1036 558.974L65.1982 559.14L65.2907 559.306L65.3811 559.472L65.4696 559.638L65.5561 559.805L65.6407 559.971L65.7234 560.138L65.8042 560.305L65.8833 560.471L65.9607 560.638L66.0364 560.805L66.1105 560.972L66.183 561.138L66.254 561.305L66.3235 561.471L66.3917 561.637L66.4585 561.803L66.524 561.969L66.5884 562.135L66.6516 562.3L66.7138 562.465L66.7749 562.63L66.8351 562.795L66.8944 562.959L66.9529 563.124L67.0107 563.288L67.0677 563.452L67.1241 563.616L67.1799 563.779L67.2352 563.943L67.2899 564.106L67.3443 564.27L67.3982 564.433L67.4518 564.596L67.5051 564.76L67.5581 564.923L67.6109 565.086L67.6634 565.25L67.7158 565.414L67.7679 565.578L67.8199 565.743L67.8716 565.907L67.9232 566.073L67.9746 566.238L68.0259 566.404L68.0769 566.571L68.1276 566.738L68.1781 566.907L68.2282 567.075L68.278 567.245L68.3274 567.415L68.3763 567.586L68.4246 567.759L68.4724 567.932L68.5194 568.106L68.5656 568.281L68.611 568.457L68.6555 568.634L68.6989 568.813L68.7412 568.992L68.7823 569.173L68.8222 569.355L68.8606 569.538L68.8976 569.722L68.933 569.907L68.9667 570.094L68.9987 570.282L69.0288 570.47L69.057 570.66L69.0832 570.851L69.1072 571.044L69.1291 571.237L69.1486 571.431L69.1657 571.626L69.1803 571.822L69.1924 572.019L69.2018 572.217L69.2085 572.416L69.2124 572.615L69.2134 572.815L69.2115 573.016L69.2065 573.217L69.1985 573.418L69.1872 573.621L69.1728 573.823L69.155 574.026L69.1339 574.228L69.1094 574.431L69.0815 574.634L69.05 574.837L69.015 575.04L68.9764 575.242L68.9342 575.444L68.8883 575.646L68.8388 575.847L68.7855 576.048L68.7285 576.247L68.6678 576.446L68.6034 576.645L68.5351 576.842L68.4632 577.038L68.3875 577.232L68.308 577.426L68.2249 577.618L68.138 577.809L68.0475 577.998L67.9533 578.186L67.8556 578.372L67.7542 578.556L67.6494 578.739L67.5411 578.919L67.4294 579.098L67.3143 579.274L67.1959 579.449L67.0743 579.621L66.9494 579.792L66.8215 579.96L66.6906 580.126L66.5567 580.289L66.4199 580.451L66.2803 580.61L66.138 580.766L65.993 580.921L65.8454 581.073L65.6954 581.223L65.5429 581.37L65.388 581.515L65.2309 581.658L65.0716 581.799L64.9102 581.937L64.7467 582.073L64.5813 582.206L64.4139 582.338L64.2446 582.467L64.0736 582.594L63.9009 582.719L63.7264 582.842L63.5504 582.963L63.3728 583.082L63.1937 583.199L63.0132 583.314L62.8312 583.427L62.6479 583.539L62.4633 583.648L62.2773 583.756L62.0901 583.863L61.9016 583.968L61.7119 584.071L61.521 584.173L61.3289 584.273L61.1356 584.372L60.9411 584.47L60.7455 584.566L60.5487 584.661L60.3507 584.755L60.1515 584.848L59.951 584.94L59.7494 585.03L59.5465 585.12L59.3424 585.208L59.1369 585.295L58.9302 585.381L58.7221 585.466L58.5126 585.55L58.3017 585.633L58.0894 585.714L57.8756 585.794L57.6604 585.873L57.4435 585.95L57.2252 586.026L57.0053 586.1L56.7838 586.172L56.5606 586.243L56.3359 586.312L56.1095 586.379L55.8816 586.443L55.6519 586.505L55.4207 586.565L55.1879 586.623L54.9535 586.677L54.7175 586.729L54.48 586.778L54.2411 586.824L54.0007 586.866L53.7589 586.906L53.5158 586.941L53.2714 586.973L53.0259 587.001L52.7792 587.026L52.5315 587.046L52.2828 587.062L52.0333 587.073L51.7831 587.08L51.5322 587.083L51.2807 587.081L51.0289 587.074L50.7767 587.063L50.5243 587.047L50.2718 587.025L50.0194 586.999L49.7671 586.968L49.5151 586.931L49.2635 586.889L49.0124 586.843L48.762 586.791L48.5123 586.734L48.2635 586.671L48.0156 586.604L47.7688 586.532L47.5233 586.454L47.2789 586.372L47.036 586.284L46.7945 586.192L46.5546 586.095L46.3163 585.993L46.0796 585.887L45.8447 585.776L45.6117 585.661L45.3805 585.541L45.1513 585.418L44.924 585.289L44.6988 585.157L44.4756 585.021L44.2546 584.881L44.0356 584.737L43.8188 584.59L43.6042 584.439L43.3917 584.284L43.1814 584.127L42.9734 583.965L42.7675 583.801L42.5638 583.634L42.3623 583.463L42.1629 583.29L41.9657 583.114L41.7707 582.935L41.5778 582.754L41.387 582.57L41.1982 582.384L41.0116 582.195L40.8269 582.004L40.6443 581.81L40.4637 581.614L40.285 581.416L40.1083 581.216L39.9334 581.014L39.7604 580.81L39.5893 580.604L39.4201 580.396L39.2526 580.186L39.087 579.974L38.9231 579.76L38.761 579.544L38.6007 579.326L38.4421 579.107L38.2852 578.886L38.1301 578.662L37.9768 578.437L37.8252 578.21L37.6754 577.982L37.5273 577.751L37.3811 577.519L37.2367 577.284L37.0941 577.048L36.9533 576.81L36.8145 576.57L36.6776 576.328L36.5427 576.084L36.4098 575.839L36.279 575.591L36.1503 575.341L36.0237 575.09L35.8994 574.836L35.7774 574.581L35.6577 574.323L35.5404 574.064L35.4255 573.802L35.3133 573.539L35.2036 573.274L35.0966 573.006L34.9923 572.737L34.8908 572.466L34.7923 572.193L34.6967 571.918L34.6041 571.641L34.5147 571.362L34.4285 571.082L34.3455 570.799L34.2658 570.515L34.1896 570.229L34.1168 569.941L34.0476 569.652L33.9821 569.361L33.9203 569.069L33.8622 568.775L33.808 568.48L33.7578 568.183L33.7116 567.884L33.6696 567.585L33.6317 567.284L33.5981 566.982L33.5689 566.679L33.5441 566.375L33.5238 566.071L33.5081 565.765L33.4971 565.458L33.4909 565.151L33.4894 564.843L33.4929 564.535L33.5013 564.227L33.5147 563.918L33.5333 563.609L33.5569 563.3L33.5859 562.991L33.6201 562.682L33.6596 562.374L33.7045 562.065L33.7548 561.758L33.8106 561.451L33.872 561.145L33.9389 560.84L34.0115 560.536L34.0897 560.233L34.1737 559.932L34.2634 559.632L34.3589 559.334L34.4602 559.038L34.5674 558.744L34.6804 558.452L34.7993 558.163L34.9241 557.876L35.0549 557.591L35.1915 557.31L35.334 557.031L35.4824 556.756L35.6366 556.484L35.7967 556.216L35.9625 555.951L36.134 555.691L36.3113 555.434L36.4941 555.182L36.6825 554.933L36.8763 554.69L37.0755 554.451L37.28 554.217L37.4897 553.988L37.7044 553.764L37.9241 553.545L38.1486 553.331L38.3778 553.123L38.6115 552.921L38.8497 552.724L39.0922 552.533L39.3387 552.348L39.5893 552.169L39.8436 551.996L40.1015 551.829L40.3629 551.668L40.6277 551.513L40.8955 551.364L41.1662 551.222L41.4398 551.086L41.7159 550.956L41.9944 550.833L42.2751 550.716L42.5579 550.606L42.8426 550.501L43.129 550.404L43.4168 550.312L43.706 550.227L43.9964 550.148L44.2877 550.075L44.5799 550.008L44.8727 549.948L45.1659 549.893L45.4595 549.845L45.7531 549.802L46.0467 549.765L46.3401 549.734L46.6332 549.708L46.9257 549.688L47.2175 549.673L47.5086 549.663L47.7987 549.659L48.0878 549.659L48.3756 549.664L48.6622 549.674L48.9473 549.689L49.2309 549.707L49.5128 549.73L49.7931 549.757L50.0715 549.788L50.3481 549.823L50.6227 549.861L50.8952 549.903L51.1657 549.948L51.4341 549.996L51.7003 550.047L51.9644 550.102L52.2261 550.159" fill="#D9EAFF"/>
<path fill-rule="evenodd" clip-rule="evenodd" d="M246.594 699.357V699.357L246.768 699.559L246.938 699.761L247.106 699.964L247.27 700.168L247.431 700.372L247.589 700.576L247.743 700.781L247.895 700.986L248.044 701.191L248.189 701.397L248.332 701.602L248.472 701.808L248.609 702.014L248.743 702.22L248.874 702.427L249.002 702.633L249.128 702.839L249.251 703.046L249.371 703.253L249.488 703.459L249.603 703.666L249.715 703.873L249.824 704.08L249.93 704.287L250.034 704.495L250.135 704.702L250.232 704.91L250.328 705.117L250.42 705.325L250.51 705.533L250.596 705.741L250.68 705.949L250.761 706.158L250.839 706.366L250.914 706.575L250.987 706.783L251.056 706.992L251.123 707.2L251.186 707.409L251.247 707.618L251.304 707.826L251.359 708.035L251.411 708.244L251.46 708.452L251.506 708.66L251.549 708.868L251.59 709.076L251.627 709.283L251.662 709.49L251.694 709.697L251.723 709.903L251.749 710.109L251.773 710.315L251.794 710.519L251.812 710.724L251.828 710.927L251.842 711.13L251.853 711.333L251.861 711.535L251.867 711.736L251.87 711.936L251.872 712.135L251.871 712.334L251.867 712.532L251.862 712.729L251.854 712.925L251.844 713.12L251.832 713.314L251.818 713.508L251.802 713.7L251.784 713.891L251.765 714.082L251.743 714.271L251.72 714.46L251.694 714.647L251.667 714.833L251.639 715.019L251.608 715.203L251.576 715.386L251.543 715.569L251.508 715.75L251.472 715.93L251.434 716.109L251.396 716.288L251.356 716.465L251.314 716.641L251.272 716.816L251.229 716.991L251.185 717.164L251.139 717.336L251.093 717.508L251.046 717.679L250.999 717.849L250.951 718.018L250.902 718.186L250.852 718.354L250.802 718.521L250.752 718.688L250.701 718.854L250.649 719.019L250.598 719.184L250.545 719.349L250.493 719.513L250.44 719.677L250.387 719.84L250.334 720.004L250.28 720.167L250.226 720.33L250.172 720.493L250.118 720.656L250.063 720.819L250.008 720.982L249.953 721.146L249.897 721.309L249.841 721.473L249.784 721.637L249.727 721.801L249.67 721.966L249.612 722.131L249.553 722.296L249.494 722.462L249.434 722.628L249.373 722.795L249.311 722.962L249.248 723.129L249.184 723.297L249.119 723.465L249.053 723.634L248.985 723.803L248.916 723.972L248.846 724.142L248.774 724.311L248.7 724.481L248.625 724.652L248.548 724.822L248.468 724.992L248.387 725.163L248.304 725.333L248.219 725.503L248.132 725.673L248.042 725.843L247.95 726.013L247.856 726.182L247.759 726.351L247.66 726.519L247.559 726.686L247.455 726.853L247.348 727.019L247.238 727.184L247.126 727.348L247.012 727.511L246.894 727.673L246.774 727.834L246.651 727.993L246.525 728.151L246.397 728.307L246.265 728.462L246.131 728.615L245.994 728.766L245.854 728.915L245.712 729.062L245.566 729.207L245.418 729.35L245.268 729.49L245.114 729.628L244.958 729.764L244.799 729.897L244.637 730.027L244.473 730.154L244.307 730.279L244.137 730.401L243.966 730.519L243.792 730.635L243.616 730.747L243.437 730.856L243.256 730.962L243.074 731.064L242.889 731.163L242.702 731.259L242.513 731.351L242.322 731.44L242.13 731.525L241.936 731.607L241.74 731.685L241.543 731.759L241.344 731.83L241.144 731.897L240.943 731.96L240.74 732.02L240.536 732.077L240.332 732.129L240.126 732.179L239.919 732.224L239.712 732.267L239.504 732.305L239.295 732.341L239.085 732.373L238.875 732.401L238.664 732.427L238.453 732.449L238.242 732.468L238.03 732.484L237.817 732.497L237.605 732.507L237.392 732.514L237.179 732.518L236.966 732.52L236.753 732.518L236.54 732.514L236.326 732.508L236.113 732.499L235.899 732.487L235.685 732.473L235.472 732.457L235.258 732.438L235.044 732.418L234.83 732.395L234.617 732.37L234.403 732.343L234.188 732.314L233.974 732.283L233.76 732.25L233.546 732.216L233.331 732.18L233.116 732.142L232.901 732.102L232.686 732.061L232.47 732.018L232.255 731.973L232.039 731.927L231.822 731.879L231.605 731.83L231.388 731.778L231.17 731.726L230.952 731.671L230.734 731.615L230.515 731.557L230.296 731.497L230.076 731.435L229.856 731.371L229.635 731.305L229.414 731.237L229.193 731.167L228.972 731.094L228.75 731.019L228.528 730.942L228.306 730.862L228.084 730.779L227.862 730.694L227.64 730.605L227.418 730.514L227.197 730.419L226.976 730.321L226.756 730.22L226.536 730.116L226.317 730.008L226.099 729.897L225.882 729.782L225.666 729.663L225.451 729.54L225.238 729.414L225.026 729.284L224.816 729.15L224.608 729.011L224.402 728.869L224.198 728.723L223.997 728.573L223.797 728.418L223.601 728.26L223.407 728.098L223.216 727.931L223.028 727.761L222.843 727.586L222.662 727.408L222.483 727.225L222.309 727.039L222.137 726.849L221.97 726.655L221.806 726.458L221.646 726.257L221.49 726.053L221.337 725.845L221.189 725.634L221.045 725.42L220.905 725.203L220.768 724.983L220.636 724.76L220.508 724.534L220.385 724.306L220.265 724.075L220.149 723.842L220.038 723.606L219.93 723.369L219.827 723.129L219.727 722.887L219.632 722.644L219.54 722.398L219.452 722.151L219.369 721.902L219.289 721.652L219.212 721.401L219.14 721.148L219.071 720.893L219.006 720.638L218.944 720.381L218.886 720.124L218.831 719.865L218.779 719.606L218.731 719.345L218.686 719.084L218.644 718.822L218.605 718.56L218.569 718.296L218.536 718.032L218.507 717.768L218.479 717.502L218.455 717.236L218.434 716.97L218.415 716.703L218.399 716.436L218.386 716.168L218.375 715.899L218.367 715.63L218.361 715.361L218.358 715.091L218.357 714.821L218.359 714.55L218.364 714.279L218.37 714.007L218.38 713.735L218.392 713.462L218.406 713.189L218.423 712.916L218.443 712.642L218.465 712.367L218.49 712.093L218.517 711.817L218.547 711.542L218.58 711.266L218.615 710.989L218.653 710.713L218.694 710.435L218.738 710.158L218.785 709.88L218.834 709.602L218.887 709.324L218.943 709.046L219.001 708.767L219.063 708.488L219.129 708.21L219.197 707.931L219.269 707.652L219.344 707.373L219.423 707.095L219.505 706.816L219.59 706.538L219.679 706.26L219.772 705.982L219.868 705.705L219.968 705.428L220.072 705.152L220.18 704.876L220.291 704.601L220.407 704.327L220.526 704.054L220.649 703.781L220.776 703.51L220.907 703.24L221.042 702.971L221.181 702.703L221.324 702.436L221.471 702.171L221.623 701.908L221.778 701.647L221.938 701.387L222.102 701.129L222.27 700.873L222.443 700.619L222.619 700.368L222.8 700.119L222.985 699.873L223.174 699.629L223.368 699.388L223.566 699.149L223.767 698.914L223.973 698.682L224.184 698.453L224.398 698.228L224.616 698.006L224.839 697.788L225.065 697.573L225.296 697.363L225.53 697.157L225.768 696.954L226.01 696.757L226.256 696.563L226.506 696.375L226.759 696.191L227.016 696.012L227.276 695.838L227.54 695.669L227.807 695.506L228.078 695.349L228.351 695.197L228.628 695.05L228.907 694.91L229.19 694.776L229.475 694.648L229.763 694.526L230.053 694.411L230.345 694.302L230.64 694.2L230.937 694.104L231.235 694.016L231.536 693.934L231.838 693.859L232.141 693.791L232.446 693.731L232.751 693.677L233.058 693.63L233.365 693.591L233.673 693.559L233.981 693.534L234.29 693.516L234.598 693.505L234.906 693.502L235.214 693.505L235.522 693.516L235.829 693.534L236.135 693.559L236.44 693.59L236.743 693.629L237.046 693.674L237.347 693.727L237.646 693.785L237.944 693.851L238.239 693.922L238.533 694L238.824 694.085L239.113 694.175L239.399 694.271L239.683 694.374L239.963 694.482L240.241 694.595L240.516 694.714L240.788 694.839L241.057 694.968L241.323 695.103L241.585 695.242L241.843 695.386L242.098 695.534L242.35 695.687L242.598 695.843L242.842 696.004L243.082 696.168L243.319 696.336L243.552 696.507L243.781 696.682L244.006 696.859L244.227 697.039L244.445 697.222L244.659 697.407L244.869 697.595L245.075 697.784L245.278 697.976L245.476 698.169L245.672 698.364L245.863 698.56L246.051 698.758L246.235 698.957L246.416 699.157L246.594 699.357" fill="#D9EAFF"/>
<path fill-rule="evenodd" clip-rule="evenodd" d="M401 102.749C361.094 108.441 336.187 121.724 316.578 140.44C303.633 152.795 293.199 167.377 282.445 182.406L282.433 182.421C280.723 184.811 279.005 187.212 277.268 189.617C264.446 207.364 250.051 226.142 228.926 244.992C186.907 282.489 149 288.272 121.9 278.856C144.46 257.256 157.417 231.35 154.84 200.879C151.957 166.779 125.954 149.616 100.861 152.024C88.4557 153.214 76.3813 159.192 67.8531 169.979C59.2906 180.809 54.7809 195.859 56.272 214.411C58.4354 241.329 71.2371 265.779 91.5512 281.595C85.1863 286.068 78.2167 290.385 70.6732 294.543C50.3648 305.739 26.4013 315.473 0 323.737V341.659C29.332 332.781 56.17 322.099 78.943 309.544C89.144 303.921 98.6472 297.847 107.242 291.315C110.128 292.699 113.114 293.934 116.195 295.008C150.834 307.083 195.113 298.124 240.331 257.773C262.843 237.685 278.095 217.722 291.153 199.648C292.969 197.134 294.734 194.671 296.462 192.259L296.471 192.246L296.488 192.223C307.318 177.105 316.717 163.986 328.405 152.831C344.472 137.495 365.298 125.543 401 120.06V102.749ZM105.578 270.624C87.2464 258.092 75.2754 237.042 73.3463 213.039C72.1408 198.04 75.8511 187.482 81.2902 180.603C86.7637 173.679 94.4724 169.845 102.497 169.075C118.263 167.562 135.706 177.888 137.772 202.322C139.926 227.792 128.411 250.602 105.578 270.624Z" fill="#B0D0FF"/>
</svg>
