<svg width="37" height="36" viewBox="0 0 37 36" fill="none" xmlns="http://www.w3.org/2000/svg">
<g id="Error circle">
<path id="Vector" fill-rule="evenodd" clip-rule="evenodd" d="M17.4629 6.57692C11.1536 6.57692 6.03981 11.6907 6.03981 18C6.03981 24.308 11.1537 29.4231 17.4629 29.4231C23.7722 29.4231 28.886 24.308 28.886 18C28.886 11.6907 23.7722 6.57692 17.4629 6.57692ZM3.96289 18C3.96289 10.5437 10.0066 4.5 17.4629 4.5C24.9192 4.5 30.9629 10.5437 30.9629 18C30.9629 25.4549 24.9193 31.5 17.4629 31.5C10.0065 31.5 3.96289 25.4549 3.96289 18Z" fill="#4E4F56"/>
<path id="Vector_2" fill-rule="evenodd" clip-rule="evenodd" d="M17.4555 11.8477C18.029 11.8477 18.4939 12.3126 18.4939 12.8861V18.8394C18.4939 19.4129 18.029 19.8778 17.4555 19.8778C16.8819 19.8778 16.417 19.4129 16.417 18.8394V12.8861C16.417 12.3126 16.8819 11.8477 17.4555 11.8477ZM17.4607 22.0764C18.0342 22.0764 18.4992 22.5414 18.4992 23.1149V23.181C18.4992 23.7545 18.0342 24.2194 17.4607 24.2194C16.8872 24.2194 16.4223 23.7545 16.4223 23.181V23.1149C16.4223 22.5414 16.8872 22.0764 17.4607 22.0764Z" fill="#4E4F56"/>
</g>
</svg>
