<svg width="32" height="32" viewBox="0 0 32 32" fill="none" xmlns="http://www.w3.org/2000/svg">
<g id="2 User">
<path id="Vector" fill-rule="evenodd" clip-rule="evenodd" d="M17.6334 16.9844C16.3503 16.9844 15.1352 17.2455 14.1133 17.677C17.7015 18.7217 20.2337 21.2085 20.2905 24.1041C22.1528 23.8543 24.1513 23.1616 24.1513 21.2312C24.1513 18.9261 21.1649 16.9844 17.6334 16.9844Z" fill="#2964E0"/>
<path id="Vector_2" fill-rule="evenodd" clip-rule="evenodd" d="M17.6015 15.3492H17.6356C20.0543 15.3492 22.0187 13.3848 22.0187 10.9661C22.0187 8.54746 20.0543 6.58301 17.6356 6.58301C17.1587 6.58301 16.7045 6.66249 16.273 6.79876C17.0565 7.95699 17.5107 9.35367 17.5107 10.8526C17.5107 12.4309 16.9997 13.8957 16.1367 15.088C16.5909 15.2583 17.0906 15.3492 17.6015 15.3492Z" fill="#2964E0"/>
<path id="Vector_3" fill-rule="evenodd" clip-rule="evenodd" d="M10.2858 18.8457C5.78691 18.8457 1.98633 21.3041 1.98633 24.2144C1.98633 27.5517 6.72258 27.9378 10.2858 27.9378C12.3388 27.9378 18.5853 27.9378 18.5853 24.1917C18.5853 21.2939 14.7847 18.8457 10.2858 18.8457Z" fill="#2964E0"/>
<path id="Vector_4" fill-rule="evenodd" clip-rule="evenodd" d="M10.2497 16.3809H10.2838C13.3304 16.3809 15.8081 13.9033 15.8081 10.8578C15.8081 7.8112 13.3304 5.3335 10.2838 5.3335C7.23946 5.3335 4.76176 7.8112 4.76176 10.8555C4.75608 12.326 5.32271 13.7102 6.35944 14.7537C7.39616 15.7973 8.77696 16.3752 10.2497 16.3809Z" fill="#2964E0"/>
<path id="Vector_5" fill-rule="evenodd" clip-rule="evenodd" d="M28.4998 9.82799H27.0271V8.40291C27.0271 7.9328 26.6455 7.55127 26.1754 7.55127C25.7053 7.55127 25.3238 7.9328 25.3238 8.40291V9.82799H23.8555C23.3854 9.82799 23.0039 10.2095 23.0039 10.6796C23.0039 11.1498 23.3854 11.5313 23.8555 11.5313H25.3238V12.9564C25.3238 13.4265 25.7053 13.808 26.1754 13.808C26.6455 13.808 27.0271 13.4265 27.0271 12.9564V11.5313H28.4998C28.9699 11.5313 29.3515 11.1498 29.3515 10.6796C29.3515 10.2095 28.9699 9.82799 28.4998 9.82799Z" fill="#2964E0"/>
</g>
</svg>
