<svg width="17" height="17" viewBox="0 0 17 17" fill="none" xmlns="http://www.w3.org/2000/svg">
<g id="2 User">
<path id="Vector" fill-rule="evenodd" clip-rule="evenodd" d="M11.11 8.70459C10.3385 8.70459 9.6079 8.85792 8.99341 9.11126C11.151 9.72459 12.6735 11.1846 12.7077 12.8846C13.8274 12.7379 15.0291 12.3313 15.0291 11.1979C15.0291 9.84459 13.2334 8.70459 11.11 8.70459Z" fill="#090909"/>
<path id="Vector_2" fill-rule="evenodd" clip-rule="evenodd" d="M11.8063 7.64663H11.8268C13.2811 7.64663 14.4623 6.49333 14.4623 5.07333C14.4623 3.65333 13.2811 2.5 11.8268 2.5C11.54 2.5 11.2669 2.54667 11.0075 2.62667C11.4786 3.30667 11.7517 4.12667 11.7517 5.00667C11.7517 5.93333 11.4444 6.79333 10.9255 7.4933C11.1986 7.5933 11.4991 7.64663 11.8063 7.64663Z" fill="#090909"/>
<path id="Vector_3" fill-rule="evenodd" clip-rule="evenodd" d="M6.35462 9.8335C3.64949 9.8335 1.36426 11.2768 1.36426 12.9855C1.36426 14.9448 4.21209 15.1715 6.35462 15.1715C7.58904 15.1715 11.345 15.1715 11.345 12.9722C11.345 11.2708 9.05972 9.8335 6.35462 9.8335Z" fill="#090909"/>
<path id="Vector_4" fill-rule="evenodd" clip-rule="evenodd" d="M6.71245 8.35023H6.73293C8.56481 8.35023 10.0546 6.89559 10.0546 5.10759C10.0546 3.31892 8.56481 1.86426 6.73293 1.86426C4.90243 1.86426 3.41262 3.31892 3.41262 5.10626C3.40921 5.96959 3.74991 6.78226 4.37328 7.3949C4.99665 8.00756 5.8269 8.3469 6.71245 8.35023Z" fill="#090909"/>
</g>
</svg>
