<svg width="16" height="16" viewBox="0 0 16 16" fill="none" xmlns="http://www.w3.org/2000/svg">
<g id="fa6-solid:star-of-life">
<path id="Vector" d="M6.76912 2.8125C6.76912 2.36309 7.13582 2 7.58971 2H8.41029C8.86418 2 9.23088 2.36309 9.23088 2.8125V6.39004L12.3594 4.60254C12.7517 4.3791 13.2543 4.51113 13.48 4.89961L13.8903 5.60293C14.1159 5.99141 13.9826 6.48906 13.5903 6.7125L10.4618 8.5L13.5903 10.2875C13.9826 10.5109 14.1159 11.0086 13.8903 11.3971L13.48 12.1004C13.2543 12.4889 12.7517 12.6234 12.3594 12.3975L9.23088 10.61V14.1875C9.23088 14.6369 8.86418 15 8.41029 15H7.58971C7.13582 15 6.76912 14.6369 6.76912 14.1875V10.61L3.64062 12.4C3.24828 12.6234 2.74567 12.4914 2.52001 12.1029L2.10971 11.3996C1.88405 11.0111 2.0174 10.5135 2.40974 10.29L5.53823 8.5L2.40974 6.7125C2.0174 6.48906 1.88405 5.99141 2.10971 5.60293L2.52001 4.89961C2.74567 4.50859 3.24828 4.37656 3.64062 4.6L6.76912 6.3875V2.8125Z" fill="#393A3F"/>
</g>
</svg>
