<svg width="36" height="36" viewBox="0 0 36 36" fill="none" xmlns="http://www.w3.org/2000/svg">
<g id="Lock">
<g id="Iconly/Bold/Lock">
<g id="Lock_2">
<path id="Vector" d="M17.9771 3C22.5802 3 26.2841 6.62218 26.2841 11.094V13.394C28.8676 14.2004 30.75 16.5392 30.75 19.3326V26.7379C30.75 30.1962 27.883 33 24.3483 33H11.6532C8.11703 33 5.25 30.1962 5.25 26.7379V19.3326C5.25 16.5392 7.13392 14.2004 9.71593 13.394V11.094C9.73117 6.62218 13.435 3 17.9771 3ZM17.9924 20.0764C17.2608 20.0764 16.6663 20.6578 16.6663 21.3732V24.6824C16.6663 25.4128 17.2608 25.9941 17.9924 25.9941C18.7392 25.9941 19.3337 25.4128 19.3337 24.6824V21.3732C19.3337 20.6578 18.7392 20.0764 17.9924 20.0764ZM18.0076 5.60857C14.9135 5.60857 12.3985 8.05317 12.3833 11.0642V13.0706H23.6167V11.094C23.6167 8.06807 21.1018 5.60857 18.0076 5.60857Z" fill="#2964E0"/>
</g>
</g>
</g>
</svg>
