<svg width="18" height="18" viewBox="0 0 18 18" fill="none" xmlns="http://www.w3.org/2000/svg">
<g id="Iconly/Light-Outline/Plus">
<g id="Plus">
<path id="Combined-Shape" fill-rule="evenodd" clip-rule="evenodd" d="M8.59961 0C9.40573 0 10.06 0.654244 10.06 1.46037V7.13184L15.7389 7.13223C16.545 7.13223 17.1992 7.78648 17.1992 8.5926C17.1992 9.39872 16.545 10.053 15.7389 10.053L10.06 10.0526V15.7272C10.06 16.5333 9.40573 17.1875 8.59961 17.1875C7.79349 17.1875 7.13924 16.5333 7.13924 15.7272V10.0526L1.46037 10.053C0.652297 10.053 0 9.39872 0 8.5926C0 7.78648 0.652297 7.13223 1.46037 7.13223L7.13924 7.13184V1.46037C7.13924 0.654244 7.79349 0 8.59961 0Z" fill="#2964E0"/>
</g>
</g>
</svg>
