<svg width="32" height="32" viewBox="0 0 32 32" fill="none" xmlns="http://www.w3.org/2000/svg">
<g id="mi:filter">
<path id="Vector" d="M11.9997 6.66676C11.6461 6.66676 11.3069 6.80724 11.0569 7.05728C10.8068 7.30733 10.6663 7.64647 10.6663 8.00009C10.6663 8.35372 10.8068 8.69285 11.0569 8.9429C11.3069 9.19295 11.6461 9.33343 11.9997 9.33343C12.3533 9.33343 12.6924 9.19295 12.9425 8.9429C13.1925 8.69285 13.333 8.35372 13.333 8.00009C13.333 7.64647 13.1925 7.30733 12.9425 7.05728C12.6924 6.80724 12.3533 6.66676 11.9997 6.66676ZM8.22634 6.66676C8.50181 5.88605 9.01266 5.21001 9.68847 4.73181C10.3643 4.25362 11.1718 3.99683 11.9997 3.99683C12.8276 3.99683 13.6351 4.25362 14.3109 4.73181C14.9867 5.21001 15.4975 5.88605 15.773 6.66676H25.333C25.6866 6.66676 26.0258 6.80724 26.2758 7.05728C26.5259 7.30733 26.6663 7.64647 26.6663 8.00009C26.6663 8.35372 26.5259 8.69285 26.2758 8.9429C26.0258 9.19295 25.6866 9.33343 25.333 9.33343H15.773C15.4975 10.1141 14.9867 10.7902 14.3109 11.2684C13.6351 11.7466 12.8276 12.0034 11.9997 12.0034C11.1718 12.0034 10.3643 11.7466 9.68847 11.2684C9.01266 10.7902 8.50181 10.1141 8.22634 9.33343H6.66634C6.31272 9.33343 5.97358 9.19295 5.72353 8.9429C5.47348 8.69285 5.33301 8.35372 5.33301 8.00009C5.33301 7.64647 5.47348 7.30733 5.72353 7.05728C5.97358 6.80724 6.31272 6.66676 6.66634 6.66676H8.22634ZM19.9997 14.6668C19.6461 14.6668 19.3069 14.8072 19.0569 15.0573C18.8068 15.3073 18.6663 15.6465 18.6663 16.0001C18.6663 16.3537 18.8068 16.6929 19.0569 16.9429C19.3069 17.193 19.6461 17.3334 19.9997 17.3334C20.3533 17.3334 20.6924 17.193 20.9425 16.9429C21.1925 16.6929 21.333 16.3537 21.333 16.0001C21.333 15.6465 21.1925 15.3073 20.9425 15.0573C20.6924 14.8072 20.3533 14.6668 19.9997 14.6668ZM16.2263 14.6668C16.5018 13.8861 17.0127 13.21 17.6885 12.7318C18.3643 12.2536 19.1718 11.9968 19.9997 11.9968C20.8276 11.9968 21.6351 12.2536 22.3109 12.7318C22.9867 13.21 23.4975 13.8861 23.773 14.6668H25.333C25.6866 14.6668 26.0258 14.8072 26.2758 15.0573C26.5259 15.3073 26.6663 15.6465 26.6663 16.0001C26.6663 16.3537 26.5259 16.6929 26.2758 16.9429C26.0258 17.193 25.6866 17.3334 25.333 17.3334H23.773C23.4975 18.1141 22.9867 18.7902 22.3109 19.2684C21.6351 19.7466 20.8276 20.0034 19.9997 20.0034C19.1718 20.0034 18.3643 19.7466 17.6885 19.2684C17.0127 18.7902 16.5018 18.1141 16.2263 17.3334H6.66634C6.31272 17.3334 5.97358 17.193 5.72353 16.9429C5.47348 16.6929 5.33301 16.3537 5.33301 16.0001C5.33301 15.6465 5.47348 15.3073 5.72353 15.0573C5.97358 14.8072 6.31272 14.6668 6.66634 14.6668H16.2263ZM11.9997 22.6668C11.6461 22.6668 11.3069 22.8072 11.0569 23.0573C10.8068 23.3073 10.6663 23.6465 10.6663 24.0001C10.6663 24.3537 10.8068 24.6929 11.0569 24.9429C11.3069 25.193 11.6461 25.3334 11.9997 25.3334C12.3533 25.3334 12.6924 25.193 12.9425 24.9429C13.1925 24.6929 13.333 24.3537 13.333 24.0001C13.333 23.6465 13.1925 23.3073 12.9425 23.0573C12.6924 22.8072 12.3533 22.6668 11.9997 22.6668ZM8.22634 22.6668C8.50181 21.8861 9.01266 21.21 9.68847 20.7318C10.3643 20.2536 11.1718 19.9968 11.9997 19.9968C12.8276 19.9968 13.6351 20.2536 14.3109 20.7318C14.9867 21.21 15.4975 21.8861 15.773 22.6668H25.333C25.6866 22.6668 26.0258 22.8072 26.2758 23.0573C26.5259 23.3073 26.6663 23.6465 26.6663 24.0001C26.6663 24.3537 26.5259 24.6929 26.2758 24.9429C26.0258 25.193 25.6866 25.3334 25.333 25.3334H15.773C15.4975 26.1141 14.9867 26.7902 14.3109 27.2684C13.6351 27.7466 12.8276 28.0034 11.9997 28.0034C11.1718 28.0034 10.3643 27.7466 9.68847 27.2684C9.01266 26.7902 8.50181 26.1141 8.22634 25.3334H6.66634C6.31272 25.3334 5.97358 25.193 5.72353 24.9429C5.47348 24.6929 5.33301 24.3537 5.33301 24.0001C5.33301 23.6465 5.47348 23.3073 5.72353 23.0573C5.97358 22.8072 6.31272 22.6668 6.66634 22.6668H8.22634Z" fill="#E6F3FF"/>
</g>
</svg>
