<svg width="48" height="48" viewBox="0 0 48 48" fill="none" xmlns="http://www.w3.org/2000/svg">
<g id="2 User">
<path id="Vector" fill-rule="evenodd" clip-rule="evenodd" d="M32.5394 24.6143C30.2794 24.6143 28.1394 25.0743 26.3394 25.8343C32.6594 27.6743 37.1194 32.0543 37.2194 37.1543C40.4994 36.7143 44.0194 35.4943 44.0194 32.0943C44.0194 28.0343 38.7594 24.6143 32.5394 24.6143Z" fill="#2964E0"/>
<path id="Vector_2" fill-rule="evenodd" clip-rule="evenodd" d="M34.58 21.44H34.64C38.9 21.44 42.36 17.9801 42.36 13.7201C42.36 9.46012 38.9 6.00012 34.64 6.00012C33.8 6.00012 33 6.14012 32.24 6.38012C33.62 8.42012 34.42 10.8801 34.42 13.5201C34.42 16.3001 33.52 18.8801 32 20.98C32.8 21.28 33.68 21.44 34.58 21.44Z" fill="#2964E0"/>
<path id="Vector_3" fill-rule="evenodd" clip-rule="evenodd" d="M18.618 28C10.694 28 4 32.33 4 37.456C4 43.334 12.342 44.014 18.618 44.014C22.2339 44.014 33.2359 44.014 33.2359 37.416C33.2359 32.312 26.5419 28 18.618 28Z" fill="#2964E0"/>
<path id="Vector_4" fill-rule="evenodd" clip-rule="evenodd" d="M19.6661 23.5511H19.7261C25.0921 23.5511 29.4561 19.1871 29.4561 13.8231C29.4561 8.45714 25.0921 4.09314 19.7261 4.09314C14.3641 4.09314 10.0001 8.45714 10.0001 13.8191C9.99007 16.4091 10.9881 18.8471 12.8141 20.6851C14.6401 22.5231 17.0721 23.5411 19.6661 23.5511Z" fill="#2964E0"/>
</g>
</svg>
