<svg width="73" height="86" viewBox="0 0 73 86" fill="none" xmlns="http://www.w3.org/2000/svg">
<g clip-path="url(#clip0_203_792)">
<path d="M80.9609 18.1406H78.6094V15.7891C78.6094 13.0105 76.3489 10.75 73.5703 10.75H69.5391V8.73438C69.5391 5.77057 67.1279 3.35938 64.1641 3.35938C61.2003 3.35938 58.7891 5.77057 58.7891 8.73438V10.75H44.6797V8.73438C44.6797 5.77057 42.2685 3.35938 39.3047 3.35938C36.3409 3.35938 33.9297 5.77057 33.9297 8.73438V10.75H19.8203V8.73438C19.8203 5.77057 17.4091 3.35938 14.4453 3.35938C11.4815 3.35938 9.07031 5.77057 9.07031 8.73438V10.75H5.03906C2.26052 10.75 0 13.0105 0 15.7891V70.2109C0 72.9895 2.26052 75.25 5.03906 75.25H7.39062V77.6016C7.39062 80.3801 9.65115 82.6406 12.4297 82.6406H80.9609C83.7395 82.6406 86 80.3801 86 77.6016V23.1797C86 20.4011 83.7395 18.1406 80.9609 18.1406ZM62.1484 8.73438C62.1484 7.62293 63.0526 6.71875 64.1641 6.71875C65.2755 6.71875 66.1797 7.62293 66.1797 8.73438V16.125C66.1797 17.2364 65.2755 18.1406 64.1641 18.1406C63.0526 18.1406 62.1484 17.2364 62.1484 16.125V8.73438ZM37.2891 8.73438C37.2891 7.62293 38.1932 6.71875 39.3047 6.71875C40.4161 6.71875 41.3203 7.62293 41.3203 8.73438V16.125C41.3203 17.2364 40.4161 18.1406 39.3047 18.1406C38.1932 18.1406 37.2891 17.2364 37.2891 16.125V8.73438ZM12.4297 8.73438C12.4297 7.62293 13.3339 6.71875 14.4453 6.71875C15.5568 6.71875 16.4609 7.62293 16.4609 8.73438V16.125C16.4609 17.2364 15.5568 18.1406 14.4453 18.1406C13.3339 18.1406 12.4297 17.2364 12.4297 16.125V8.73438ZM5.03906 14.1094H9.07031V16.125C9.07031 19.0888 11.4815 21.5 14.4453 21.5C17.4091 21.5 19.8203 19.0888 19.8203 16.125V14.1094H33.9297V16.125C33.9297 19.0888 36.3409 21.5 39.3047 21.5C42.2685 21.5 44.6797 19.0888 44.6797 16.125V14.1094H58.7891V16.125C58.7891 19.0888 61.2003 21.5 64.1641 21.5C67.1279 21.5 69.5391 19.0888 69.5391 16.125V14.1094H73.5703C74.4965 14.1094 75.25 14.8629 75.25 15.7891V30.9062H3.35938V15.7891C3.35938 14.8629 4.11288 14.1094 5.03906 14.1094ZM82.6406 77.6016C82.6406 78.5277 81.8871 79.2812 80.9609 79.2812H12.4297C11.5035 79.2812 10.75 78.5277 10.75 77.6016V75.25H31.7461C32.6738 75.25 33.4258 74.4978 33.4258 73.5703C33.4258 72.6428 32.6738 71.8906 31.7461 71.8906H5.03906C4.11288 71.8906 3.35938 71.1371 3.35938 70.2109V34.2656H75.25V70.2109C75.25 71.1371 74.4965 71.8906 73.5703 71.8906H46.8633C45.9356 71.8906 45.1836 72.6428 45.1836 73.5703C45.1836 74.4978 45.9356 75.25 46.8633 75.25H73.5703C76.3489 75.25 78.6094 72.9895 78.6094 70.2109V21.5H80.9609C81.8871 21.5 82.6406 22.2535 82.6406 23.1797V77.6016Z" fill="#B0D0FF"/>
<path d="M45.4622 65C45.2164 65 44.9699 64.9414 44.7441 64.8226L39 61.7996L33.2559 64.8226C32.736 65.0961 32.1058 65.0505 31.6304 64.7049C31.155 64.3592 30.917 63.7735 31.0164 63.1938L32.1134 56.7909L27.4662 52.2565C27.0455 51.846 26.894 51.2319 27.0756 50.6726C27.2572 50.1133 27.7402 49.7055 28.3217 49.6208L34.7439 48.6868L37.6159 42.8612C37.8758 42.3339 38.4124 42 39 42C39.5875 42 40.124 42.3339 40.3841 42.8612L43.2561 48.6868L49.6783 49.6208C50.2598 49.7055 50.7429 50.1133 50.9244 50.6726C51.106 51.2319 50.9545 51.846 50.5338 52.2565L45.8866 56.7909L46.9836 63.1938C47.083 63.7735 46.845 64.3592 46.3696 64.7049C46.1007 64.9003 45.7821 65 45.4622 65Z" fill="#FFF0A1"/>
<path d="M45.5559 65.3867C45.8016 65.5159 46.0698 65.5796 46.3372 65.5796C46.6854 65.5796 47.0321 65.4712 47.3247 65.2588C47.8421 64.883 48.1011 64.2462 47.9929 63.616L46.7992 56.6556L51.8562 51.7262C52.3141 51.2799 52.4789 50.6124 52.2813 50.0043C52.0838 49.3963 51.5581 48.953 50.9253 48.861L43.9366 47.8456L40.8112 41.5127C40.5282 40.9394 39.9444 40.5764 39.3051 40.5764C38.6656 40.5764 38.0818 40.9394 37.7989 41.5127L34.6735 47.8456L27.6848 48.861C27.0521 48.953 26.5265 49.3963 26.3288 50.0043C26.1313 50.6124 26.2961 51.2799 26.7539 51.7262L31.811 56.6556L30.6172 63.616C30.509 64.2462 30.7681 64.883 31.2854 65.2588C31.8027 65.6345 32.4886 65.684 33.0543 65.3867L39.3051 62.1004L45.5559 65.3867ZM34.5035 60.8294L35.2713 56.3531C35.3649 55.8082 35.1841 55.2522 34.7882 54.8664L31.536 51.6963L36.0305 51.0432C36.5776 50.9636 37.0506 50.6199 37.2952 50.1243L39.3051 46.0517L41.315 50.1244C41.5597 50.6201 42.0325 50.9638 42.5796 51.0434L47.0741 51.6964L43.8219 54.8665C43.426 55.2525 43.2453 55.8083 43.3388 56.3532L44.1066 60.8296L40.0866 58.716C39.8421 58.5874 39.5735 58.523 39.3051 58.523C39.0365 58.523 38.7681 58.5874 38.5235 58.716L34.5035 60.8294Z" fill="#B0D0FF"/>
<path d="M39.3047 71.8906C38.8629 71.8906 38.4296 72.0702 38.1171 72.3828C37.8047 72.6952 37.625 73.1286 37.625 73.5703C37.625 74.0121 37.8047 74.4454 38.1171 74.7577C38.4296 75.0701 38.8629 75.25 39.3047 75.25C39.7464 75.25 40.1798 75.0703 40.4922 74.7577C40.8046 74.4454 40.9844 74.0121 40.9844 73.5703C40.9844 73.1286 40.8046 72.6952 40.4922 72.3828C40.1798 72.0702 39.7464 71.8906 39.3047 71.8906Z" fill="#B0D0FF"/>
</g>
<defs>
<clipPath id="clip0_203_792">
<rect width="86" height="86" fill="white"/>
</clipPath>
</defs>
</svg>
