<svg width="80" height="94" viewBox="0 0 80 94" fill="none" xmlns="http://www.w3.org/2000/svg">
<g clip-path="url(#clip0_203_802)">
<circle cx="47" cy="50" r="6" fill="#FFF0A1"/>
<path d="M36.4341 34.0218C36.7336 34.2224 37.0932 34.3333 37.4531 34.332C37.8127 34.3337 38.1737 34.2212 38.472 34.0218C39.8233 33.1392 39.3984 30.9963 37.8111 30.6971C35.8494 30.324 34.7838 32.8985 36.4341 34.0218Z" fill="#B0D0FF"/>
<path d="M74.7227 85.7498H83.5352C84.5491 85.7498 85.3711 84.9277 85.3711 83.9139V70.6951C85.3711 69.6813 84.5491 68.8592 83.5352 68.8592H74.7227C73.7087 68.8592 72.8867 69.6813 72.8867 70.6951V83.9139C72.8867 84.9279 73.7087 85.7498 74.7227 85.7498ZM76.5586 72.5311H81.6992V82.0779H76.5586V72.5311Z" fill="#B0D0FF"/>
<path d="M47 58.3641C51.7477 58.3641 55.6104 54.5017 55.6104 49.7539C55.6104 45.0062 51.7477 41.1437 47 41.1437C42.2523 41.1437 38.3896 45.0062 38.3896 49.7539C38.3896 54.5017 42.2523 58.3641 47 58.3641ZM47 44.8156C49.7231 44.8156 51.9385 47.0309 51.9385 49.7539C51.9385 52.477 49.7231 54.6922 47 54.6922C44.2769 54.6922 42.0615 52.477 42.0615 49.7539C42.0615 47.0309 44.2769 44.8156 47 44.8156Z" fill="#B0D0FF"/>
<path d="M92.1641 52.5311H67.9297V42.043C67.9297 41.5561 67.7362 41.0892 67.3919 40.7448L48.8359 22.1886V17.3059H61.6875C62.7015 17.3059 63.5234 16.4838 63.5234 15.47V5.55591C63.5234 4.54211 62.7015 3.71998 61.6875 3.71998H48.8359V1.83594C48.8359 0.822133 48.014 0 47 0C45.986 0 45.1641 0.822133 45.1641 1.83594V22.1886L41.9969 25.3559C41.28 26.0729 41.28 27.2354 41.9969 27.9525C42.7138 28.6693 43.8763 28.6693 44.5933 27.9525L47 25.5458L64.2578 42.8036V90.3281H56.5702V69.6529C56.5702 68.6391 55.7482 67.817 54.7343 67.817H39.3124C38.2984 67.817 37.4764 68.6391 37.4764 69.6529V90.3281H29.7422V42.8034L32.9094 39.6362C33.6263 38.9193 33.6263 37.7568 32.9094 37.0397C32.1924 36.3229 31.0299 36.3229 30.313 37.0397L26.6081 40.7448C26.2638 41.0892 26.0703 41.5561 26.0703 42.043V52.5311H1.83594C0.821949 52.5311 0 53.3533 0 54.3671V92.1641C0 93.1779 0.821949 94 1.83594 94H92.1641C93.178 94 94 93.1779 94 92.1641V54.3671C94 53.3531 93.178 52.5311 92.1641 52.5311ZM48.8359 7.39185H59.8516V13.634H48.8359V7.39185ZM26.0703 90.3281H3.67188V64.2811H26.0703V90.3281ZM26.0703 60.6093H3.67188V56.203H26.0703V60.6093ZM52.8983 90.3281H41.1483V71.4888H52.8983V90.3281ZM90.3281 90.3281H67.9297V64.2811H90.3281V90.3281ZM90.3281 60.6093H67.9297V56.203H90.3281V60.6093Z" fill="#B0D0FF"/>
<path d="M10.4648 85.7498H19.2773C20.2913 85.7498 21.1133 84.9277 21.1133 83.9139V70.6951C21.1133 69.6813 20.2913 68.8592 19.2773 68.8592H10.4648C9.45086 68.8592 8.62891 69.6813 8.62891 70.6951V83.9139C8.62891 84.9279 9.45086 85.7498 10.4648 85.7498ZM12.3008 72.5311H17.4414V82.0779H12.3008V72.5311Z" fill="#B0D0FF"/>
</g>
<defs>
<clipPath id="clip0_203_802">
<rect width="94" height="94" fill="white"/>
</clipPath>
</defs>
</svg>
