<svg width="45" height="45" viewBox="0 0 45 45" fill="none" xmlns="http://www.w3.org/2000/svg">
<g id="bi:check">
<path id="Vector" d="M30.7348 14.1048C31.1169 13.7411 31.6252 13.54 32.1527 13.544C32.6801 13.548 33.1854 13.7567 33.5618 14.1262C33.9383 14.4956 34.1565 14.9968 34.1705 15.5241C34.1844 16.0514 33.993 16.5634 33.6365 16.9522L22.8162 30.4844C22.6301 30.6848 22.4056 30.8457 22.156 30.9573C21.9063 31.0689 21.6367 31.1291 21.3633 31.1341C21.0899 31.1392 20.8183 31.0891 20.5647 30.9868C20.3111 30.8844 20.0807 30.732 19.8874 30.5387L12.7118 23.3631C12.512 23.1769 12.3517 22.9523 12.2405 22.7028C12.1294 22.4533 12.0696 22.184 12.0648 21.9109C12.06 21.6378 12.1102 21.3666 12.2125 21.1133C12.3148 20.8601 12.467 20.63 12.6602 20.4369C12.8533 20.2437 13.0834 20.0915 13.3366 19.9892C13.5899 19.8869 13.8611 19.8366 14.1342 19.8415C14.4073 19.8463 14.6766 19.9061 14.9261 20.0172C15.1756 20.1284 15.4002 20.2887 15.5864 20.4885L21.265 26.1644L30.6833 14.1644L30.7348 14.1048Z" fill="white"/>
</g>
</svg>
