<svg width="16" height="17" viewBox="0 0 16 17" fill="none" xmlns="http://www.w3.org/2000/svg">
<g id="Bookmark">
<path id="Vector" fill-rule="evenodd" clip-rule="evenodd" d="M10.4515 7.14599H5.88149C5.60549 7.14599 5.38149 6.92199 5.38149 6.64599C5.38149 6.36999 5.60549 6.14599 5.88149 6.14599H10.4515C10.7275 6.14599 10.9515 6.36999 10.9515 6.64599C10.9515 6.92199 10.7275 7.14599 10.4515 7.14599ZM13.4795 9.16065L13.4775 7.78665C13.4775 2.72398 12.6835 1.83398 8.16683 1.83398C3.65016 1.83398 2.85616 2.72398 2.85616 7.78665L2.85416 9.16065C2.84816 12.9107 2.84549 14.3147 3.41816 14.8873C3.60349 15.0733 3.84949 15.1673 4.14882 15.1673C4.78549 15.1673 5.49349 14.5627 6.24349 13.922C6.9075 13.3547 7.66016 12.712 8.16683 12.712C8.6735 12.712 9.42616 13.3547 10.0902 13.922C10.8402 14.5627 11.5482 15.1673 12.1848 15.1673C12.4842 15.1673 12.7302 15.0733 12.9155 14.8873C13.4882 14.3147 13.4855 12.9107 13.4795 9.16065Z" fill="#CDCFD5"/>
</g>
</svg>
