<svg width="16" height="20" viewBox="0 0 16 20" fill="none" xmlns="http://www.w3.org/2000/svg">
<g id="charm:menu-kebab">
<g id="Group">
<path id="Vector" d="M7.75 5.5C8.16421 5.5 8.5 5.16421 8.5 4.75C8.5 4.33579 8.16421 4 7.75 4C7.33579 4 7 4.33579 7 4.75C7 5.16421 7.33579 5.5 7.75 5.5Z" stroke="#B0D0FF" stroke-width="1.5" stroke-linecap="round" stroke-linejoin="round"/>
<path id="Vector_2" d="M7.75 11C8.16421 11 8.5 10.6642 8.5 10.25C8.5 9.83579 8.16421 9.5 7.75 9.5C7.33579 9.5 7 9.83579 7 10.25C7 10.6642 7.33579 11 7.75 11Z" stroke="#B0D0FF" stroke-width="1.5" stroke-linecap="round" stroke-linejoin="round"/>
<path id="Vector_3" d="M7.75 16.5C8.16421 16.5 8.5 16.1642 8.5 15.75C8.5 15.3358 8.16421 15 7.75 15C7.33579 15 7 15.3358 7 15.75C7 16.1642 7.33579 16.5 7.75 16.5Z" stroke="#B0D0FF" stroke-width="1.5" stroke-linecap="round" stroke-linejoin="round"/>
</g>
</g>
</svg>
