<svg width="16" height="16" viewBox="0 0 16 16" fill="none" xmlns="http://www.w3.org/2000/svg">
<g id="Chat">
<g id="Iconly/Bold/Chat">
<g id="Chat_2">
<path id="Vector" d="M8.01569 1.33203C11.8024 1.33203 14.669 4.43669 14.669 7.98868C14.669 12.1082 11.309 14.6654 8.00236 14.6654C6.90903 14.6654 5.69569 14.3716 4.72236 13.7974C4.38236 13.5904 4.09569 13.4369 3.72903 13.557L2.38236 13.9576C2.04236 14.0645 1.73569 13.7974 1.83569 13.4369L2.28236 11.9413C2.35569 11.7343 2.34236 11.514 2.23569 11.3404C1.66236 10.2855 1.33569 9.1304 1.33569 8.00871C1.33569 4.49678 4.14236 1.33203 8.01569 1.33203ZM11.0624 7.16077C10.589 7.16077 10.209 7.54135 10.209 8.01539C10.209 8.48276 10.589 8.87 11.0624 8.87C11.5357 8.87 11.9157 8.48276 11.9157 8.01539C11.9157 7.54135 11.5357 7.16077 11.0624 7.16077ZM7.98903 7.16077C7.52236 7.1541 7.13569 7.54135 7.13569 8.00871C7.13569 8.48276 7.51569 8.86333 7.98903 8.87C8.46236 8.87 8.84236 8.48276 8.84236 8.01539C8.84236 7.54135 8.46236 7.16077 7.98903 7.16077ZM4.91569 7.16077C4.44236 7.16077 4.06236 7.54135 4.06236 8.01539C4.06236 8.48276 4.44903 8.87 4.91569 8.87C5.38903 8.86333 5.76903 8.48276 5.76903 8.01539C5.76903 7.54135 5.38903 7.16077 4.91569 7.16077Z" fill="#D9EAFF"/>
</g>
</g>
</g>
</svg>
