<svg width="16" height="16" viewBox="0 0 16 16" fill="none" xmlns="http://www.w3.org/2000/svg">
<g id="Delete">
<path id="Vector" fill-rule="evenodd" clip-rule="evenodd" d="M3.5388 6.11849C3.80319 6.09916 4.03318 6.29784 4.05249 6.56224L4.44415 11.9226C4.5068 12.7814 5.22206 13.4465 6.08244 13.4465H9.91802C10.779 13.4465 11.4936 12.7815 11.5563 11.9233L11.9479 6.56224C11.9672 6.29785 12.1972 6.09917 12.4616 6.11849C12.726 6.1378 12.9247 6.36779 12.9054 6.63219L12.5137 11.9932C12.4145 13.3529 11.2823 14.4065 9.91802 14.4065H6.08244C4.71873 14.4065 3.58596 13.3529 3.4867 11.9926L3.09505 6.63219C3.07573 6.36779 3.2744 6.1378 3.5388 6.11849Z" fill="#8C8D91"/>
<path id="Vector_2" fill-rule="evenodd" clip-rule="evenodd" d="M2.23096 4.58937C2.23096 4.32428 2.44586 4.10938 2.71096 4.10938H13.2899C13.555 4.10938 13.7699 4.32428 13.7699 4.58937C13.7699 4.85447 13.555 5.06937 13.2899 5.06937H2.71096C2.44586 5.06937 2.23096 4.85447 2.23096 4.58937Z" fill="#8C8D91"/>
<path id="Vector_3" fill-rule="evenodd" clip-rule="evenodd" d="M6.68421 1.92969H9.32101C9.89919 1.92969 10.4066 2.31828 10.5562 2.87785C10.5587 2.88725 10.5609 2.89674 10.5629 2.90628L10.8848 4.49093C10.9376 4.75072 10.7698 5.00411 10.5099 5.05688C10.2502 5.10965 9.99679 4.94184 9.94398 4.68204L9.62565 3.11494C9.58495 2.98174 9.46136 2.88969 9.32101 2.88969H6.68184C6.54021 2.88921 6.41631 2.98114 6.37515 3.11481L6.06004 4.68116C6.00776 4.94105 5.75469 5.10935 5.4948 5.05706C5.23491 5.00478 5.06661 4.75171 5.1189 4.49182L5.43769 2.90717C5.4397 2.89721 5.44202 2.88731 5.44465 2.87749C5.59512 2.31648 6.10414 1.92812 6.68421 1.92969Z" fill="#8C8D91"/>
<path id="Vector_4" fill-rule="evenodd" clip-rule="evenodd" d="M6.78471 7.55078C7.0498 7.55078 7.26471 7.76569 7.26471 8.03078V10.9162C7.26471 11.1812 7.0498 11.3962 6.78471 11.3962C6.51956 11.3962 6.30469 11.1812 6.30469 10.9162V8.03078C6.30469 7.76569 6.51956 7.55078 6.78471 7.55078ZM8.94817 7.55078C9.21326 7.55078 9.42817 7.76569 9.42817 8.03078V10.9162C9.42817 11.1812 9.21326 11.3962 8.94817 11.3962C8.68308 11.3962 8.46817 11.1812 8.46817 10.9162V8.03078C8.46817 7.76569 8.68308 7.55078 8.94817 7.55078Z" fill="#8C8D91"/>
</g>
</svg>
