<svg width="16" height="19" viewBox="0 0 16 19" fill="none" xmlns="http://www.w3.org/2000/svg">
<path d="M6.89671 12.1488C6.87617 13.2577 6.7735 14.3255 6.67082 15.3933C6.52708 16.9335 5.6646 18.145 3.96017 18.145C2.21468 18.145 1.37274 16.9335 1.22899 15.3933C0.818287 11.4916 0.818287 7.19978 1.22899 3.31862C1.37274 1.79902 2.21468 0.587437 3.96017 0.587437C5.6646 0.587437 6.52708 1.79902 6.67082 3.31862C6.79403 4.65341 6.8351 5.84445 6.91725 7.24085C7.49223 5.57749 8.35471 3.95521 8.9913 2.7847C9.83325 1.24456 11.2502 0.217803 13.201 1.03921C14.8438 1.73741 15.4188 3.05166 14.8028 4.63287C13.9608 6.80961 12.3385 9.13009 10.8189 10.3417C10.552 10.5265 10.7984 10.9372 11.1064 10.7113C11.4145 10.4649 11.7019 10.2185 11.9689 9.93096C13.201 11.2452 14.1456 13.0728 14.659 14.5103C15.1108 15.8862 14.4742 17.2415 12.8725 17.8986C11.1886 18.5557 9.66896 17.8781 8.72434 16.2969C8.21096 15.4139 7.43063 13.6273 6.89671 12.1488Z" fill="#2964E0"/>
</svg>
