<svg width="36" height="36" viewBox="0 0 36 36" fill="none" xmlns="http://www.w3.org/2000/svg">
<g id="Pencil">
<path id="Vector" fill-rule="evenodd" clip-rule="evenodd" d="M14.7525 11.3274C14.5601 11.1858 14.2927 11.2297 14.1514 11.4223L8.22976 19.4973C6.58816 21.7293 6.05536 24.5661 6.74656 27.2301C7.02016 28.2525 7.97056 28.9581 9.02176 28.9005C11.7866 28.7853 14.3354 27.4173 15.9626 25.1853L21.8983 17.1238C22.0398 16.9316 22.002 16.6636 21.8097 16.5221C20.3606 15.456 16.0117 12.2544 14.7525 11.3274Z" fill="#2964E0"/>
<path id="Vector_2" fill-rule="evenodd" clip-rule="evenodd" d="M23.0873 14.7754C23.2799 14.917 23.5504 14.8746 23.6915 14.6815L24.4871 13.5916C26.0567 11.4604 25.5959 8.45079 23.4647 6.88119C21.3191 5.31159 18.3095 5.77239 16.7399 7.90359L15.9427 8.99559C15.8023 9.18793 15.8406 9.45513 16.0326 9.59605C17.2597 10.4968 21.4379 13.5636 23.0873 14.7754Z" fill="#2964E0"/>
<path id="Vector_3" fill-rule="evenodd" clip-rule="evenodd" d="M28.4712 27.9141H19.5634C18.9672 27.9141 18.4834 28.3979 18.4834 28.9941C18.4834 29.5902 18.9672 30.0741 19.5634 30.0741H28.4712C29.0674 30.0741 29.5512 29.5902 29.5512 28.9941C29.5512 28.3979 29.0674 27.9141 28.4712 27.9141Z" fill="#2964E0"/>
</g>
</svg>
