<svg width="87" height="71" viewBox="0 0 87 71" fill="none" xmlns="http://www.w3.org/2000/svg">
<path fill-rule="evenodd" clip-rule="evenodd" d="M38.0659 51.0625C29.8579 51.0625 22.9219 55.5605 22.9219 60.8845C22.9219 66.9565 31.5639 67.6585 38.0659 67.6585C41.8119 67.6585 53.2099 67.6585 53.2099 60.8445C53.2099 55.5405 46.2739 51.0625 38.0659 51.0625Z" fill="#012CFF"/>
<path fill-rule="evenodd" clip-rule="evenodd" d="M38.0022 46.4737H38.0662C43.6182 46.4737 48.1322 41.9577 48.1322 36.4077C48.1322 30.8577 43.6182 26.3438 38.0662 26.3438C32.5161 26.3438 28.0001 30.8577 28.0001 36.4037C27.9801 41.9357 32.4641 46.4537 38.0022 46.4737Z" fill="#012CFF"/>
<path fill-rule="evenodd" clip-rule="evenodd" d="M60.5784 41.8108H57.9844V39.3008C57.9844 38.4728 57.3124 37.8008 56.4844 37.8008C55.6564 37.8008 54.9844 38.4728 54.9844 39.3008V41.8108H52.3984C51.5704 41.8108 50.8984 42.4828 50.8984 43.3108C50.8984 44.1388 51.5704 44.8108 52.3984 44.8108H54.9844V47.3208C54.9844 48.1488 55.6564 48.8208 56.4844 48.8208C57.3124 48.8208 57.9844 48.1488 57.9844 47.3208V44.8108H60.5784C61.4064 44.8108 62.0784 44.1388 62.0784 43.3108C62.0784 42.4828 61.4064 41.8108 60.5784 41.8108Z" fill="#012CFF"/>
<path fill-rule="evenodd" clip-rule="evenodd" d="M10.452 34.6152C6.17695 34.6152 2.56445 36.9579 2.56445 39.7309C2.56445 42.8934 7.0655 43.259 10.452 43.259C12.403 43.259 18.3395 43.259 18.3395 39.71C18.3395 36.9475 14.727 34.6152 10.452 34.6152Z" fill="#D9EAFF"/>
<path fill-rule="evenodd" clip-rule="evenodd" d="M10.4184 32.2266H10.4518C13.3434 32.2266 15.6945 29.8745 15.6945 26.9839C15.6945 24.0932 13.3434 21.7422 10.4518 21.7422C7.5611 21.7422 5.20902 24.0932 5.20902 26.9818C5.1986 29.863 7.53402 32.2161 10.4184 32.2266Z" fill="#D9EAFF"/>
<path fill-rule="evenodd" clip-rule="evenodd" d="M22.1764 29.7975H20.8254V28.4902C20.8254 28.059 20.4754 27.709 20.0441 27.709C19.6129 27.709 19.2629 28.059 19.2629 28.4902V29.7975H17.916C17.4848 29.7975 17.1348 30.1475 17.1348 30.5788C17.1348 31.01 17.4848 31.36 17.916 31.36H19.2629V32.6673C19.2629 33.0986 19.6129 33.4486 20.0441 33.4486C20.4754 33.4486 20.8254 33.0986 20.8254 32.6673V31.36H22.1764C22.6077 31.36 22.9577 31.01 22.9577 30.5788C22.9577 30.1475 22.6077 29.7975 22.1764 29.7975Z" fill="#D9EAFF"/>
<path fill-rule="evenodd" clip-rule="evenodd" d="M68.9602 18.123C63.6592 18.123 59.1797 21.028 59.1797 24.4664C59.1797 28.3879 64.761 28.8413 68.9602 28.8413C71.3795 28.8413 78.7407 28.8413 78.7407 24.4406C78.7407 21.0151 74.2612 18.123 68.9602 18.123Z" fill="#B0D0FF"/>
<path fill-rule="evenodd" clip-rule="evenodd" d="M68.9187 15.1608H68.9601C72.5457 15.1608 75.461 12.2442 75.461 8.65982C75.461 5.07545 72.5457 2.16016 68.9601 2.16016C65.3756 2.16016 62.459 5.07545 62.459 8.65724C62.4461 12.23 65.342 15.1479 68.9187 15.1608Z" fill="#B0D0FF"/>
<path fill-rule="evenodd" clip-rule="evenodd" d="M83.4978 12.1484H81.8225V10.5273C81.8225 9.99259 81.3885 9.55859 80.8537 9.55859C80.319 9.55859 79.885 9.99259 79.885 10.5273V12.1484H78.2148C77.6801 12.1484 77.2461 12.5824 77.2461 13.1172C77.2461 13.6519 77.6801 14.0859 78.2148 14.0859H79.885V15.707C79.885 16.2417 80.319 16.6757 80.8537 16.6757C81.3885 16.6757 81.8225 16.2417 81.8225 15.707V14.0859H83.4978C84.0325 14.0859 84.4665 13.6519 84.4665 13.1172C84.4665 12.5824 84.0325 12.1484 83.4978 12.1484Z" fill="#B0D0FF"/>
</svg>
