<svg width="58" height="58" viewBox="0 0 58 58" fill="none" xmlns="http://www.w3.org/2000/svg">
<path d="M14.7182 36.2448C13.7772 34.1181 13.2916 31.8182 13.2923 29.4926C13.2923 20.5389 20.3248 13.2865 29.0007 13.2865C37.6765 13.2865 44.709 20.5413 44.709 29.4926C44.7097 31.8182 44.2241 34.1181 43.2832 36.2448M29.0007 4.82812V7.24479V4.82812ZM53.1673 28.9948H50.7507H53.1673ZM7.25065 28.9948H4.83398H7.25065ZM46.0865 11.9065L44.3779 13.6151L46.0865 11.9065ZM13.6234 13.6175L11.9148 11.909L13.6234 13.6175ZM35.0834 46.6534C37.5242 45.8631 38.5054 43.6277 38.7809 41.3802C38.8631 40.7084 38.3097 40.1501 37.633 40.1501H20.4867C20.3215 40.1475 20.1576 40.18 20.0058 40.2454C19.8541 40.3109 19.7179 40.4078 19.6065 40.5298C19.495 40.6518 19.4107 40.7961 19.3591 40.9531C19.3076 41.1101 19.2899 41.2763 19.3074 41.4406C19.5781 43.6833 20.2596 45.3218 22.8454 46.651M35.0834 46.6534L22.8454 46.651L35.0834 46.6534ZM35.0834 46.6534C34.791 51.3538 33.4328 53.2146 29.0176 53.1615C24.2954 53.2485 23.2079 50.9454 22.8454 46.651" fill="#D9EAFF"/>
<path d="M14.7182 36.2448C13.7772 34.1181 13.2916 31.8182 13.2923 29.4926C13.2923 20.5389 20.3248 13.2865 29.0007 13.2865C37.6765 13.2865 44.709 20.5413 44.709 29.4926C44.7097 31.8182 44.2241 34.1181 43.2832 36.2448M29.0007 4.82812V7.24479M53.1673 28.9948H50.7507M7.25065 28.9948H4.83398M46.0865 11.9065L44.3779 13.6151M13.6234 13.6175L11.9148 11.909M35.0834 46.6534C37.5242 45.8631 38.5054 43.6277 38.7809 41.3802C38.8631 40.7084 38.3097 40.1501 37.633 40.1501H20.4867C20.3215 40.1475 20.1576 40.18 20.0058 40.2454C19.8541 40.3109 19.7179 40.4078 19.6065 40.5298C19.495 40.6518 19.4107 40.7961 19.3591 40.9531C19.3076 41.1101 19.2899 41.2763 19.3074 41.4406C19.5781 43.6833 20.2596 45.3218 22.8454 46.651M35.0834 46.6534L22.8454 46.651M35.0834 46.6534C34.791 51.3538 33.4328 53.2146 29.0176 53.1615C24.2954 53.2485 23.2079 50.9454 22.8454 46.651" stroke="#012CFF" stroke-width="3.625" stroke-linecap="round" stroke-linejoin="round"/>
</svg>
