<svg width="86" height="66" viewBox="0 0 86 66" fill="none" xmlns="http://www.w3.org/2000/svg">
<path d="M0 22.5659C0 10.1031 10.1031 0 22.5659 0H63V66H22.5659C10.1031 66 0 55.8969 0 43.4341V22.5659Z" fill="#E6F3FF"/>
<path fill-rule="evenodd" clip-rule="evenodd" d="M81.5879 56.215C84.0827 52.5872 85.543 48.1926 85.543 43.4569V22.5433C85.543 10.0931 75.4501 0.000221252 62.9999 0.000221252V66C67.5677 66 71.8182 64.6414 75.3694 62.3063L82.1072 65.2589C83.7021 65.9578 85.3368 64.3625 84.6206 62.8061L81.5879 56.215Z" fill="#E6F3FF"/>
<path d="M63.1354 47.5565L53.9479 29.1815C53.7843 28.8547 53.533 28.58 53.222 28.3879C52.9111 28.1959 52.5529 28.0942 52.1875 28.0942C51.8221 28.0942 51.4639 28.1959 51.153 28.3879C50.842 28.58 50.5907 28.8547 50.4271 29.1815L47.0605 35.908C44.7925 35.7098 42.6086 34.954 40.7031 33.708C43.0184 31.0151 44.4669 27.6859 44.8588 24.1563H48.25C48.7721 24.1563 49.2729 23.9488 49.6421 23.5796C50.0113 23.2104 50.2188 22.7096 50.2188 22.1875C50.2188 21.6654 50.0113 21.1646 49.6421 20.7954C49.2729 20.4262 48.7721 20.2188 48.25 20.2188H39.7188V18.25C39.7188 17.7279 39.5113 17.2271 39.1421 16.8579C38.7729 16.4887 38.2721 16.2812 37.75 16.2812C37.2279 16.2812 36.7271 16.4887 36.3579 16.8579C35.9887 17.2271 35.7812 17.7279 35.7812 18.25V20.2188H27.25C26.7279 20.2188 26.2271 20.4262 25.8579 20.7954C25.4887 21.1646 25.2812 21.6654 25.2812 22.1875C25.2812 22.7096 25.4887 23.2104 25.8579 23.5796C26.2271 23.9488 26.7279 24.1563 27.25 24.1563H40.8885C40.5191 26.7221 39.431 29.1309 37.75 31.1043C36.9296 30.1443 36.2451 29.0761 35.7156 27.9297C35.6119 27.6886 35.4611 27.4706 35.2719 27.2887C35.0827 27.1067 34.8591 26.9644 34.6141 26.8702C34.3692 26.7759 34.1078 26.7316 33.8455 26.7398C33.5832 26.748 33.3251 26.8086 33.0865 26.918C32.8479 27.0274 32.6336 27.1833 32.4562 27.3768C32.2788 27.5702 32.1418 27.7971 32.0534 28.0443C31.965 28.2914 31.9269 28.5537 31.9413 28.8158C31.9557 29.0778 32.0224 29.3344 32.1374 29.5703C32.8262 31.068 33.7214 32.4619 34.7969 33.7113C32.5564 35.186 29.9323 35.971 27.25 35.9688C26.7279 35.9688 26.2271 36.1762 25.8579 36.5454C25.4887 36.9146 25.2812 37.4154 25.2812 37.9375C25.2812 38.4596 25.4887 38.9604 25.8579 39.3296C26.2271 39.6988 26.7279 39.9063 27.25 39.9063C31.0301 39.9093 34.711 38.6975 37.75 36.4495C39.9539 38.0713 42.5022 39.1627 45.1968 39.6388L41.238 47.5565C41.1149 47.7884 41.0395 48.0426 41.0162 48.3041C40.9928 48.5656 41.022 48.8291 41.102 49.0792C41.182 49.3292 41.3112 49.5607 41.4821 49.7601C41.6529 49.9595 41.8618 50.1227 42.0967 50.2401C42.3315 50.3575 42.5874 50.4268 42.8494 50.4438C43.1114 50.4608 43.3741 50.4253 43.6222 50.3393C43.8702 50.2532 44.0986 50.1185 44.2937 49.9429C44.4889 49.7673 44.647 49.5545 44.7588 49.3169L46.8407 45.1563H57.5327L59.613 49.3169C59.8464 49.784 60.2558 50.1392 60.7512 50.3044C61.2466 50.4697 61.7873 50.4313 62.2544 50.1979C62.7215 49.9645 63.0767 49.555 63.2419 49.0597C63.4072 48.5643 63.3688 48.0236 63.1354 47.5565ZM48.8095 41.2188L52.1875 34.4643L55.5639 41.2188H48.8095Z" fill="#012CFF"/>
</svg>
