<svg width="113" height="113" viewBox="0 0 113 113" fill="none" xmlns="http://www.w3.org/2000/svg">
<g filter="url(#filter0_d_90_553)">
<g clip-path="url(#clip0_90_553)">
<rect x="5" y="5" width="97.9998" height="97.9998" rx="31.0731" fill="white"/>
<path d="M-18.5201 56.9749C-16.5198 55.5844 -7.54221 40.2547 14.7465 47.4702C25.8957 51.0795 44.7229 56.6812 56.2523 41.1166C64.7925 29.5872 55.2259 20.8341 44.3152 30.5373C35.1313 38.7047 37.0792 49.169 32.6171 62.9521" stroke="url(#paint0_linear_90_553)" stroke-width="6.34117" stroke-linecap="round"/>
<path d="M73.7352 46.5058C66.9975 69.2012 57.4675 75.9058 51.253 75.9058C45.0385 75.9058 39.1911 67.9089 48.9077 61.2061C64.4724 50.4692 99.8449 84.5528 113.68 49.3882" stroke="url(#paint1_linear_90_553)" stroke-width="6.34117" stroke-linecap="round"/>
</g>
</g>
<defs>
<filter id="filter0_d_90_553" x="0.458544" y="0.458544" width="111.863" height="111.863" filterUnits="userSpaceOnUse" color-interpolation-filters="sRGB">
<feFlood flood-opacity="0" result="BackgroundImageFix"/>
<feColorMatrix in="SourceAlpha" type="matrix" values="0 0 0 0 0 0 0 0 0 0 0 0 0 0 0 0 0 0 127 0" result="hardAlpha"/>
<feOffset dx="2.39024" dy="2.39024"/>
<feGaussianBlur stdDeviation="3.46585"/>
<feComposite in2="hardAlpha" operator="out"/>
<feColorMatrix type="matrix" values="0 0 0 0 0.468229 0 0 0 0 0.590937 0 0 0 0 0.775 0 0 0 0.18 0"/>
<feBlend mode="normal" in2="BackgroundImageFix" result="effect1_dropShadow_90_553"/>
<feBlend mode="normal" in="SourceGraphic" in2="effect1_dropShadow_90_553" result="shape"/>
</filter>
<linearGradient id="paint0_linear_90_553" x1="-32.2618" y1="-43.8888" x2="96.8246" y2="20.4506" gradientUnits="userSpaceOnUse">
<stop stop-color="#24FF00" stop-opacity="0"/>
<stop offset="0.746866" stop-color="#012CFF"/>
<stop offset="0.937296" stop-color="#002BFF"/>
<stop offset="1" stop-color="#9EFF00" stop-opacity="0"/>
</linearGradient>
<linearGradient id="paint1_linear_90_553" x1="13.5453" y1="9.64629" x2="137.235" y2="60.5108" gradientUnits="userSpaceOnUse">
<stop stop-color="#FAFF00" stop-opacity="0"/>
<stop offset="0.483201" stop-color="#012CFF"/>
<stop offset="0.598631" stop-color="#002BFF"/>
<stop offset="1" stop-color="#EBFF00" stop-opacity="0"/>
</linearGradient>
<clipPath id="clip0_90_553">
<rect x="5" y="5" width="97.9998" height="97.9998" rx="31.0731" fill="white"/>
</clipPath>
</defs>
</svg>
