<svg width="140" height="42" viewBox="0 0 140 42" fill="none" xmlns="http://www.w3.org/2000/svg">
<path fill-rule="evenodd" clip-rule="evenodd" d="M92.1934 2.84554C93.1802 4.27895 93.7083 6.27269 92.9963 8.17128C92.5589 9.33763 91.2589 9.92858 90.0925 9.4912C88.9262 9.05382 88.3352 7.75374 88.7726 6.58739C88.8408 6.40555 88.855 5.95142 88.4778 5.40337C88.1193 4.88268 87.5876 4.56065 87.052 4.51675C86.5809 4.47815 85.7076 4.6242 84.5707 5.84866C83.454 7.05139 82.1793 9.21294 81.0392 12.8617C82.0672 12.6437 83.0293 12.4387 83.7976 12.2743C85.0157 12.0137 86.2144 12.7898 86.4751 14.0079C86.7357 15.226 85.9596 16.4247 84.7415 16.6854C83.4452 16.9628 81.5127 17.374 79.6412 17.7674C79.0206 20.0747 78.4844 22.2386 78.0009 24.2455C77.7948 25.101 77.5971 25.9335 77.4057 26.7392C77.279 27.2726 77.1551 27.7942 77.0334 28.3029C79.5133 27.8386 82.3495 27.2846 85.2396 26.6495C86.5395 26.3639 87.8451 26.063 89.1296 25.7478C89.299 23.458 90.1203 21.0619 91.6679 18.7779C95.6431 12.9111 100.931 11.3168 104.817 13.267C106.668 14.1955 108.046 15.9293 108.305 18.0585C108.57 20.2356 107.621 22.3953 105.677 24.0856C103.807 25.7117 100.681 27.027 97.3724 28.1142C96.3184 28.4606 95.2117 28.7942 94.0732 29.1146C94.2506 29.5594 94.473 29.9665 94.7305 30.3293C96.124 32.2925 98.896 33.4652 102.579 31.9919C104.381 31.2714 105.856 29.968 107.557 28.1992C107.882 27.8614 108.218 27.5029 108.567 27.1308C109.96 25.6447 111.555 23.9422 113.45 22.4822C115.904 20.5922 118.925 19.0344 123.001 18.3996C127.039 17.7707 131.99 18.0666 138.302 19.6781C139.509 19.9863 140.238 21.2145 139.929 22.4214C139.621 23.6284 138.393 24.357 137.186 24.0488C131.275 22.5397 126.962 22.348 123.695 22.8568C120.465 23.3598 118.138 24.5651 116.203 26.0557C114.626 27.2711 113.348 28.6321 111.983 30.086L111.982 30.0862L111.98 30.0887C111.599 30.4943 111.212 30.9071 110.809 31.326C109.04 33.1655 107.005 35.0802 104.255 36.1802C98.8363 38.3475 93.7718 36.7721 91.052 32.9403C90.4679 32.1174 90.009 31.215 89.6829 30.2558C88.5237 30.5357 87.3588 30.8024 86.2077 31.0553C82.4131 31.8891 78.7242 32.583 75.8153 33.1157C75.2197 35.2512 74.5695 37.1542 73.7188 38.5728C72.7752 40.1464 71.3099 41.5426 69.09 41.5426C67.4096 41.5426 65.921 40.9144 64.975 39.6235C64.0883 38.4135 63.9259 36.9562 64.0915 35.722C64.4098 33.3508 66.1229 30.626 69.0115 29.831C69.5463 29.6838 70.6886 29.4656 72.176 29.1933C72.4368 28.1378 72.7076 26.9982 72.9993 25.7701L72.9999 25.7675L73.001 25.763C73.1954 24.9447 73.3991 24.0872 73.6154 23.1891C73.9499 21.8007 74.3114 20.329 74.7101 18.7809C74.456 18.8299 74.2593 18.8661 74.1333 18.8866C72.9038 19.0865 71.745 18.2519 71.5451 17.0224C71.3451 15.7929 72.1798 14.6341 73.4093 14.4341C73.7444 14.3796 74.7409 14.1793 76.0279 13.9134C76.196 13.3238 76.3698 12.7258 76.5498 12.1197C77.8392 7.77639 79.4465 4.73788 81.265 2.77935C83.1174 0.784175 85.2709 -0.155272 87.4204 0.020893C89.5054 0.191765 91.1878 1.38477 92.1934 2.84554ZM70.8131 34.0427C70.5432 34.0982 70.3403 34.1439 70.2085 34.1802C69.8538 34.2778 69.4796 34.527 69.1547 34.9467C68.8256 35.3718 68.6217 35.8802 68.5624 36.3221C68.5336 36.5369 68.5433 36.702 68.5651 36.8129C68.5757 36.8669 68.5882 36.9036 68.5976 36.9261C68.6037 36.9406 68.6086 36.9493 68.6113 36.9537C68.6129 36.9547 68.6152 36.956 68.6181 36.9575C68.6213 36.9592 68.6254 36.9613 68.6304 36.9635C68.6691 36.9812 68.8037 37.0316 69.09 37.0316C69.1614 37.0316 69.1967 37.0228 69.2692 36.9713C69.3773 36.8944 69.5816 36.7008 69.8501 36.2529C70.1692 35.7208 70.485 34.9941 70.8131 34.0427ZM93.9066 24.4684C94.614 24.2597 95.3017 24.0465 95.9641 23.8288C99.2586 22.7462 101.597 21.656 102.717 20.6816C103.764 19.7713 103.877 19.0115 103.827 18.6038C103.772 18.1483 103.458 17.632 102.794 17.2988C101.652 16.7257 98.6185 16.5617 95.4023 21.3083C94.6677 22.3924 94.1845 23.456 93.9066 24.4684ZM50.8176 4.63495C51.2582 6.09943 51.0637 7.74094 50.3769 9.44419C49.6023 11.365 48.0681 12.9977 46.298 14.3051C44.6815 15.4992 42.7438 16.5151 40.6709 17.3009L40.4753 17.8315C38.3914 23.4914 36.1085 29.9333 34.5225 34.7095C35.1261 34.649 35.8743 34.5251 36.746 34.3144C40.1391 33.4942 44.4621 31.5915 47.5033 28.7075C50.834 25.549 53.2478 21.6553 54.1701 18.5299C54.6364 16.9501 54.6535 15.7997 54.454 15.0999C54.2991 14.5562 54.0243 14.2411 53.3829 14.0662C52.1811 13.7385 51.4726 12.4985 51.8004 11.2968C52.1281 10.095 53.368 9.38647 54.5698 9.71423C56.789 10.3195 58.2201 11.8565 58.7922 13.8634C59.3197 15.7142 59.0851 17.8127 58.4966 19.8067C57.3096 23.8288 54.4023 28.3818 50.6074 31.9807C46.8418 35.5516 41.7329 37.7498 37.8059 38.699C35.874 39.166 33.9848 39.3914 32.565 39.1952C31.9421 39.1091 30.8669 38.876 30.1182 38.0132C29.682 37.5105 29.424 36.8641 29.4247 36.1572C29.4252 35.6312 29.5678 35.1736 29.7423 34.807C31.1398 30.5035 33.2744 24.415 35.334 18.7544C31.9179 19.3391 28.3461 19.2982 25.2259 18.2881C17.9151 15.9213 13.0232 17.2878 9.81894 19.1715C8.17362 20.1388 6.905 21.2844 5.94457 22.2767C5.51891 22.7164 5.16352 23.1154 4.84371 23.4743L4.71325 23.6207C4.54413 23.8101 4.36652 24.0075 4.20164 24.1777C4.0574 24.3266 3.82244 24.5614 3.54308 24.7556C2.52028 25.4666 1.11475 25.2138 0.403726 24.191C-0.291053 23.1916 -0.0655943 21.8267 0.899364 21.1015C0.911902 21.0894 0.932443 21.0692 0.961831 21.0389C1.05457 20.9432 1.17557 20.8099 1.34822 20.6165L1.47214 20.4774C1.79027 20.1202 2.20828 19.6508 2.70329 19.1394C3.836 17.9691 5.42175 16.5238 7.53283 15.2828C11.8414 12.7498 18.0704 11.2302 26.6152 13.9964C29.6064 14.9647 33.5184 14.7669 37.1929 13.708C38.011 11.5165 38.774 9.51544 39.4208 7.87129C39.8663 6.73899 40.2614 5.76414 40.5841 5.00822C40.8789 4.31797 41.1814 3.6447 41.4313 3.24471C42.1869 2.03522 43.4201 1.39733 44.5518 1.156C45.6968 0.911841 46.9842 1.01199 48.1325 1.54581C49.3232 2.0993 50.3642 3.12831 50.8176 4.63495ZM43.0019 11.1071C43.2175 10.5481 43.4236 10.0184 43.6186 9.5228C44.0568 8.40884 44.4341 7.47892 44.7327 6.77971C44.8822 6.42949 45.0069 6.1491 45.1061 5.93835C45.1765 5.78885 45.2209 5.70271 45.2422 5.66244C45.2683 5.64387 45.3414 5.59998 45.4926 5.56774C45.7563 5.51151 46.0381 5.54668 46.231 5.63638C46.3816 5.7064 46.4541 5.78908 46.498 5.9348C46.5545 6.12268 46.63 6.67419 46.1933 7.7571C45.8444 8.62245 45.0126 9.64649 43.6179 10.6767C43.4207 10.8223 43.2152 10.9659 43.0019 11.1071ZM33.0164 34.6924C33.0175 34.6917 33.0324 34.6951 33.058 34.7048C33.0282 34.698 33.0154 34.6931 33.0164 34.6924ZM66.6019 11.8972C67.7974 12.2471 68.4829 13.4999 68.133 14.6954L61.8917 36.0198C61.5418 37.2153 60.289 37.9008 59.0935 37.5509C57.898 37.201 57.2125 35.9482 57.5624 34.7527L63.8037 13.4283C64.1536 12.2328 65.4064 11.5473 66.6019 11.8972ZM67.9195 8.60958C69.5049 8.60958 70.7901 7.32437 70.7901 5.73898C70.7901 4.15359 69.5049 2.86838 67.9195 2.86838C66.3341 2.86838 65.0489 4.15359 65.0489 5.73898C65.0489 7.32437 66.3341 8.60958 67.9195 8.60958Z" fill="url(#paint0_linear_203_874)"/>
<ellipse cx="67.9193" cy="5.73907" rx="2.87059" ry="2.8706" fill="#FFD600"/>
<defs>
<linearGradient id="paint0_linear_203_874" x1="110.647" y1="19.27" x2="136.755" y2="18.6484" gradientUnits="userSpaceOnUse">
<stop stop-color="white"/>
<stop offset="1" stop-color="#002BFF" stop-opacity="0"/>
</linearGradient>
</defs>
</svg>
