<svg width="16" height="16" viewBox="0 0 16 16" fill="none" xmlns="http://www.w3.org/2000/svg">
<path d="M8 16C12.4183 16 16 12.4183 16 8C16 3.58172 12.4183 0 8 0C3.58172 0 0 3.58172 0 8C0 12.4183 3.58172 16 8 16Z" fill="#8C8D91"/>
<path fill-rule="evenodd" clip-rule="evenodd" d="M10.8253 5.17191C11.0206 5.36718 11.0206 5.68376 10.8253 5.87902L8.70474 7.99963L10.8255 10.1216C11.0207 10.3169 11.0207 10.6335 10.8254 10.8287C10.6301 11.024 10.3135 11.024 10.1182 10.8287L7.99692 8.70745L5.8756 10.8288C5.68034 11.024 5.36376 11.024 5.16849 10.8288C4.97323 10.6335 4.97323 10.3169 5.16849 10.1217L7.28981 8.00034L5.16849 5.87902C4.97323 5.68376 4.97323 5.36718 5.16849 5.17191C5.36376 4.97665 5.68034 4.97665 5.8756 5.17191L7.99692 7.29323L10.1182 5.17191C10.3135 4.97665 10.6301 4.97665 10.8253 5.17191Z" fill="white"/>
</svg>
