<svg width="98" height="114" viewBox="0 0 98 114" fill="none" xmlns="http://www.w3.org/2000/svg">
<rect x="2" y="2" width="94" height="110" rx="20" fill="white" fill-opacity="0.5"/>
<rect x="2" y="2" width="94" height="110" rx="20" stroke="#2964E0" stroke-width="4" stroke-linecap="round" stroke-dasharray="5 13"/>
<path fill-rule="evenodd" clip-rule="evenodd" d="M42.9442 52.1885C40.8772 52.1885 39.1953 50.5067 39.1953 48.4396C39.1953 46.3694 40.8772 44.6875 42.9442 44.6875C45.0128 44.6891 46.6946 46.3726 46.6946 48.4396C46.6946 50.5067 45.0112 52.1885 42.9442 52.1885ZM42.9426 47.125C42.2211 47.125 41.6328 47.7132 41.6328 48.4396C41.6328 49.1628 42.2211 49.751 42.9442 49.751C43.6689 49.751 44.2572 49.1628 44.2572 48.4396C44.2572 47.7149 43.6673 47.1266 42.9426 47.125Z" fill="#2964E0"/>
<path d="M38.8616 61.6052C38.6796 61.6052 38.4927 61.5646 38.3188 61.4769C37.7176 61.1762 37.4738 60.4482 37.7712 59.847C37.9418 59.5041 39.5018 56.5092 42.1035 56.5092C43.4425 56.5092 44.4223 57.2372 45.2105 57.8255C45.9775 58.3942 46.4796 58.7436 47.1345 58.7436C47.5976 58.7371 48.7985 57.2925 49.4436 56.5141C50.82 54.8566 52.2451 53.1406 54.0602 53.1406C57.1705 53.1406 59.1042 57.2762 59.3139 57.7475C59.5869 58.3617 59.3122 59.08 58.698 59.3546C58.0886 59.6325 57.3639 59.3562 57.0876 58.742C56.6245 57.7101 55.2725 55.5781 54.0602 55.5781C53.3906 55.5781 52.1486 57.0726 51.3247 58.0639L51.3189 58.0709C49.9912 59.6715 48.7367 61.1811 47.1345 61.1811C45.6395 61.1811 44.5946 60.4044 43.7561 59.7804C43.0606 59.2653 42.6105 58.9467 42.1035 58.9467C41.2341 58.9467 40.2802 60.2857 39.9536 60.9325C39.7391 61.3599 39.3085 61.6052 38.8616 61.6052Z" fill="#2964E0"/>
<path fill-rule="evenodd" clip-rule="evenodd" d="M32.25 53.1445C32.25 65.1419 36.5026 69.3945 48.5 69.3945C60.4974 69.3945 64.75 65.1419 64.75 53.1445C64.75 41.1472 60.4974 36.8945 48.5 36.8945C36.5026 36.8945 32.25 41.1472 32.25 53.1445ZM34.6875 53.1445C34.6875 42.5593 37.9148 39.332 48.5 39.332C59.0853 39.332 62.3125 42.5593 62.3125 53.1445C62.3125 63.7298 59.0853 66.957 48.5 66.957C37.9148 66.957 34.6875 63.7298 34.6875 53.1445Z" fill="#2964E0"/>
<path fill-rule="evenodd" clip-rule="evenodd" d="M66.96 32.1992C67.4063 32.1992 67.7685 32.5614 67.7685 33.0077V36.1475L70.9124 36.1477C71.3586 36.1477 71.7208 36.5099 71.7208 36.9561C71.7208 37.4024 71.3586 37.7646 70.9124 37.7646L67.7685 37.7644V40.9059C67.7685 41.3522 67.4063 41.7144 66.96 41.7144C66.5137 41.7144 66.1516 41.3522 66.1516 40.9059V37.7644L63.0077 37.7646C62.5603 37.7646 62.1992 37.4024 62.1992 36.9561C62.1992 36.5099 62.5603 36.1477 63.0077 36.1477L66.1516 36.1475V33.0077C66.1516 32.5614 66.5137 32.1992 66.96 32.1992Z" fill="#2964E0"/>
<path d="M29.252 76.012H30.068V77.956C30.068 78.556 29.992 79.144 29.84 79.72C29.696 80.296 29.488 80.836 29.216 81.34C28.944 81.844 28.624 82.292 28.256 82.684C27.888 83.076 27.488 83.388 27.056 83.62L26.444 82.816C26.844 82.616 27.212 82.348 27.548 82.012C27.892 81.668 28.192 81.276 28.448 80.836C28.704 80.396 28.9 79.932 29.036 79.444C29.18 78.948 29.252 78.452 29.252 77.956V76.012ZM29.432 76.012H30.236V77.956C30.236 78.436 30.304 78.912 30.44 79.384C30.584 79.856 30.784 80.3 31.04 80.716C31.296 81.132 31.588 81.504 31.916 81.832C32.252 82.16 32.612 82.42 32.996 82.612L32.384 83.404C31.96 83.188 31.568 82.892 31.208 82.516C30.856 82.14 30.544 81.712 30.272 81.232C30.008 80.744 29.8 80.224 29.648 79.672C29.504 79.112 29.432 78.54 29.432 77.956V76.012ZM33.944 75.076H34.94V85.936H33.944V75.076ZM34.712 79.468H36.716V80.32H34.712V79.468ZM40.1231 76.264H40.9511V77.38C40.9511 78.044 40.8231 78.66 40.5671 79.228C40.3111 79.796 39.9511 80.296 39.4871 80.728C39.0311 81.152 38.4991 81.472 37.8911 81.688L37.3751 80.908C37.9191 80.708 38.3951 80.432 38.8031 80.08C39.2191 79.728 39.5431 79.32 39.7751 78.856C40.0071 78.384 40.1231 77.892 40.1231 77.38V76.264ZM40.3151 76.264H41.1311V77.38C41.1311 77.748 41.1951 78.104 41.3231 78.448C41.4591 78.784 41.6511 79.1 41.8991 79.396C42.1471 79.684 42.4351 79.94 42.7631 80.164C43.0991 80.388 43.4671 80.564 43.8671 80.692L43.3631 81.472C42.7631 81.264 42.2351 80.96 41.7791 80.56C41.3231 80.16 40.9631 79.688 40.6991 79.144C40.4431 78.6 40.3151 78.012 40.3151 77.38V76.264ZM37.6391 75.976H43.5791V76.792H37.6391V75.976ZM45.1271 75.088H46.1231V83.032H45.1271V75.088ZM39.1511 84.88H46.4591V85.696H39.1511V84.88ZM39.1511 82.288H40.1471V85.24H39.1511V82.288ZM55.8139 77.068H58.9339V77.884H55.8139V77.068ZM55.8139 79.408H58.9579V80.224H55.8139V79.408ZM58.5619 75.088H59.5579V83.116H58.5619V75.088ZM52.5859 84.88H59.8099V85.696H52.5859V84.88ZM52.5859 82.336H53.5819V85.288H52.5859V82.336ZM51.1579 75.808H52.1539V77.716H55.0819V75.808H56.0659V81.268H51.1579V75.808ZM52.1539 78.496V80.464H55.0819V78.496H52.1539ZM66.457 77.08H69.361V77.884H66.457V77.08ZM66.361 79.336H69.289V80.152H66.361V79.336ZM69.193 75.088H70.189V81.58H69.193V75.088ZM65.797 75.892H66.853C66.853 76.82 66.649 77.656 66.241 78.4C65.841 79.144 65.261 79.784 64.501 80.32C63.749 80.848 62.853 81.268 61.813 81.58L61.405 80.788C62.325 80.516 63.113 80.164 63.769 79.732C64.425 79.292 64.925 78.788 65.269 78.22C65.621 77.644 65.797 77.012 65.797 76.324V75.892ZM61.957 75.892H66.469V76.708H61.957V75.892ZM66.661 81.7C67.397 81.7 68.029 81.784 68.557 81.952C69.093 82.12 69.509 82.36 69.805 82.672C70.101 82.984 70.249 83.356 70.249 83.788C70.249 84.228 70.101 84.604 69.805 84.916C69.509 85.22 69.093 85.456 68.557 85.624C68.029 85.8 67.397 85.888 66.661 85.888C65.933 85.888 65.297 85.8 64.753 85.624C64.217 85.456 63.801 85.22 63.505 84.916C63.209 84.604 63.061 84.228 63.061 83.788C63.061 83.356 63.209 82.984 63.505 82.672C63.801 82.36 64.217 82.12 64.753 81.952C65.297 81.784 65.933 81.7 66.661 81.7ZM66.661 82.492C66.133 82.492 65.673 82.544 65.281 82.648C64.889 82.752 64.585 82.9 64.369 83.092C64.153 83.284 64.045 83.516 64.045 83.788C64.045 84.06 64.153 84.292 64.369 84.484C64.585 84.676 64.889 84.824 65.281 84.928C65.673 85.032 66.133 85.084 66.661 85.084C67.197 85.084 67.657 85.032 68.041 84.928C68.425 84.824 68.725 84.676 68.941 84.484C69.157 84.292 69.265 84.06 69.265 83.788C69.265 83.516 69.157 83.284 68.941 83.092C68.725 82.9 68.425 82.752 68.041 82.648C67.657 82.544 67.197 82.492 66.661 82.492Z" fill="#2964E0"/>
</svg>
