<svg width="92" height="93" viewBox="0 0 92 93" fill="none" xmlns="http://www.w3.org/2000/svg">
<g id="Group 1000008727">
<path id="Vector" fill-rule="evenodd" clip-rule="evenodd" d="M41.85 53.206L56.5777 62.0214C57.3208 62.4645 58.1377 62.6768 58.9454 62.6768C60.51 62.6768 62.0423 61.8783 62.9054 60.4337C64.2162 58.246 63.5054 55.4122 61.3177 54.1014L48.8377 46.6291V30.2306C48.8377 27.6829 46.77 25.6152 44.2223 25.6152C41.67 25.6152 39.6069 27.6829 39.6069 30.2306V49.246C39.6069 50.8706 40.4562 52.3706 41.85 53.206Z" fill="#2964E0"/>
<path id="Vector_2" fill-rule="evenodd" clip-rule="evenodd" d="M29.2388 10.8029C29.9958 11.2736 30.8358 11.4952 31.6619 11.4952C33.2081 11.4952 34.7173 10.7198 35.5896 9.30747L35.6219 9.26132C36.965 7.09209 36.2773 4.27209 34.1127 2.92901C31.9388 1.59055 29.0865 2.28286 27.7435 4.45209C26.4004 6.6167 27.0696 9.45978 29.2388 10.8029Z" fill="#B0D0FF"/>
<path id="Vector_3" fill-rule="evenodd" clip-rule="evenodd" d="M18.2294 20.8592L18.2525 20.8131C19.3464 18.51 18.3587 15.7823 16.0556 14.6838C13.7617 13.5854 10.9925 14.5915 9.89405 16.8946C8.8002 19.1931 9.77405 21.9484 12.0771 23.0423C12.7187 23.3469 13.3925 23.49 14.0617 23.49C15.7833 23.49 17.4402 22.5207 18.2294 20.8592Z" fill="#B0D0FF"/>
<path id="Vector_4" fill-rule="evenodd" clip-rule="evenodd" d="M4.61102 42.648C6.21256 42.648 7.77256 41.8126 8.62179 40.3218L8.64948 40.2757C9.91409 38.0603 9.12948 35.2682 6.91871 33.999C4.70333 32.739 1.86948 33.5282 0.609478 35.7436C-0.655137 37.9541 0.111016 40.7741 2.3264 42.0388C3.0464 42.4541 3.83563 42.648 4.61102 42.648Z" fill="#B0D0FF"/>
<path id="Vector_5" fill-rule="evenodd" clip-rule="evenodd" d="M8.12532 55.1435C5.93763 53.8328 3.08993 54.5666 1.77916 56.7497C0.468395 58.9328 1.17455 61.7712 3.36224 63.082C4.10532 63.5251 4.92224 63.7374 5.72993 63.7374C7.29917 63.7374 8.82686 62.9389 9.69455 61.4989L9.72224 61.4528C11.033 59.2697 10.313 56.4543 8.12532 55.1435Z" fill="#B0D0FF"/>
<path id="Vector_6" fill-rule="evenodd" clip-rule="evenodd" d="M19.3039 72.4663C17.0285 71.3263 14.2408 72.2724 13.1008 74.5524C11.9608 76.8324 12.8839 79.6062 15.1639 80.7462C15.8285 81.0786 16.53 81.2309 17.2224 81.2309C18.9208 81.2309 20.55 80.2986 21.3577 78.6832L21.3808 78.637C22.5208 76.357 21.5839 73.6063 19.3039 72.4663Z" fill="#B0D0FF"/>
<path id="Vector_7" fill-rule="evenodd" clip-rule="evenodd" d="M45.5547 0H45.5455C43.0024 0 40.9347 2.05846 40.9301 4.60615C40.9255 7.15385 42.9886 9.22615 45.5363 9.23077C65.8947 9.27231 82.4363 25.8554 82.4086 46.1954C82.3947 56.0585 78.5409 65.3308 71.5578 72.3C64.5932 79.2508 55.3486 83.0769 45.5086 83.0769H45.4301C40.847 83.0769 36.4117 82.2508 32.2441 80.6215C29.8626 79.6985 27.1903 80.8708 26.2626 83.2431C25.3395 85.62 26.5118 88.2923 28.8841 89.2246C34.1595 91.2785 39.564 92.2154 45.5178 92.3077C57.8086 92.3077 69.3701 87.5215 78.0793 78.8354C86.807 70.1215 91.6209 58.5369 91.6393 46.2092C91.6763 20.7785 70.9993 0.0507692 45.5547 0Z" fill="#2964E0"/>
</g>
</svg>
