<svg width="98" height="114" viewBox="0 0 98 114" fill="none" xmlns="http://www.w3.org/2000/svg">
<rect x="2" y="2" width="94" height="110" rx="20" fill="white" fill-opacity="0.5"/>
<rect x="2" y="2" width="94" height="110" rx="20" stroke="#2964E0" stroke-width="4" stroke-linecap="round" stroke-dasharray="5 13"/>
<path fill-rule="evenodd" clip-rule="evenodd" d="M42.9442 52.1885C40.8772 52.1885 39.1953 50.5067 39.1953 48.4396C39.1953 46.3694 40.8772 44.6875 42.9442 44.6875C45.0128 44.6891 46.6946 46.3726 46.6946 48.4396C46.6946 50.5067 45.0112 52.1885 42.9442 52.1885ZM42.9426 47.125C42.2211 47.125 41.6328 47.7132 41.6328 48.4396C41.6328 49.1628 42.2211 49.751 42.9442 49.751C43.6689 49.751 44.2572 49.1628 44.2572 48.4396C44.2572 47.7149 43.6673 47.1266 42.9426 47.125Z" fill="#2964E0"/>
<path d="M38.8616 61.6052C38.6796 61.6052 38.4927 61.5646 38.3188 61.4769C37.7176 61.1762 37.4738 60.4482 37.7712 59.847C37.9418 59.5041 39.5018 56.5092 42.1035 56.5092C43.4425 56.5092 44.4223 57.2372 45.2105 57.8255C45.9775 58.3942 46.4796 58.7436 47.1345 58.7436C47.5976 58.7371 48.7985 57.2925 49.4436 56.5141C50.82 54.8566 52.2451 53.1406 54.0602 53.1406C57.1705 53.1406 59.1042 57.2762 59.3139 57.7475C59.5869 58.3617 59.3122 59.08 58.698 59.3546C58.0886 59.6325 57.3639 59.3562 57.0876 58.742C56.6245 57.7101 55.2725 55.5781 54.0602 55.5781C53.3906 55.5781 52.1486 57.0726 51.3247 58.0639L51.3189 58.0709C49.9912 59.6715 48.7367 61.1811 47.1345 61.1811C45.6395 61.1811 44.5946 60.4044 43.7561 59.7804C43.0606 59.2653 42.6105 58.9467 42.1035 58.9467C41.2341 58.9467 40.2802 60.2857 39.9536 60.9325C39.7391 61.3599 39.3085 61.6052 38.8616 61.6052Z" fill="#2964E0"/>
<path fill-rule="evenodd" clip-rule="evenodd" d="M32.25 53.1445C32.25 65.1419 36.5026 69.3945 48.5 69.3945C60.4974 69.3945 64.75 65.1419 64.75 53.1445C64.75 41.1472 60.4974 36.8945 48.5 36.8945C36.5026 36.8945 32.25 41.1472 32.25 53.1445ZM34.6875 53.1445C34.6875 42.5593 37.9148 39.332 48.5 39.332C59.0853 39.332 62.3125 42.5593 62.3125 53.1445C62.3125 63.7298 59.0853 66.957 48.5 66.957C37.9148 66.957 34.6875 63.7298 34.6875 53.1445Z" fill="#2964E0"/>
<path fill-rule="evenodd" clip-rule="evenodd" d="M66.96 32.1992C67.4063 32.1992 67.7685 32.5614 67.7685 33.0077V36.1475L70.9124 36.1477C71.3586 36.1477 71.7208 36.5099 71.7208 36.9561C71.7208 37.4024 71.3586 37.7646 70.9124 37.7646L67.7685 37.7644V40.9059C67.7685 41.3522 67.4063 41.7144 66.96 41.7144C66.5137 41.7144 66.1516 41.3522 66.1516 40.9059V37.7644L63.0077 37.7646C62.5603 37.7646 62.1992 37.4024 62.1992 36.9561C62.1992 36.5099 62.5603 36.1477 63.0077 36.1477L66.1516 36.1475V33.0077C66.1516 32.5614 66.5137 32.1992 66.96 32.1992Z" fill="#2964E0"/>
<path d="M39.3974 77.668H42.3134V78.484H39.3974V77.668ZM36.9134 75.58C37.4494 75.58 37.9254 75.688 38.3414 75.904C38.7654 76.112 39.0974 76.404 39.3374 76.78C39.5774 77.156 39.6974 77.592 39.6974 78.088C39.6974 78.584 39.5774 79.024 39.3374 79.408C39.0974 79.784 38.7654 80.08 38.3414 80.296C37.9254 80.504 37.4494 80.608 36.9134 80.608C36.3694 80.608 35.8854 80.504 35.4614 80.296C35.0454 80.08 34.7174 79.784 34.4774 79.408C34.2374 79.024 34.1174 78.584 34.1174 78.088C34.1174 77.592 34.2374 77.156 34.4774 76.78C34.7174 76.404 35.0454 76.112 35.4614 75.904C35.8854 75.688 36.3694 75.58 36.9134 75.58ZM36.9134 76.42C36.5534 76.42 36.2334 76.492 35.9534 76.636C35.6814 76.772 35.4654 76.968 35.3054 77.224C35.1454 77.472 35.0654 77.76 35.0654 78.088C35.0654 78.416 35.1454 78.708 35.3054 78.964C35.4654 79.212 35.6814 79.408 35.9534 79.552C36.2334 79.696 36.5534 79.768 36.9134 79.768C37.2654 79.768 37.5774 79.696 37.8494 79.552C38.1294 79.408 38.3494 79.212 38.5094 78.964C38.6694 78.708 38.7494 78.416 38.7494 78.088C38.7494 77.76 38.6694 77.472 38.5094 77.224C38.3494 76.968 38.1294 76.772 37.8494 76.636C37.5774 76.492 37.2654 76.42 36.9134 76.42ZM41.8814 75.076H42.8774V80.908H41.8814V75.076ZM35.9294 81.448H36.9134V82.804H41.8814V81.448H42.8774V85.792H35.9294V81.448ZM36.9134 83.596V84.976H41.8814V83.596H36.9134ZM44.5805 83.764H54.4205V84.592H44.5805V83.764ZM48.9845 81.448H49.9685V84.112H48.9845V81.448ZM45.7805 75.88H53.1965V79.168H46.7885V81.34H45.8045V78.376H52.2125V76.696H45.7805V75.88ZM45.8045 80.92H53.4485V81.736H45.8045V80.92ZM56.4595 80.284H63.9115V81.1H56.4595V80.284ZM55.2115 83.632H65.0515V84.46H55.2115V83.632ZM56.4595 76.084H63.8035V76.9H57.4435V80.644H56.4595V76.084Z" fill="#2964E0"/>
</svg>
