<svg width="32" height="32" viewBox="0 0 32 32" fill="none" xmlns="http://www.w3.org/2000/svg">
<path d="M16.0267 2.66663C23.6 2.66663 29.3333 8.87594 29.3333 15.9799C29.3333 24.219 22.6133 29.3333 16 29.3333C13.8133 29.3333 11.3867 28.7457 9.44 27.5974C8.76 27.1834 8.18667 26.8763 7.45334 27.1166L4.76 27.9178C4.08001 28.1315 3.46667 27.5974 3.66667 26.8763L4.56 23.8851C4.70667 23.4712 4.68001 23.0305 4.46667 22.6833C3.32001 20.5735 2.66667 18.2634 2.66667 16.02C2.66667 8.99612 8.28001 2.66663 16.0267 2.66663ZM22.12 14.3241C21.1733 14.3241 20.4133 15.0853 20.4133 16.0333C20.4133 16.9681 21.1733 17.7426 22.12 17.7426C23.0667 17.7426 23.8267 16.9681 23.8267 16.0333C23.8267 15.0853 23.0667 14.3241 22.12 14.3241ZM15.9733 14.3241C15.04 14.3108 14.2667 15.0853 14.2667 16.02C14.2667 16.9681 15.0267 17.7292 15.9733 17.7426C16.92 17.7426 17.68 16.9681 17.68 16.0333C17.68 15.0853 16.92 14.3241 15.9733 14.3241ZM9.82667 14.3241C8.88 14.3241 8.12001 15.0853 8.12001 16.0333C8.12001 16.9681 8.89334 17.7426 9.82667 17.7426C10.7733 17.7292 11.5333 16.9681 11.5333 16.0333C11.5333 15.0853 10.7733 14.3241 9.82667 14.3241Z" fill="#2964E0"/>
</svg>
