<svg width="32" height="32" viewBox="0 0 32 32" fill="none" xmlns="http://www.w3.org/2000/svg">
<path d="M12.1923 27.7098V23.6207C12.1923 22.5844 13.0349 21.7426 14.0786 21.7361H17.9108C18.9592 21.7361 19.809 22.5798 19.809 23.6207V27.698C19.809 28.5967 20.5393 29.3271 21.4446 29.3337H24.0591C25.2802 29.3368 26.4523 28.8574 27.3169 28.0013C28.1814 27.1451 28.6673 25.9827 28.6673 24.7704V13.1548C28.6673 12.1755 28.2301 11.2466 27.4735 10.6183L18.5913 3.56602C17.0387 2.33249 14.8211 2.37234 13.3145 3.66084L4.62333 10.6183C3.83097 11.2281 3.35739 12.1597 3.33398 13.1548V24.7585C3.33398 27.2853 5.39716 29.3337 7.94222 29.3337H10.497C10.9329 29.3368 11.352 29.1671 11.6613 28.8622C11.9706 28.5574 12.1446 28.1425 12.1445 27.7098H12.1923Z" fill="#2964E0"/>
</svg>
