<svg width="32" height="32" viewBox="0 0 32 32" fill="none" xmlns="http://www.w3.org/2000/svg">
<path d="M26.3587 15.5269C25.3847 14.3896 24.9421 13.4039 24.9421 11.7294V11.16C24.9421 8.97789 24.4399 7.57192 23.348 6.16596C21.665 3.98249 18.8319 2.6665 16.0583 2.6665H15.9404C13.2252 2.6665 10.4808 3.92207 8.76868 6.01691C7.61712 7.45107 7.05658 8.91746 7.05658 11.16V11.7294C7.05658 13.4039 6.64314 14.3896 5.64 15.5269C4.90189 16.3649 4.66602 17.4418 4.66602 18.6074C4.66602 19.7744 5.04898 20.8795 5.81757 21.7779C6.82071 22.8549 8.23729 23.5424 9.68435 23.6619C11.7794 23.9009 13.8745 23.9909 16 23.9909C18.1242 23.9909 20.2193 23.8405 22.3157 23.6619C23.7614 23.5424 25.178 22.8549 26.1811 21.7779C26.9484 20.8795 27.3327 19.7744 27.3327 18.6074C27.3327 17.4418 27.0968 16.3649 26.3587 15.5269Z" fill="#FFD600"/>
<path opacity="0.4" d="M18.6776 25.6376C18.0111 25.4953 13.9495 25.4953 13.2829 25.6376C12.7131 25.7692 12.0969 26.0754 12.0969 26.7468C12.13 27.3874 12.5051 27.9527 13.0245 28.3112L13.0232 28.3126C13.695 28.8363 14.4835 29.1693 15.3091 29.2888C15.749 29.3493 16.1969 29.3466 16.6528 29.2888C17.477 29.1693 18.2655 28.8363 18.9373 28.3126L18.936 28.3112C19.4555 27.9527 19.8305 27.3874 19.8636 26.7468C19.8636 26.0754 19.2474 25.7692 18.6776 25.6376Z" fill="#FFD600"/>
</svg>
