<svg width="18" height="17" viewBox="0 0 18 17" fill="none" xmlns="http://www.w3.org/2000/svg">
<g id="Iconly/Bulk/Send">
<g id="Send">
<path id="Fill-1" opacity="0.5" d="M16.566 1.01303C16.159 0.597132 15.5568 0.443307 14.9952 0.606085L1.89964 4.38987C1.30713 4.55428 0.887157 5.02389 0.774026 5.61966C0.658453 6.22683 1.06214 6.9984 1.58955 7.3207L5.68424 9.82098C6.10421 10.0782 6.64626 10.0139 6.99379 9.66552L11.6826 4.97669C11.9187 4.73171 12.3093 4.73171 12.5454 4.97669C12.7814 5.2119 12.7814 5.59525 12.5454 5.83941L7.84838 10.5282C7.50003 10.8766 7.43492 11.417 7.6913 11.8378L10.1932 15.948C10.4862 16.4355 10.9908 16.713 11.5443 16.713C11.6094 16.713 11.6826 16.713 11.7477 16.7041C12.3826 16.6235 12.8872 16.1913 13.0744 15.5809L16.9567 2.58384C17.1276 2.0304 16.9729 1.42812 16.566 1.01303Z" fill="#2964E0"/>
<path id="Combined-Shape" opacity="0.2" d="M6.8197 14.4942C7.05736 14.7327 7.05736 15.1193 6.8197 15.3577L5.70792 16.4687C5.5891 16.5883 5.43283 16.6478 5.27656 16.6478C5.12029 16.6478 4.96403 16.5883 4.8452 16.4687C4.60673 16.2302 4.60673 15.8445 4.8452 15.606L5.95616 14.4942C6.19463 14.2565 6.58123 14.2565 6.8197 14.4942ZM6.18185 11.4112C6.41951 11.6496 6.41951 12.0362 6.18185 12.2747L5.07008 13.3857C4.95125 13.5053 4.79498 13.5647 4.63871 13.5647C4.48245 13.5647 4.32618 13.5053 4.20735 13.3857C3.96888 13.1472 3.96888 12.7614 4.20735 12.523L5.31831 11.4112C5.55678 11.1735 5.94338 11.1735 6.18185 11.4112ZM3.12064 10.4407C3.3583 10.6792 3.3583 11.0658 3.12064 11.3042L2.00886 12.4152C1.89004 12.5348 1.73377 12.5943 1.5775 12.5943C1.42123 12.5943 1.26497 12.5348 1.14614 12.4152C0.907668 12.1767 0.907668 11.7909 1.14614 11.5525L2.2571 10.4407C2.49557 10.203 2.88217 10.203 3.12064 10.4407Z" fill="#2964E0"/>
</g>
</g>
</svg>
