<svg width="24" height="24" viewBox="0 0 24 24" fill="none" xmlns="http://www.w3.org/2000/svg">
<path d="M9.14422 20.7824V17.7155C9.14421 16.9383 9.77616 16.307 10.5589 16.3021H13.4331C14.2194 16.3021 14.8568 16.9349 14.8568 17.7155V20.7735C14.8567 21.4475 15.4045 21.9953 16.0834 22.0002H18.0443C18.9601 22.0026 19.8392 21.643 20.4877 21.0009C21.1361 20.3589 21.5005 19.487 21.5005 18.5778V9.86609C21.5005 9.13163 21.1726 8.43496 20.6051 7.96374L13.9435 2.67451C12.779 1.74937 11.1159 1.77925 9.98588 2.74563L3.4675 7.96374C2.87323 8.42107 2.51804 9.11981 2.50049 9.86609V18.5689C2.50049 20.464 4.04787 22.0002 5.95666 22.0002H7.87278C8.19966 22.0026 8.51398 21.8753 8.74596 21.6467C8.97795 21.418 9.10841 21.1069 9.10841 20.7824H9.14422Z" fill="#CDCFD5"/>
</svg>
