<svg width="34" height="34" viewBox="0 0 34 34" fill="none" xmlns="http://www.w3.org/2000/svg">
<g id="Add User">
<path id="Vector" fill-rule="evenodd" clip-rule="evenodd" d="M29.5792 10.1813C28.4388 9.81665 26.8708 10.3287 25.8576 11.4182C25.8173 11.4615 25.7486 11.4624 25.7073 11.4202C24.6492 10.3369 23.1329 9.81452 22 10.182C19.3403 11.038 18.5108 14.1197 19.2676 16.4832C20.4619 20.2001 24.4329 22.2056 25.793 22.2056C27.0071 22.2056 31.1356 20.2381 32.3164 16.4832C33.0732 14.1203 32.2417 11.0387 29.5792 10.1813Z" fill="#FF3E3E"/>
<path id="Subtract" fill-rule="evenodd" clip-rule="evenodd" d="M14.2132 16.6269H14.1679C10.2451 16.6127 7.06889 13.4125 7.08306 9.494C7.08306 5.56558 10.2819 2.36816 14.2132 2.36816C17.6916 2.36816 20.5948 4.86952 21.2191 8.1676C21.1365 8.18931 21.0553 8.21301 20.9754 8.23863C17.6489 9.29772 16.4828 12.9558 17.2055 15.9684C16.2952 16.3909 15.2813 16.6269 14.2132 16.6269Z" fill="#E6F3FF"/>
<path id="Subtract_2" fill-rule="evenodd" clip-rule="evenodd" d="M19.535 20.8214C20.9192 22.3345 22.5959 23.3686 23.9056 23.8876C24.5675 24.7798 24.9404 25.7704 24.9404 26.8054C24.9404 31.632 16.8668 31.632 14.2134 31.632C9.60775 31.632 3.48633 31.1347 3.48633 26.8337C3.48633 23.0625 8.39933 19.8765 14.2134 19.8765C16.1337 19.8765 17.9558 20.2225 19.535 20.8214Z" fill="#E6F3FF"/>
</g>
</svg>
