<svg width="16" height="16" viewBox="0 0 16 16" fill="none" xmlns="http://www.w3.org/2000/svg">
<g id="icon_16_delete">
<path id="Oval" d="M8 16C12.4183 16 16 12.4183 16 8C16 3.58172 12.4183 0 8 0C3.58172 0 0 3.58172 0 8C0 12.4183 3.58172 16 8 16Z" fill="#B0D0FF"/>
<path id="Path" fill-rule="evenodd" clip-rule="evenodd" d="M10.8249 5.17167C11.0201 5.36693 11.0201 5.68351 10.8249 5.87878L8.70425 7.99939L10.825 10.1214C11.0202 10.3167 11.0202 10.6332 10.8249 10.8285C10.6296 11.0238 10.313 11.0238 10.1177 10.8285L7.99643 8.7072L5.87511 10.8285C5.67985 11.0238 5.36327 11.0238 5.16801 10.8285C4.97274 10.6333 4.97274 10.3167 5.16801 10.1214L7.28933 8.0001L5.16801 5.87878C4.97274 5.68351 4.97274 5.36693 5.16801 5.17167C5.36327 4.97641 5.67985 4.97641 5.87511 5.17167L7.99643 7.29299L10.1178 5.17167C10.313 4.97641 10.6296 4.97641 10.8249 5.17167Z" fill="#E6F3FF"/>
</g>
</svg>
