<svg width="28" height="24" viewBox="0 0 28 24" fill="none" xmlns="http://www.w3.org/2000/svg">
<g id="Iconly/Two-tone/Camera">
<g id="Camera">
<path id="Stroke-1" fill-rule="evenodd" clip-rule="evenodd" d="M18.0534 1.40102C19.4001 1.93702 19.8121 3.80369 20.3627 4.40369C20.9134 5.00369 21.7014 5.20769 22.1374 5.20769C24.4547 5.20769 26.3334 7.08636 26.3334 9.40236V17.129C26.3334 20.2357 23.8134 22.7557 20.7067 22.7557H7.29341C4.18541 22.7557 1.66675 20.2357 1.66675 17.129V9.40236C1.66675 7.08636 3.54541 5.20769 5.86275 5.20769C6.29741 5.20769 7.08541 5.00369 7.63741 4.40369C8.18808 3.80369 8.59875 1.93702 9.94541 1.40102C11.2934 0.865023 16.7067 0.865023 18.0534 1.40102Z" stroke="#2964E0" stroke-width="2" stroke-linecap="round" stroke-linejoin="round"/>
<g id="Group" opacity="0.4">
<path id="Stroke-13" d="M21.3271 8.93262H21.3391" stroke="#2964E0" stroke-width="2" stroke-linecap="round" stroke-linejoin="round"/>
<path id="Stroke-5" fill-rule="evenodd" clip-rule="evenodd" d="M18.2383 13.7709C18.2383 11.4296 16.341 9.53223 13.9997 9.53223C11.6583 9.53223 9.76099 11.4296 9.76099 13.7709C9.76099 16.1122 11.6583 18.0096 13.9997 18.0096C16.341 18.0096 18.2383 16.1122 18.2383 13.7709Z" stroke="#2964E0" stroke-width="2" stroke-linecap="round" stroke-linejoin="round"/>
</g>
</g>
</g>
</svg>
