<svg width="32" height="32" viewBox="0 0 32 32" fill="none" xmlns="http://www.w3.org/2000/svg">
<g id="Image">
<path id="Vector" fill-rule="evenodd" clip-rule="evenodd" d="M26.4615 11.1081V20.8901C26.4615 24.5141 24.1934 27.0706 20.5693 27.0706H10.1878C6.56369 27.0706 4.30762 24.5141 4.30762 20.8901V11.1081C4.30762 7.484 6.57567 4.92871 10.1878 4.92871H20.5693C24.1934 4.92871 26.4615 7.484 26.4615 11.1081Z" stroke="#2964E0" stroke-width="1.84615" stroke-linecap="round" stroke-linejoin="round"/>
<path id="Vector_2" opacity="0.4" d="M7.34619 21.3446L9.17978 19.4092C9.81531 18.733 10.8793 18.7008 11.5543 19.3351L11.5567 19.3362L12.6805 20.4792C13.346 21.1566 14.4352 21.1686 15.1138 20.5032C15.1581 20.4602 17.9145 17.116 17.9145 17.116C18.6254 16.2544 19.9012 16.131 20.7642 16.8419C20.8216 16.8898 23.426 19.5624 23.426 19.5624" stroke="#2964E0" stroke-width="1.84615" stroke-linecap="round" stroke-linejoin="round"/>
<path id="Vector_3" opacity="0.4" fill-rule="evenodd" clip-rule="evenodd" d="M13.3849 12.5906C13.3849 13.7528 12.443 14.6959 11.2796 14.6959C10.1174 14.6959 9.17432 13.7528 9.17432 12.5906C9.17432 11.4285 10.1174 10.4854 11.2796 10.4854C12.443 10.4854 13.3849 11.4285 13.3849 12.5906Z" stroke="#2964E0" stroke-width="1.84615" stroke-linecap="round" stroke-linejoin="round"/>
</g>
</svg>
