<svg width="32" height="32" viewBox="0 0 32 32" fill="none" xmlns="http://www.w3.org/2000/svg">
<g id="Ringing 2">
<path id="Vector" fill-rule="evenodd" clip-rule="evenodd" d="M7.51759 13.3762C7.51759 9.03069 11.0405 5.50781 15.386 5.50781C19.7315 5.50781 23.2532 9.03069 23.2532 13.3762L23.2545 14.9557C23.2545 15.8908 23.4616 16.8129 23.8591 17.6582L24.4172 18.8449C25.271 20.6603 23.9478 22.745 21.9432 22.745H8.82881C6.82428 22.745 5.49991 20.6603 6.35368 18.8449L6.91289 17.6582C7.31044 16.8129 7.5164 15.8908 7.5164 14.9557L7.51759 13.3762Z" stroke="#2964E0" stroke-width="1.84615" stroke-linecap="round" stroke-linejoin="round"/>
<path id="Vector_2" opacity="0.4" d="M11.6682 23.3633C11.6682 25.4145 13.3315 27.0777 15.3815 27.0777C17.4327 27.0777 19.0959 25.4145 19.0959 23.3633" stroke="#2964E0" stroke-width="1.84615" stroke-linecap="round" stroke-linejoin="round"/>
<path id="Vector_3" opacity="0.4" d="M5.62256 8.34037C6.2093 7.06508 7.14331 5.86764 8.35274 4.92285" stroke="#2964E0" stroke-width="1.84615" stroke-linecap="round" stroke-linejoin="round"/>
<path id="Vector_4" opacity="0.4" d="M25.1484 8.34037C24.5617 7.06508 23.6277 5.86764 22.4182 4.92285" stroke="#2964E0" stroke-width="1.84615" stroke-linecap="round" stroke-linejoin="round"/>
</g>
</svg>
