<svg width="32" height="32" viewBox="0 0 32 32" fill="none" xmlns="http://www.w3.org/2000/svg">
<g id="Search phone">
<path id="Vector" d="M8.60669 18.4247L8.60798 23.1767C8.60798 25.8413 10.768 28 13.4314 28H20.7856C23.4491 28 25.6091 25.84 25.6091 23.1753L25.6078 8.82335C25.6078 6.16 23.4478 4 20.7844 4H18.2314" stroke="#2964E0" stroke-width="2" stroke-linecap="round" stroke-linejoin="round"/>
<path id="Vector_2" opacity="0.4" d="M12.8847 11.1939L14.8293 13.1346M10.2553 4.49707C12.3893 4.49707 14.1199 6.22766 14.1199 8.36171C14.1199 10.4971 12.3893 12.2264 10.2553 12.2264C8.12121 12.2264 6.39062 10.4971 6.39062 8.36171C6.39062 6.22766 8.12121 4.49707 10.2553 4.49707Z" stroke="#2964E0" stroke-width="2" stroke-linecap="round" stroke-linejoin="round"/>
<path id="Vector_3" d="M17.107 23.1078V23.0435M17.107 22.7061C16.9228 22.7061 16.7734 22.8554 16.7734 23.0391C16.7734 23.2234 16.9228 23.3727 17.107 23.3727C17.2914 23.3727 17.4406 23.2234 17.4406 23.0391C17.4406 22.8554 17.2914 22.7061 17.107 22.7061Z" stroke="#2964E0" stroke-width="2" stroke-linecap="round" stroke-linejoin="round"/>
</g>
</svg>
